<svg width="18" height="18" viewBox="0 0 18 18" fill="none" xmlns="http://www.w3.org/2000/svg">
<path d="M2 7.8993C1.3921 7.8993 0.899301 8.3921 0.899301 9C0.899301 9.6079 1.3921 10.1007 2 10.1007V7.8993ZM16.7783 9.77831C17.2082 9.34846 17.2082 8.65154 16.7783 8.22169L9.77351 1.21688C9.34366 0.787031 8.64673 0.787031 8.21688 1.21688C7.78703 1.64673 7.78703 2.34366 8.21688 2.77351L14.4434 9L8.21688 15.2265C7.78703 15.6563 7.78703 16.3533 8.21688 16.7831C8.64673 17.213 9.34366 17.213 9.77351 16.7831L16.7783 9.77831ZM2 10.1007H16V7.8993H2V10.1007Z" fill="#6E7A89"/>
</svg>
