<svg width="62" height="69" viewBox="0 0 62 69" fill="none" xmlns="http://www.w3.org/2000/svg">
<path d="M61.2049 33.8192C60.8827 30.8856 59.1991 26.462 53.0064 22.0452C48.3501 18.7258 41.9837 17.5842 36.97 17.2484C37.7258 15.605 37.9365 13.7187 37.5651 11.9202C37.1938 10.1216 36.264 8.52549 34.9389 7.41149C35.4199 5.36618 36.0414 3.36478 36.7978 1.42486C36.8982 1.18281 36.9079 0.906415 36.8247 0.656469C36.7415 0.406523 36.5722 0.203503 36.3542 0.0920708C36.1361 -0.0193611 35.8871 -0.0300771 35.6619 0.0622801C35.4368 0.154637 35.2539 0.342503 35.1535 0.584548C34.4159 2.46227 33.8041 4.39782 33.323 6.37545C31.6018 5.58949 29.6706 5.58949 27.9494 6.37545C27.467 4.39768 26.8538 2.46213 26.1148 0.584548C26.0651 0.464699 25.9946 0.356892 25.9074 0.267281C25.8201 0.17767 25.7178 0.108011 25.6063 0.0622801C25.4949 0.0165495 25.3763 -0.00435684 25.2576 0.000754667C25.1388 0.00586618 25.0221 0.0368953 24.9141 0.0920708C24.8062 0.147246 24.709 0.225488 24.6283 0.322327C24.5476 0.419167 24.4848 0.532708 24.4436 0.656469C24.3604 0.906415 24.3701 1.18281 24.4705 1.42486C25.2295 3.36392 25.8507 5.36596 26.3284 7.41264C25.0035 8.52667 24.0741 10.1227 23.703 11.921C23.3318 13.7193 23.5425 15.6052 24.2983 17.2484C19.2825 17.5847 12.9182 18.7258 8.26184 22.0457C2.06921 26.462 0.384536 30.8856 0.0634245 33.8192C-0.0956361 35.3152 0.0453773 36.8317 0.47636 38.2601C0.907343 39.6884 1.61762 40.9933 2.5563 42.0811C3.36315 43.006 4.40234 43.6395 5.53834 43.8989C6.2072 46.4458 7.73898 48.6059 9.81207 49.9258C10.6842 50.4776 11.6735 50.7604 12.6773 50.7448C15.2001 50.7448 18.1584 49.1698 21.0711 46.351C21.143 47.0553 21.2299 47.7601 21.3328 48.4615C21.6808 50.9946 22.2896 53.4749 23.1472 55.8538C24.8205 60.363 27.1329 63.0481 29.7287 63.5555V67.0126C29.7287 67.279 29.8241 67.5345 29.9938 67.7229C30.1635 67.9113 30.3936 68.0171 30.6336 68.0171C30.8736 68.0171 31.1038 67.9113 31.2735 67.7229C31.4432 67.5345 31.5385 67.279 31.5385 67.0126V63.5544C34.1343 63.047 36.4462 60.3619 38.1205 55.8515C38.9779 53.4733 39.5867 50.9938 39.935 48.4615C40.0384 47.7601 40.1248 47.0547 40.1966 46.3498C43.112 49.1692 46.0676 50.7443 48.5905 50.7437C49.5941 50.7592 50.5832 50.4764 51.4552 49.9246C53.5285 48.6049 55.0605 46.4447 55.7294 43.8978C56.866 43.6375 57.9056 43.0035 58.713 42.0783C59.651 40.9905 60.3607 39.6861 60.7915 38.2583C61.2223 36.8305 61.3634 35.3147 61.2049 33.8192ZM24.6121 54.4654C24.047 52.79 23.6132 51.0635 23.3158 49.3053H37.9525C37.655 51.0635 37.2212 52.79 36.6561 54.4654H24.6121ZM38.2539 47.2963H23.0149C22.899 46.3918 22.808 45.4877 22.7455 44.5894C23.4089 43.8329 24.0635 43.0098 24.7068 42.1305H36.561C37.2048 43.0104 37.8599 43.8329 38.5228 44.59C38.4613 45.4883 38.3693 46.3923 38.2539 47.2963ZM26.0915 40.1216C26.3992 39.644 26.7038 39.155 27.0026 38.6499C27.6952 37.4743 28.3051 36.2412 28.8269 34.9615H32.4439C32.9656 36.2412 33.5753 37.4743 34.2677 38.6499C34.5671 39.155 34.8712 39.644 35.1793 40.1216H26.0915ZM29.5715 32.9525C29.9975 31.6742 30.3524 30.368 30.6341 29.0414C30.9159 30.368 31.2708 31.6742 31.6968 32.9525H29.5715ZM30.6341 7.79491C31.6126 7.79516 32.5718 8.09598 33.4057 8.66406C34.2397 9.23215 34.9157 10.0453 35.3589 11.0136C35.8022 11.9818 35.9954 13.0673 35.9171 14.1499C35.8389 15.2325 35.4923 16.27 34.9156 17.1474C33.3892 17.1009 32.159 17.1284 31.3689 17.1634C30.9035 17.1864 30.645 17.2048 30.645 17.2048H30.6336H30.6222C30.6222 17.2048 30.3637 17.1864 29.8937 17.1629C29.1077 17.1284 27.877 17.1015 26.3527 17.1474C25.7758 16.27 25.429 15.2325 25.3507 14.1499C25.2724 13.0672 25.4655 11.9816 25.9088 11.0132C26.3521 10.0449 27.0282 9.23172 27.8622 8.66368C28.6962 8.09565 29.6556 7.79495 30.6341 7.79491ZM1.85979 34.0626C2.25432 30.4683 4.80718 26.8976 9.24017 23.7361C13.6871 20.5672 20.0525 19.5638 24.2962 19.2591C19.7975 21.0751 13.8381 24.1855 10.1621 28.914C5.92202 34.3668 5.04711 38.717 5.1981 41.6685C4.69743 41.4544 4.24405 41.1234 3.86867 40.6978C3.11387 39.8246 2.54236 38.777 2.19506 37.6299C1.84777 36.4828 1.73327 35.2646 1.85979 34.0626ZM10.7211 48.186C9.77353 47.5862 8.95714 46.7613 8.33039 45.7703C7.70365 44.7793 7.28206 43.6467 7.09581 42.4537C6.55546 38.8835 8.08914 34.6555 11.5319 30.2278C16.5254 23.805 26.4757 20.4397 29.7179 19.4806C29.7784 22.4957 29.5255 30.7307 25.4902 37.5455C20.6471 45.7288 14.1597 50.4033 10.7211 48.186ZM30.6341 61.6402C28.7369 61.6402 26.8641 59.7759 25.3878 56.4743H35.8805C34.4042 59.7764 32.5313 61.6402 30.6341 61.6402ZM50.5472 48.186C47.1054 50.4022 40.6191 45.7277 35.7781 37.5455C31.7448 30.7272 31.4899 22.4946 31.5504 19.48C34.792 20.4374 44.7361 23.7975 49.7359 30.2278C53.1791 34.6555 54.7128 38.8835 54.1725 42.4537C53.9861 43.6467 53.5645 44.7792 52.9378 45.7702C52.311 46.7612 51.4947 47.5861 50.5472 48.186ZM56.0681 41.6713C56.2232 38.7193 55.3442 34.3674 51.1067 28.9163C47.4302 24.1878 41.4728 21.0774 36.9721 19.2613C41.2122 19.5633 47.5832 20.5666 52.0281 23.7355C56.4616 26.8976 59.014 30.4683 59.4085 34.0626C59.535 35.2647 59.4205 36.483 59.0731 37.6302C58.7257 38.7775 58.1541 39.8252 57.3991 40.6984C57.0232 41.1246 56.5693 41.4564 56.0681 41.6713Z" fill="#49A760"/>
<path d="M43.9234 26.7245C42.7737 25.9325 41.5848 25.213 40.3622 24.5694C40.255 24.5124 40.1388 24.4793 40.0201 24.4722C39.9014 24.465 39.7826 24.4839 39.6705 24.5277C39.5584 24.5715 39.4551 24.6394 39.3666 24.7275C39.2782 24.8156 39.2062 24.9222 39.1548 25.0412C39.1034 25.1601 39.0737 25.2892 39.0672 25.4209C39.0608 25.5526 39.0778 25.6845 39.1173 25.8089C39.1567 25.9334 39.2179 26.048 39.2973 26.1462C39.3767 26.2444 39.4727 26.3243 39.5799 26.3813C40.7406 26.9925 41.8695 27.6756 42.9611 28.4274C43.0618 28.4976 43.174 28.545 43.2913 28.567C43.4085 28.589 43.5285 28.5851 43.6444 28.5557C43.7603 28.5262 43.8699 28.4717 43.9668 28.3952C44.0637 28.3188 44.1462 28.2218 44.2093 28.11C44.2725 27.9982 44.3152 27.8737 44.3351 27.7435C44.3549 27.6134 44.3514 27.4802 44.3249 27.3516C44.2983 27.2229 44.2492 27.1013 44.1803 26.9937C44.1114 26.8861 44.0241 26.7947 43.9234 26.7245Z" fill="#49A760"/>
</svg>
