<svg width="16" height="18" viewBox="0 0 16 18" fill="none" xmlns="http://www.w3.org/2000/svg">
<path d="M15.5235 15.7911V4.16539C15.5235 3.24945 14.7648 2.50457 13.8319 2.50457H12.1403V0.84375H10.4488V2.50457H5.37404V0.84375H3.68247V2.50457H1.99089C1.05799 2.50457 0.299316 3.24945 0.299316 4.16539V15.7911C0.299316 16.7071 1.05799 17.4519 1.99089 17.4519H13.8319C14.7648 17.4519 15.5235 16.7071 15.5235 15.7911ZM5.37404 14.1303H3.68247V12.4695H5.37404V14.1303ZM5.37404 10.8087H3.68247V9.14784H5.37404V10.8087ZM8.75719 14.1303H7.06561V12.4695H8.75719V14.1303ZM8.75719 10.8087H7.06561V9.14784H8.75719V10.8087ZM12.1403 14.1303H10.4488V12.4695H12.1403V14.1303ZM12.1403 10.8087H10.4488V9.14784H12.1403V10.8087ZM13.8319 6.65661H1.99089V4.9958H13.8319V6.65661Z" fill="#A0D468"/>
</svg>
