<svg width="58" height="58" viewBox="0 0 58 58" fill="none" xmlns="http://www.w3.org/2000/svg">
<g clip-path="url(#clip0_10_5454)">
<path d="M22.6563 4.53125V15.7144C21.8225 15.2341 20.8991 14.8716 19.9194 14.6731L19.9375 14.5453V7.25L22.6563 4.53125Z" fill="#49A760"/>
<path d="M40.7812 0.90625V4.53125V14.5453C40.4822 14.5181 40.1831 14.5 39.875 14.5C39.2587 14.5 38.6606 14.5634 38.0815 14.6722L38.0625 14.5453V7.25V3.625L40.7812 0.90625Z" fill="#A0D468"/>
<path d="M38.0625 14.5453L38.0815 14.6731C37.1019 14.8716 36.1775 15.2341 35.3438 15.7144V4.53125L38.0625 7.25V14.5453Z" fill="#49A760"/>
<path d="M43.5 7.25V15.2613C42.6572 14.8897 41.7428 14.645 40.7812 14.5453V4.53125L43.5 7.25Z" fill="#49A760"/>
<path d="M17.2188 4.53125V14.5453C16.2581 14.645 15.3437 14.8897 14.5 15.2613V7.25L17.2188 4.53125Z" fill="#49A760"/>
<path d="M19.9375 3.625V7.25V14.5453L19.9194 14.6731C19.3394 14.5634 18.7422 14.5 18.125 14.5C17.8169 14.5 17.5178 14.5181 17.2188 14.5453V4.53125V0.90625L19.9375 3.625Z" fill="#A0D468"/>
<path d="M48.5759 28.0938C48.0593 32.6703 46.999 39.4581 45.5753 45.3125C44.0256 51.765 42.0418 57.0938 39.875 57.0938C36.7303 57.0938 33.9662 45.8563 32.3441 36.25C31.3744 30.5497 30.8125 25.4203 30.8125 23.5625C30.8125 20.2094 32.6341 17.2822 35.3437 15.7144C36.1775 15.2341 37.1019 14.8716 38.0815 14.6731C38.6606 14.5634 39.2587 14.5 39.875 14.5C40.1831 14.5 40.4822 14.5181 40.7812 14.5453C41.7428 14.645 42.6572 14.8897 43.5 15.2613C46.7081 16.6569 48.9375 19.8478 48.9375 23.5625C48.9375 24.4416 48.8106 26.0456 48.5759 28.0938Z" fill="#EFB443"/>
<path d="M25.6568 36.25C24.0347 45.8563 21.2697 57.0938 18.125 57.0938C15.9591 57.0938 13.9744 51.765 12.4247 45.3125C11.0028 39.4581 9.94156 32.6703 9.425 28.0938C9.18937 26.0456 9.0625 24.4416 9.0625 23.5625C9.0625 19.8469 11.3009 16.6569 14.5 15.2613C15.3437 14.8897 16.2581 14.645 17.2188 14.5453C17.5178 14.5181 17.8169 14.5 18.125 14.5C18.7422 14.5 19.3394 14.5634 19.9194 14.6722C20.8981 14.8716 21.8225 15.2332 22.6562 15.7135C25.3659 17.2813 27.1875 20.2085 27.1875 23.5616C27.1875 25.4203 26.6256 30.5497 25.6568 36.25Z" fill="#EFB443"/>
<path d="M43.5 15.2613C42.6572 14.8897 41.7428 14.645 40.7813 14.5453C40.4822 14.5181 40.1831 14.5 39.875 14.5C39.4101 14.5 38.9588 14.5462 38.5147 14.6097C39.3095 14.7329 40.0708 14.9486 40.7786 15.2613C43.9867 16.6569 46.2161 19.8478 46.2161 23.5625C46.2161 24.4416 46.0892 26.0456 45.8545 28.0938C45.3379 32.6703 44.2776 39.4581 42.8539 45.3125C41.6341 50.3902 40.146 54.7593 38.5111 56.395C38.9552 56.8436 39.411 57.0938 39.875 57.0938C42.0419 57.0938 44.0256 51.765 45.5753 45.3125C46.9981 39.4581 48.0585 32.6703 48.5759 28.0938C48.8106 26.0456 48.9375 24.4416 48.9375 23.5625C48.9375 19.8469 46.7081 16.6569 43.5 15.2613Z" fill="#D7A138"/>
<path d="M22.6562 15.7144C21.8225 15.2341 20.899 14.8716 19.9194 14.6731C19.3394 14.5634 18.7421 14.5 18.125 14.5C17.8169 14.5 17.5178 14.5181 17.2187 14.5453C17.0656 14.5616 16.9151 14.587 16.7638 14.6097C16.9088 14.6305 17.0556 14.6459 17.1979 14.6722C18.1766 14.8716 19.101 15.2332 19.9348 15.7135C22.6445 17.2813 24.466 20.2085 24.466 23.5616C24.466 25.4194 23.9041 30.5488 22.9354 36.2491C21.5524 44.438 19.3394 53.8068 16.7674 56.3941C17.2106 56.8391 17.6628 57.0938 18.125 57.0938C21.2697 57.0938 24.0346 45.8563 25.6568 36.25C26.6256 30.5497 27.1875 25.4203 27.1875 23.5625C27.1875 20.2094 25.3659 17.2822 22.6562 15.7144Z" fill="#D7A138"/>
<path d="M18.1232 58.0001C11.7042 58.0001 8.15444 26.8287 8.15444 23.5653C8.15444 18.0689 12.6268 13.5965 18.1232 13.5965C23.6196 13.5965 28.0919 18.0689 28.0919 23.5653C28.0919 26.8287 24.5422 58.0001 18.1232 58.0001ZM18.1232 15.409C13.6255 15.409 9.96694 19.0676 9.96694 23.5653C9.96694 26.0076 10.9937 34.4113 12.6023 42.0183C14.9676 53.2033 17.1852 56.1876 18.1232 56.1876C19.0612 56.1876 21.2797 53.2033 23.645 42.0183C25.2527 34.4113 26.2794 26.0085 26.2794 23.5653C26.2794 19.0676 22.6209 15.409 18.1232 15.409Z" fill="black"/>
<path d="M12.6893 29H9.42044C8.91928 29 8.51419 28.5949 8.51419 28.0938C8.51419 27.5926 8.91928 27.1875 9.42044 27.1875H12.6893C13.1904 27.1875 13.5955 27.5926 13.5955 28.0938C13.5955 28.5949 13.1904 29 12.6893 29Z" fill="black"/>
<path d="M25.6595 37.1563H22.6571C22.1559 37.1563 21.7509 36.7512 21.7509 36.25C21.7509 35.7489 22.1559 35.3438 22.6571 35.3438H25.6595C26.1607 35.3438 26.5658 35.7489 26.5658 36.25C26.5658 36.7512 26.1607 37.1563 25.6595 37.1563Z" fill="black"/>
<path d="M15.408 46.2188H12.4165C11.9153 46.2188 11.5103 45.8137 11.5103 45.3125C11.5103 44.8114 11.9153 44.4063 12.4165 44.4063H15.408C15.9092 44.4063 16.3143 44.8114 16.3143 45.3125C16.3143 45.8137 15.9092 46.2188 15.408 46.2188Z" fill="black"/>
<path d="M17.2206 15.4552C16.7194 15.4552 16.3143 15.0501 16.3143 14.5489V0.90625C16.3143 0.405094 16.7194 0 17.2206 0C17.7217 0 18.1268 0.405094 18.1268 0.90625V14.5489C18.1268 15.0492 17.7217 15.4552 17.2206 15.4552Z" fill="black"/>
<path d="M19.9393 4.5312C19.7073 4.5312 19.4753 4.44239 19.2986 4.26567L16.5798 1.54692C16.2255 1.19258 16.2255 0.619827 16.5798 0.265483C16.9342 -0.0888606 17.5069 -0.0888606 17.8613 0.265483L20.58 2.98423C20.9344 3.33858 20.9344 3.91133 20.58 4.26567C20.4033 4.44239 20.1713 4.5312 19.9393 4.5312Z" fill="black"/>
<path d="M19.9393 15.4552C19.4382 15.4552 19.0331 15.0501 19.0331 14.5489V3.625C19.0331 3.12384 19.4382 2.71875 19.9393 2.71875C20.4405 2.71875 20.8456 3.12384 20.8456 3.625V14.5489C20.8456 15.0492 20.4405 15.4552 19.9393 15.4552Z" fill="black"/>
<path d="M19.9393 8.15801C19.7073 8.15801 19.4753 8.0692 19.2986 7.89248C18.9442 7.53904 18.9442 6.96539 19.2986 6.61104L22.0173 3.89048C22.3717 3.53614 22.9444 3.53614 23.2988 3.89048C23.6531 4.24392 23.6531 4.81758 23.2988 5.17192L20.58 7.89248C20.4033 8.0692 20.1713 8.15801 19.9393 8.15801Z" fill="black"/>
<path d="M22.6581 16.6233C22.1569 16.6233 21.7518 16.2182 21.7518 15.7171V4.53125C21.7518 4.03009 22.1569 3.625 22.6581 3.625C23.1592 3.625 23.5643 4.03009 23.5643 4.53125V15.7171C23.5643 16.2182 23.1592 16.6233 22.6581 16.6233Z" fill="black"/>
<path d="M14.5018 8.15801C14.2698 8.15801 14.0378 8.0692 13.8611 7.89248C13.5067 7.53904 13.5067 6.96539 13.8611 6.61104L16.5798 3.89048C16.9342 3.53614 17.5069 3.53614 17.8613 3.89048C18.2156 4.24392 18.2156 4.81758 17.8613 5.17192L15.1425 7.89248C14.9658 8.0692 14.7338 8.15801 14.5018 8.15801Z" fill="black"/>
<path d="M14.5018 16.1639C14.0007 16.1639 13.5956 15.7588 13.5956 15.2577V7.25278C13.5956 6.75162 14.0007 6.34653 14.5018 6.34653C15.003 6.34653 15.4081 6.75162 15.4081 7.25278V15.2577C15.4081 15.7588 15.003 16.1639 14.5018 16.1639Z" fill="black"/>
<path d="M39.8768 58.0001C33.4578 58.0001 29.9081 26.8287 29.9081 23.5653C29.9081 18.0689 34.3804 13.5965 39.8768 13.5965C45.3732 13.5965 49.8456 18.0689 49.8456 23.5653C49.8456 26.8287 46.2958 58.0001 39.8768 58.0001ZM39.8768 15.409C35.3791 15.409 31.7206 19.0676 31.7206 23.5653C31.7206 26.0085 32.7473 34.4122 34.355 42.0183C36.7203 53.2033 38.9388 56.1876 39.8768 56.1876C40.8148 56.1876 43.0324 53.2033 45.3977 42.0183C47.0063 34.4104 48.0331 26.0076 48.0331 23.5653C48.0331 19.0676 44.3745 15.409 39.8768 15.409Z" fill="black"/>
<path d="M48.5795 29H45.3107C44.8095 29 44.4044 28.5949 44.4044 28.0938C44.4044 27.5926 44.8095 27.1875 45.3107 27.1875H48.5795C49.0807 27.1875 49.4858 27.5926 49.4858 28.0938C49.4858 28.5949 49.0807 29 48.5795 29Z" fill="black"/>
<path d="M35.342 37.1563H32.3396C31.8384 37.1563 31.4333 36.7512 31.4333 36.25C31.4333 35.7489 31.8384 35.3438 32.3396 35.3438H35.342C35.8431 35.3438 36.2482 35.7489 36.2482 36.25C36.2482 36.7512 35.8431 37.1563 35.342 37.1563Z" fill="black"/>
<path d="M45.5835 46.2188H42.5919C42.0908 46.2188 41.6857 45.8137 41.6857 45.3125C41.6857 44.8114 42.0908 44.4063 42.5919 44.4063H45.5835C46.0846 44.4063 46.4897 44.8114 46.4897 45.3125C46.4897 45.8137 46.0846 46.2188 45.5835 46.2188Z" fill="black"/>
<path d="M40.7794 15.4552C40.2783 15.4552 39.8732 15.0501 39.8732 14.5489V0.90625C39.8732 0.405094 40.2783 0 40.7794 0C41.2806 0 41.6857 0.405094 41.6857 0.90625V14.5489C41.6857 15.0492 41.2806 15.4552 40.7794 15.4552Z" fill="black"/>
<path d="M38.0607 4.5312C37.8287 4.5312 37.5967 4.44239 37.42 4.26567C37.0657 3.91133 37.0657 3.33858 37.42 2.98423L40.1388 0.265483C40.4931 -0.0888606 41.0659 -0.0888606 41.4202 0.265483C41.7745 0.619827 41.7745 1.19258 41.4202 1.54692L38.7015 4.26567C38.5247 4.44239 38.2927 4.5312 38.0607 4.5312Z" fill="black"/>
<path d="M38.0607 15.4552C37.5595 15.4552 37.1544 15.0501 37.1544 14.5489V3.625C37.1544 3.12384 37.5595 2.71875 38.0607 2.71875C38.5618 2.71875 38.9669 3.12384 38.9669 3.625V14.5489C38.9669 15.0492 38.5618 15.4552 38.0607 15.4552Z" fill="black"/>
<path d="M38.0607 8.15801C37.8287 8.15801 37.5967 8.0692 37.42 7.89248L34.7013 5.17192C34.3469 4.81758 34.3469 4.24392 34.7013 3.89048C35.0556 3.53614 35.6284 3.53614 35.9827 3.89048L38.7015 6.61104C39.0558 6.96539 39.0558 7.53904 38.7015 7.89248C38.5247 8.0692 38.2927 8.15801 38.0607 8.15801Z" fill="black"/>
<path d="M35.3419 16.6233C34.8408 16.6233 34.4357 16.2182 34.4357 15.7171V4.53125C34.4357 4.03009 34.8408 3.625 35.3419 3.625C35.8431 3.625 36.2482 4.03009 36.2482 4.53125V15.7171C36.2482 16.2182 35.8431 16.6233 35.3419 16.6233Z" fill="black"/>
<path d="M43.4982 8.15801C43.2662 8.15801 43.0342 8.0692 42.8575 7.89248L40.1388 5.17192C39.7844 4.81758 39.7844 4.24392 40.1388 3.89048C40.4931 3.53614 41.0659 3.53614 41.4202 3.89048L44.139 6.61104C44.4933 6.96539 44.4933 7.53904 44.139 7.89248C43.9622 8.0692 43.7302 8.15801 43.4982 8.15801Z" fill="black"/>
<path d="M43.4982 16.1639C42.997 16.1639 42.5919 15.7588 42.5919 15.2577V7.25278C42.5919 6.75162 42.997 6.34653 43.4982 6.34653C43.9993 6.34653 44.4044 6.75162 44.4044 7.25278V15.2577C44.4044 15.7588 43.9993 16.1639 43.4982 16.1639Z" fill="black"/>
</g>
<defs>
<clipPath id="clip0_10_5454">
<rect width="58" height="58" fill="white"/>
</clipPath>
</defs>
</svg>
