<svg width="30" height="62" viewBox="0 0 30 62" fill="none" xmlns="http://www.w3.org/2000/svg">
<path d="M9.45312 2.48975V7.63159H5.23352C6.12729 5.4661 7.60544 3.67266 9.45312 2.48975Z" fill="#EFB443"/>
<path d="M18.9062 1.99388V7.63159H14.6094V0.954102C16.1477 0.954102 17.5991 1.32613 18.9062 1.99388Z" fill="#EFB443"/>
<path d="M9.45312 7.63159V12.0103C7.82802 11.4188 6.13587 10.9895 4.3999 10.7415C4.546 9.64539 4.8296 8.60463 5.23351 7.63159H9.45312Z" fill="#EFB443"/>
<path d="M18.9062 7.63159V12.3345V12.345C17.4109 12.9459 15.9672 13.689 14.6094 14.5667V7.63159H18.9062Z" fill="#EFB443"/>
<path d="M14.6094 0.954102V7.63159H9.45312V2.48992C10.9656 1.51692 12.7273 0.954102 14.6094 0.954102Z" fill="#EFB443"/>
<path d="M23.9851 7.63159H18.9062V1.9939C21.1483 3.13861 22.9539 5.14185 23.9851 7.63159Z" fill="#EFB443"/>
<path d="M14.6094 7.63159V14.5667C12.9843 13.5269 11.2655 12.6693 9.45312 12.0101V7.63159H14.6094Z" fill="#EFB443"/>
<path d="M24.8102 10.7414V10.7509C22.764 11.0381 20.7874 11.5809 18.9062 12.3345V7.63159H23.9852C24.3805 8.6046 24.6632 9.64439 24.8102 10.7414Z" fill="#EFB443"/>
<path d="M28.3594 10.4934V41.0193C28.3594 29.7056 22.8327 19.842 14.6094 14.5667C15.9672 13.6891 17.4109 12.946 18.9062 12.345V12.3345C20.7874 11.5809 22.764 11.0381 24.8102 10.751C25.978 10.5793 27.1562 10.4934 28.3594 10.4934Z" fill="#49A760"/>
<path d="M4.4 10.7414C6.13594 10.9895 7.82805 11.4187 9.45312 12.0102C11.2655 12.6684 12.9843 13.5269 14.6094 14.5667C22.8327 19.8419 28.3594 29.7056 28.3594 41.0192V44.835C28.3594 53.2677 22.2062 60.0979 14.6094 60.0979C7.0125 60.0979 0.859375 53.2677 0.859375 44.835V10.4934C2.06164 10.4934 3.23984 10.5793 4.4 10.7414Z" fill="#49A760"/>
<path d="M14.6094 61.0518C6.55359 61.0518 0 53.7771 0 44.835C0 44.3075 0.384141 43.8811 0.859375 43.8811C1.33461 43.8811 1.71875 44.3075 1.71875 44.835C1.71875 52.7249 7.50148 59.1439 14.6094 59.1439C21.7173 59.1439 27.5 52.7249 27.5 44.835C27.5 44.3075 27.8841 43.8811 28.3594 43.8811C28.8346 43.8811 29.2188 44.3075 29.2188 44.835C29.2188 53.7771 22.6652 61.0518 14.6094 61.0518Z" fill="black"/>
<path d="M28.3594 41.9695C27.8841 41.9695 27.5 41.5431 27.5 41.0155C27.5 24.7109 15.5495 11.4455 0.859375 11.4455C0.384141 11.4455 0 11.0181 0 10.4915C0 9.96496 0.384141 9.5376 0.859375 9.5376C16.4966 9.5376 29.2188 23.6587 29.2188 41.0155C29.2188 41.5431 28.8346 41.9695 28.3594 41.9695Z" fill="black"/>
<path d="M14.6103 15.5225C14.3129 15.5225 14.0242 15.3517 13.8652 15.0455C13.628 14.5886 13.7689 14.0057 14.1797 13.7424C18.4688 10.9913 23.3716 9.53662 28.3594 9.53662C28.8346 9.53662 29.2188 9.96398 29.2188 10.4905C29.2188 11.0171 28.8346 11.4445 28.3594 11.4445C23.6741 11.4445 19.067 12.8105 15.0391 15.3937C14.9042 15.4814 14.7563 15.5225 14.6103 15.5225Z" fill="black"/>
<path d="M0.859375 45.7888C0.384141 45.7888 0 45.3624 0 44.8349V10.4915C0 9.96496 0.384141 9.5376 0.859375 9.5376C1.33461 9.5376 1.71875 9.96496 1.71875 10.4915V44.8349C1.71875 45.3624 1.33461 45.7888 0.859375 45.7888Z" fill="black"/>
<path d="M28.3594 45.7888C27.8841 45.7888 27.5 45.3624 27.5 44.8349V10.4915C27.5 9.96496 27.8841 9.5376 28.3594 9.5376C28.8346 9.5376 29.2188 9.96496 29.2188 10.4915V44.8349C29.2188 45.3624 28.8346 45.7888 28.3594 45.7888Z" fill="black"/>
<path d="M4.40426 11.6973C4.36301 11.6973 4.32176 11.6944 4.27965 11.6877C3.80957 11.6114 3.48387 11.1278 3.55262 10.606C4.34496 4.55985 9.09816 0 14.6093 0C20.1213 0 24.8737 4.55985 25.6634 10.606C25.7322 11.1268 25.4065 11.6114 24.9364 11.6868C24.4646 11.7564 24.0306 11.4015 23.9627 10.8797C23.2942 5.76469 19.274 1.90789 14.6093 1.90789C9.9455 1.90789 5.92449 5.76469 5.25332 10.8807C5.19144 11.3548 4.82449 11.6973 4.40426 11.6973Z" fill="black"/>
<path d="M14.6094 15.5225C14.1341 15.5225 13.75 15.0951 13.75 14.5685V0.953937C13.75 0.427364 14.1341 0 14.6094 0C15.0846 0 15.4688 0.427364 15.4688 0.953937V14.5685C15.4688 15.0961 15.0846 15.5225 14.6094 15.5225Z" fill="black"/>
<path d="M9.45312 12.9631C8.97789 12.9631 8.59375 12.5358 8.59375 12.0092V2.48615C8.59375 1.95959 8.97789 1.53223 9.45312 1.53223C9.92836 1.53223 10.3125 1.95959 10.3125 2.48615V12.0083C10.3125 12.5358 9.92836 12.9631 9.45312 12.9631Z" fill="black"/>
<path d="M19.7665 12.9631C19.2912 12.9631 18.9071 12.5358 18.9071 12.0092V2.48615C18.9071 1.95959 19.2912 1.53223 19.7665 1.53223C20.2417 1.53223 20.6259 1.95959 20.6259 2.48615V12.0083C20.6259 12.5358 20.2417 12.9631 19.7665 12.9631Z" fill="black"/>
<path d="M23.9852 8.58545H5.23279C4.75755 8.58545 4.37341 8.15812 4.37341 7.63159C4.37341 7.10506 4.75755 6.67773 5.23279 6.67773H23.9852C24.4605 6.67773 24.8446 7.10506 24.8446 7.63159C24.8446 8.15812 24.4605 8.58545 23.9852 8.58545Z" fill="black"/>
</svg>
