<svg width="16" height="15" viewBox="0 0 16 15" fill="none" xmlns="http://www.w3.org/2000/svg">
<path d="M15.3649 13.3561H1.72658V1.08867C1.72658 1.00217 1.65522 0.931396 1.568 0.931396H0.457902C0.37068 0.931396 0.299316 1.00217 0.299316 1.08867V14.6143C0.299316 14.7008 0.37068 14.7716 0.457902 14.7716H15.3649C15.4521 14.7716 15.5235 14.7008 15.5235 14.6143V13.5134C15.5235 13.4269 15.4521 13.3561 15.3649 13.3561ZM3.82387 10.3226C3.88532 10.3836 3.98444 10.3836 4.04787 10.3226L6.78941 7.61753L9.31884 10.1418C9.3803 10.2027 9.48139 10.2027 9.54285 10.1418L15.0021 4.72958C15.0636 4.66863 15.0636 4.56837 15.0021 4.50743L14.2171 3.72892C14.1873 3.69965 14.1471 3.68323 14.1051 3.68323C14.0632 3.68323 14.0229 3.69965 13.9931 3.72892L9.43382 8.24859L6.90835 5.72827C6.87854 5.699 6.83829 5.68258 6.79635 5.68258C6.7544 5.68258 6.71415 5.699 6.68435 5.72827L3.04086 9.32002C3.01134 9.34958 2.99479 9.3895 2.99479 9.4311C2.99479 9.4727 3.01134 9.51262 3.04086 9.54217L3.82387 10.3226Z" fill="#A0D468"/>
</svg>
