<svg width="56" height="42" viewBox="0 0 56 42" fill="none" xmlns="http://www.w3.org/2000/svg">
<path d="M42.6757 16.1851C43.1629 16.1851 43.5577 16.6233 43.5577 17.1641H45.3215C45.3215 16.6233 45.7164 16.1851 46.2034 16.1851L53.2546 16.1853C53.2589 16.1851 53.2589 14.2273 53.2589 14.2273H21.3989C21.3964 14.2273 21.3936 14.2277 21.3911 14.2277C21.3885 14.2277 21.3859 14.2273 21.3833 14.2273H16.1723C16.1711 14.2273 3.66456 14.2273 3.66456 14.2273C3.66197 14.2273 3.65927 14.2277 3.65668 14.2277C3.65409 14.2277 3.65151 14.2273 3.64892 14.2273H2.0083V16.1851C2.01347 16.1853 42.6757 16.1851 42.6757 16.1851Z" fill="#7AD390"/>
<path d="M42.6758 18.1429L3.24243 18.1432C5.8166 25.9193 11.4128 32.2349 18.4204 35.1871C18.427 35.1898 18.4331 35.1935 18.4397 35.1965C18.456 35.2039 18.4723 35.2116 18.4883 35.2201C18.4997 35.2261 18.5107 35.2325 18.5218 35.239C18.5358 35.2473 18.5495 35.2559 18.5632 35.265C18.5748 35.2728 18.5863 35.2809 18.5976 35.2893C18.61 35.2984 18.6221 35.308 18.6341 35.3179C18.6452 35.327 18.6561 35.3364 18.6668 35.3462C18.6784 35.3568 18.6896 35.3676 18.7007 35.3788C18.7106 35.3888 18.7203 35.3989 18.7297 35.4092C18.7407 35.4215 18.7514 35.434 18.7619 35.447C18.7705 35.4574 18.7787 35.4681 18.7868 35.4789C18.7969 35.4927 18.8068 35.5066 18.8163 35.521C18.8239 35.5323 18.8311 35.5438 18.8383 35.5556C18.847 35.5699 18.8554 35.5845 18.8635 35.5996C18.8705 35.6127 18.8772 35.6261 18.8838 35.6395C18.8906 35.6536 18.8972 35.6677 18.9033 35.6822C18.9102 35.698 18.9164 35.7142 18.9224 35.7303C18.9255 35.7387 18.9292 35.7465 18.9322 35.755C18.9339 35.7601 18.935 35.7655 18.9366 35.7705C18.9423 35.7878 18.9471 35.8053 18.9518 35.8229C18.9556 35.8366 18.9593 35.8503 18.9625 35.8641C18.9663 35.8808 18.9693 35.8978 18.9723 35.9148C18.9748 35.9295 18.9777 35.9444 18.9797 35.9592C18.9818 35.9753 18.9831 35.9917 18.9846 36.008C18.986 36.0235 18.9875 36.039 18.9882 36.0546C18.989 36.0705 18.9887 36.0864 18.9887 36.1024C18.9887 36.1183 18.989 36.1343 18.9882 36.1501C18.9875 36.1657 18.986 36.1812 18.9846 36.1967C18.9832 36.213 18.9819 36.2294 18.9797 36.2455C18.9777 36.2604 18.9748 36.2752 18.9723 36.2899C18.9693 36.3069 18.9663 36.3239 18.9625 36.3406C18.9593 36.3544 18.9556 36.3681 18.9518 36.3818C18.9471 36.3994 18.9422 36.4169 18.9366 36.4342C18.935 36.4394 18.9338 36.4446 18.9322 36.4497C18.9305 36.4547 18.9279 36.459 18.9262 36.4638C18.9109 36.5063 18.8939 36.548 18.8735 36.5878C18.8723 36.59 18.8709 36.5921 18.8697 36.5943C18.8508 36.6306 18.8291 36.6651 18.806 36.6985C18.8002 36.7068 18.7946 36.7152 18.7886 36.7233C18.7642 36.7563 18.7381 36.7878 18.7098 36.8171C18.7053 36.8217 18.7005 36.8259 18.696 36.8305C18.6704 36.856 18.6431 36.8799 18.6145 36.9021C18.6082 36.9071 18.602 36.9123 18.5955 36.9171C18.5634 36.9407 18.5299 36.9624 18.4945 36.9816C18.4881 36.985 18.4816 36.9877 18.4751 36.991C18.4571 37.0001 18.4393 37.0097 18.4205 37.0175C17.0596 37.5909 15.7449 38.2926 14.4885 39.1133H40.7789C39.5681 38.3224 38.3027 37.6427 36.9943 37.0813H21.6352C21.148 37.0813 20.7533 36.6431 20.7533 36.1024C20.7533 35.5616 21.148 35.1234 21.6352 35.1234H36.9965C43.934 32.1447 49.4691 25.8639 52.0248 18.1432L46.2034 18.143C45.7162 18.143 45.3214 17.7047 45.3214 17.1641H43.5576C43.5577 17.7047 43.1629 18.1429 42.6758 18.1429Z" fill="#49A760"/>
<path d="M34.8926 11.6584C34.8926 11.8619 34.8848 12.0658 34.8737 12.2695H38.1299C38.1175 12.0549 38.109 11.8401 38.109 11.6255C38.109 8.864 38.7834 6.2543 39.8729 4.20941C38.8717 2.77227 37.6623 1.95776 36.4959 1.95776C35.3283 1.95776 34.1167 2.77501 33.1147 4.21633C34.2126 6.26514 34.8926 8.88527 34.8926 11.6584Z" fill="#EFB443"/>
<path d="M17.1584 11.6584C17.1584 11.862 17.1506 12.0658 17.1394 12.2695H20.4024C20.3913 12.0658 20.3835 11.862 20.3835 11.6584C20.3835 8.89691 21.0579 6.2871 22.1473 4.24236C21.1462 2.80523 19.9368 1.99072 18.7704 1.99072C17.6047 1.99072 16.3953 2.80523 15.3943 4.24223C16.4839 6.2871 17.1584 8.89691 17.1584 11.6584Z" fill="#EFB443"/>
<path d="M41.7113 4.6144C41.6815 4.67797 41.6443 4.73788 41.6016 4.79362C40.5775 6.5136 39.873 8.89901 39.873 11.6255C39.873 11.8401 39.8819 12.0551 39.8974 12.2695H50.8302C50.8457 12.0551 50.8546 11.8401 50.8546 11.6255C50.8546 6.09225 47.9555 1.95801 45.3633 1.95801C44.0937 1.95801 42.7514 2.95185 41.7113 4.6144Z" fill="#FFD991"/>
<path d="M23.9854 4.64726C23.9555 4.71083 23.9185 4.77048 23.8758 4.82622C22.8517 6.5462 22.1471 8.93176 22.1471 11.6584C22.1471 11.862 22.1556 12.0659 22.1694 12.2695H33.1061C33.1201 12.066 33.1285 11.862 33.1285 11.6584C33.1285 6.12512 30.2294 1.99072 27.6373 1.99072C26.3679 1.99072 25.0255 2.98457 23.9854 4.64726Z" fill="#FFD991"/>
<path d="M15.3945 11.6584C15.3945 6.12512 12.4954 1.99072 9.90325 1.99072C7.31156 1.99072 4.41309 6.12525 4.41309 11.6584C4.41309 11.862 4.42155 12.0659 4.43543 12.2695H15.3721C15.386 12.066 15.3945 11.862 15.3945 11.6584Z" fill="#FFD991"/>
<path d="M3.65694 14.2279C3.65953 14.2279 3.66223 14.2275 3.66482 14.2275H16.1715C16.1727 14.2275 21.3835 14.2275 21.3835 14.2275C21.3861 14.2275 21.3887 14.2279 21.3913 14.2279C21.3939 14.2279 21.3966 14.2275 21.3992 14.2275H53.2591H54.3856C54.8728 14.2275 55.2675 13.7893 55.2675 13.2485C55.2675 12.7078 54.8728 12.2696 54.3856 12.2696H52.5975C52.61 12.055 52.6184 11.8401 52.6184 11.6255C52.6184 5.43253 49.2282 0 45.3634 0C43.7293 0 42.1803 0.971535 40.9364 2.56087C39.6506 0.919584 38.0769 0 36.4962 0C34.9125 0 33.3352 0.92363 32.0479 2.57157C30.8069 0.995291 29.2643 0.032763 27.6377 0.032763C26.0037 0.032763 24.4546 1.0043 23.2108 2.59363C21.9249 0.952347 20.3512 0.032763 18.7706 0.032763C17.1905 0.032763 15.6167 0.952477 14.331 2.5935C13.0869 1.00417 11.5376 0.032763 9.90345 0.032763C6.0392 0.032763 2.64943 5.46529 2.64943 11.6584C2.64943 11.8619 2.65719 12.0658 2.66836 12.2696H0.881927C0.39475 12.2696 0 12.7078 0 13.2485C0 13.7893 0.39475 14.2275 0.881927 14.2275H2.00844H3.64918C3.65176 14.2275 3.65435 14.2279 3.65694 14.2279ZM4.41293 11.6584C4.41293 6.12512 7.31141 1.99071 9.9031 1.99071C12.4953 1.99071 15.3943 6.12525 15.3943 11.6584C15.3943 11.862 15.3859 12.0661 15.372 12.2696H4.43539C4.42139 12.0661 4.41293 11.862 4.41293 11.6584ZM18.7703 1.99071C19.9367 1.99071 21.146 2.80522 22.1473 4.24236C21.0578 6.28724 20.3834 8.89693 20.3834 11.6584C20.3834 11.8619 20.3912 12.0658 20.4024 12.2696H17.1394C17.1505 12.0658 17.1583 11.862 17.1583 11.6584C17.1583 8.89693 16.4838 6.28711 15.3942 4.24223C16.3953 2.80522 17.6047 1.99071 18.7703 1.99071ZM33.1287 11.6584C33.1287 11.862 33.1202 12.0661 33.1063 12.2696H22.1696C22.1556 12.0661 22.1473 11.862 22.1473 11.6584C22.1473 8.93178 22.8519 6.54621 23.876 4.82622C23.9186 4.77048 23.9556 4.71083 23.9856 4.64726C25.0255 2.98457 26.368 1.99071 27.6376 1.99071C30.2296 1.99071 33.1287 6.12525 33.1287 11.6584ZM36.496 1.95795C37.6623 1.95795 38.8717 2.77246 39.873 4.20959C38.7835 6.25448 38.1091 8.86416 38.1091 11.6257C38.1091 11.8401 38.1176 12.055 38.13 12.2697H34.8737C34.8849 12.0659 34.8927 11.8622 34.8927 11.6586C34.8927 8.88544 34.2126 6.26531 33.1149 4.21664C34.1168 2.7752 35.3283 1.95795 36.496 1.95795ZM50.8545 11.6255C50.8545 11.8401 50.8457 12.0551 50.8301 12.2696H39.8973C39.8818 12.0551 39.873 11.8401 39.873 11.6255C39.873 8.89902 40.5774 6.51358 41.6015 4.79359C41.6442 4.73785 41.6814 4.67794 41.7112 4.61437C42.7512 2.95181 44.0936 1.95795 45.3631 1.95795C47.9553 1.95795 50.8545 6.09236 50.8545 11.6255Z" fill="#4D3D36"/>
<path d="M54.3855 16.1853H53.2671C53.2644 16.1853 53.2617 16.1851 53.259 16.1851C53.2547 16.1853 46.2035 16.1851 46.2035 16.1851C45.7165 16.1851 45.3216 16.6232 45.3216 17.164C45.3216 17.7047 45.7164 18.143 46.2035 18.143L52.025 18.1431C49.4693 25.8638 43.9342 32.1446 36.9967 35.1233H21.6353C21.1481 35.1233 20.7534 35.5615 20.7534 36.1023C20.7534 36.6431 21.1481 37.0813 21.6353 37.0813H36.9942C38.3027 37.6428 39.568 38.3225 40.7789 39.1132H14.4885C15.7449 38.2927 17.0596 37.5909 18.4205 37.0174C18.4393 37.0095 18.4571 37.0001 18.4751 36.9909C18.4814 36.9877 18.4881 36.9849 18.4945 36.9815C18.5299 36.9625 18.5634 36.9407 18.5955 36.9171C18.6019 36.9122 18.6082 36.9071 18.6145 36.902C18.6431 36.8797 18.6704 36.8558 18.696 36.8304C18.7006 36.8258 18.7053 36.8218 18.7098 36.8171C18.7381 36.7877 18.7641 36.7561 18.7886 36.7232C18.7946 36.7151 18.8002 36.7068 18.806 36.6984C18.829 36.665 18.8506 36.6305 18.8697 36.5943C18.8709 36.592 18.8723 36.59 18.8735 36.5877C18.8939 36.5479 18.9109 36.5063 18.9261 36.4637C18.9279 36.4589 18.9305 36.4546 18.9321 36.4496C18.9339 36.4445 18.935 36.4392 18.9366 36.4341C18.9423 36.4169 18.9471 36.3994 18.9518 36.3818C18.9555 36.368 18.9593 36.3543 18.9625 36.3405C18.9662 36.3238 18.9693 36.3068 18.9722 36.2899C18.9748 36.2751 18.9776 36.2602 18.9796 36.2455C18.9818 36.2293 18.9831 36.213 18.9846 36.1967C18.986 36.1811 18.9875 36.1656 18.9882 36.1501C18.9889 36.1341 18.9887 36.1182 18.9887 36.1023C18.9887 36.0864 18.9889 36.0703 18.9882 36.0545C18.9875 36.039 18.986 36.0235 18.9846 36.0079C18.9832 35.9916 18.9819 35.9753 18.9796 35.9591C18.9776 35.9442 18.9748 35.9295 18.9722 35.9147C18.9693 35.8978 18.9662 35.8808 18.9625 35.8641C18.9593 35.8502 18.9555 35.8365 18.9518 35.8228C18.9471 35.8052 18.9421 35.7877 18.9366 35.7705C18.935 35.7653 18.9338 35.76 18.9321 35.755C18.9292 35.7465 18.9254 35.7386 18.9224 35.7303C18.9164 35.7141 18.9101 35.6979 18.9033 35.6821C18.8971 35.6676 18.8905 35.6534 18.8838 35.6394C18.8772 35.626 18.8705 35.6125 18.8635 35.5995C18.8554 35.5845 18.847 35.5699 18.8383 35.5555C18.8312 35.5438 18.8238 35.5323 18.8163 35.5209C18.8068 35.5066 18.797 35.4926 18.7868 35.4789C18.7787 35.4681 18.7705 35.4575 18.7619 35.4469C18.7514 35.434 18.7407 35.4215 18.7297 35.4092C18.7202 35.3987 18.7106 35.3887 18.7007 35.3788C18.6897 35.3675 18.6784 35.3567 18.6667 35.3461C18.656 35.3365 18.6452 35.3271 18.634 35.3178C18.6221 35.3079 18.6099 35.2984 18.5976 35.2892C18.5863 35.2809 18.5749 35.2728 18.5631 35.2649C18.5495 35.2558 18.5357 35.2472 18.5217 35.239C18.5107 35.2324 18.4996 35.226 18.4882 35.22C18.4724 35.2116 18.4561 35.2039 18.4397 35.1964C18.4332 35.1934 18.4271 35.1899 18.4204 35.187C11.413 32.235 5.81672 25.9194 3.24255 18.1433L42.6758 18.143C43.163 18.143 43.5578 17.7048 43.5578 17.164C43.5578 16.6232 43.163 16.1851 42.6758 16.1851L2.01361 16.1853C2.0055 16.1851 2.00256 16.1853 1.99962 16.1853H0.881926C0.39475 16.1853 0 16.6235 0 17.1643C0 17.7051 0.39475 18.1433 0.881926 18.1433H1.37075C2.64507 22.2961 4.745 26.164 7.47239 29.3674C9.85594 32.1666 12.7249 34.4643 15.8559 36.101C14.2525 36.9374 12.7211 37.9456 11.2822 39.1133H10.3951C9.90792 39.1133 9.51316 39.5515 9.51316 40.0923C9.51316 40.6331 9.90792 41.0713 10.3951 41.0713H44.8722C45.3594 41.0713 45.7541 40.6331 45.7541 40.0923C45.7541 39.5515 45.3594 39.1133 44.8722 39.1133H43.9851C42.5461 37.9456 41.0149 36.9373 39.4114 36.101C42.5424 34.4643 45.4113 32.1667 47.7949 29.3674C50.5223 26.164 52.6221 22.2959 53.8965 18.1433H54.3853C54.8724 18.1433 55.2673 17.7051 55.2673 17.1643C55.2674 16.6236 54.8726 16.1853 54.3855 16.1853Z" fill="#4D3D36"/>
</svg>
