<svg width="51" height="45" viewBox="0 0 51 45" fill="none" xmlns="http://www.w3.org/2000/svg">
<path d="M44.1546 21.7905V18.5705L36.7126 17.7968V22.8069C36.7126 23.3058 36.3482 23.7102 35.8987 23.7102C35.4493 23.7102 35.0849 23.3058 35.0849 22.8069V17.6276L30.4846 17.1494V28.2684V33.5428H32.1054C32.5196 28.171 36.5903 23.9397 41.5351 23.9397C42.7457 23.9397 43.904 24.1937 44.9691 24.6556V22.694C44.5189 22.6939 44.1546 22.2894 44.1546 21.7905Z" fill="#EFB443"/>
<path d="M28.857 33.5426V29.1716H26.6155C26.7454 30.0525 26.8141 30.956 26.8141 31.877C26.8141 32.4328 26.7888 32.99 26.7392 33.5426H28.857Z" fill="#EFB443"/>
<path d="M26.2551 27.3649H28.8568V16.1661C28.8568 16.1649 28.8568 1.80688 28.8568 1.80688H12.5931V3.31251C12.5931 3.81141 12.2287 4.21588 11.7793 4.21588C11.3298 4.21588 10.9655 3.81141 10.9655 3.31251V1.80688H6.84534V16.1181C8.16862 15.6064 9.55592 15.2994 10.9655 15.2138V6.926C10.9655 6.42709 11.3298 6.02262 11.7793 6.02262C12.2287 6.02262 12.5931 6.42709 12.5931 6.926V15.2128C19.1163 15.601 24.5481 20.6261 26.2551 27.3649Z" fill="#FFEBC6"/>
<path d="M11.7794 20.6084C6.18166 20.6084 1.62769 25.6635 1.62769 31.8772C1.62769 38.0909 6.18166 43.146 11.7794 43.146C17.3771 43.146 21.9311 38.0909 21.9311 31.8772C21.9311 25.6635 17.377 20.6084 11.7794 20.6084ZM11.7794 38.9302C8.27591 38.9302 5.42555 35.7662 5.42555 31.8772C5.42555 27.9882 8.27591 24.8242 11.7794 24.8242C15.2829 24.8242 18.1332 27.9882 18.1332 31.8772C18.1332 35.7662 15.2829 38.9302 11.7794 38.9302Z" fill="#49A760"/>
<path d="M11.7794 18.8018C5.28414 18.8018 0 24.6673 0 31.8772C0 39.0871 5.28414 44.9526 11.7794 44.9526C18.2746 44.9526 23.5587 39.0871 23.5587 31.8772C23.5587 24.6673 18.2745 18.8018 11.7794 18.8018ZM11.7794 43.1459C6.18163 43.1459 1.62766 38.0907 1.62766 31.8772C1.62766 25.6637 6.18163 20.6085 11.7794 20.6085C17.3771 20.6085 21.9311 25.6635 21.9311 31.8772C21.9311 38.0908 17.377 43.1459 11.7794 43.1459Z" fill="#4D3D36"/>
<path d="M11.7794 26.6309C9.17342 26.6309 7.05322 28.9843 7.05322 31.8771C7.05322 34.7698 9.17342 37.1233 11.7794 37.1233C14.3854 37.1233 16.5056 34.7698 16.5056 31.8771C16.5056 28.9843 14.3854 26.6309 11.7794 26.6309Z" fill="#7DD593"/>
<path d="M11.7792 24.8242C8.27576 24.8242 5.42542 27.9882 5.42542 31.8771C5.42542 35.7661 8.27576 38.9301 11.7792 38.9301C15.2827 38.9301 18.1331 35.7661 18.1331 31.8771C18.1331 27.9882 15.2827 24.8242 11.7792 24.8242ZM11.7792 37.1233C9.17325 37.1233 7.05307 34.7699 7.05307 31.8771C7.05307 28.9844 9.17325 26.631 11.7792 26.631C14.3852 26.631 16.5054 28.9844 16.5054 31.8771C16.5054 34.7699 14.3852 37.1233 11.7792 37.1233Z" fill="#4D3D36"/>
<path d="M41.5349 25.7463C37.2134 25.7463 33.6975 29.649 33.6975 34.4461C33.6975 39.2432 37.2134 43.1459 41.5349 43.1459C45.8564 43.1459 49.3723 39.2432 49.3723 34.4461C49.3723 29.649 45.8564 25.7463 41.5349 25.7463ZM41.5349 38.9301C39.3075 38.9301 37.4954 36.9186 37.4954 34.4461C37.4954 31.9736 39.3075 29.9621 41.5349 29.9621C43.7623 29.9621 45.5744 31.9736 45.5744 34.4461C45.5744 36.9186 43.7623 38.9301 41.5349 38.9301Z" fill="#49A760"/>
<path d="M44.9689 24.6554C43.9037 24.1935 42.7456 23.9395 41.5349 23.9395C36.59 23.9395 32.5194 28.1707 32.1052 33.5426H30.4844V28.2682V17.1492L35.0847 17.6274V22.8067C35.0847 23.3056 35.449 23.71 35.8985 23.71C36.3479 23.71 36.7123 23.3056 36.7123 22.8067V17.7968L44.1544 18.5704V21.7904C44.1544 22.2893 44.5188 22.6938 44.9682 22.6938C45.4179 22.6934 45.7821 22.2892 45.7821 21.7904V17.7476C45.7821 17.2814 45.4624 16.8917 45.0441 16.8482L36.7122 15.9821V12.045H37.1228C37.5723 12.045 37.9366 11.6406 37.9366 11.1416C37.9366 10.6427 37.5723 10.2383 37.1228 10.2383H35.8984C35.4489 10.2383 35.0846 10.6427 35.0846 11.1416V15.8128L30.4843 15.3346V1.80675H31.8406C32.2901 1.80675 32.6545 1.40228 32.6545 0.903377C32.6545 0.404472 32.2901 0 31.8406 0H6.03142C5.58197 0 5.21759 0.404472 5.21759 0.903377V16.8674C4.15159 17.442 3.14407 18.1575 2.22053 19.0039C1.87395 19.3215 1.82491 19.8909 2.11105 20.2758C2.39719 20.6605 2.91001 20.7148 3.25681 20.3973C5.65088 18.2032 8.67756 16.9948 11.7792 16.9948C19.1718 16.9948 25.1862 23.6709 25.1862 31.877C25.1862 32.6892 25.1265 33.5043 25.0087 34.2997C24.9359 34.7919 25.2363 35.2566 25.6798 35.3376C25.7246 35.3456 25.7689 35.3496 25.8129 35.3496C25.8246 35.3496 25.8361 35.3484 25.8477 35.3479C25.8564 35.3482 25.8649 35.3494 25.8735 35.3494H28.8568V37.1563H25.8118C25.3623 37.1563 24.998 37.5607 24.998 38.0596C24.998 38.5585 25.3623 38.963 25.8118 38.963H29.6706C30.1201 38.963 30.4845 38.5585 30.4845 38.0596V35.3494H32.1053C32.5195 40.7212 36.5901 44.9525 41.535 44.9525C46.754 44.9525 51 40.2393 51 34.446C50.9999 29.9967 48.4951 26.1848 44.9689 24.6554ZM41.5349 43.1458C37.2133 43.1458 33.6975 39.2431 33.6975 34.446C33.6975 29.649 37.2133 25.7462 41.5349 25.7462C45.8564 25.7462 49.3722 29.649 49.3722 34.446C49.3722 39.2431 45.8564 43.1458 41.5349 43.1458ZM11.7793 6.02251C11.3299 6.02251 10.9655 6.42699 10.9655 6.92589V15.2137C9.55595 15.2994 8.16854 15.6064 6.84536 16.1181V1.80675H10.9655V3.31238C10.9655 3.81129 11.3299 4.21576 11.7793 4.21576C12.2288 4.21576 12.5932 3.81129 12.5932 3.31238V1.80675H28.8568V16.1648C28.8568 16.166 28.8568 27.3649 28.8568 27.3649H26.2552C24.5482 20.626 19.1164 15.601 12.5932 15.2127V6.92589C12.5932 6.42699 12.2288 6.02251 11.7793 6.02251ZM26.6153 29.1716H28.8568V33.5426H26.7391C26.7886 32.9899 26.814 32.4328 26.814 31.877C26.8139 30.956 26.7453 30.0525 26.6153 29.1716Z" fill="#4D3D36"/>
<path d="M41.5348 31.769C40.2049 31.769 39.1229 32.97 39.1229 34.4462C39.1229 35.9224 40.2049 37.1234 41.5348 37.1234C42.8647 37.1234 43.9467 35.9224 43.9467 34.4462C43.9467 32.97 42.8647 31.769 41.5348 31.769Z" fill="#7DD593"/>
<path d="M41.5349 29.9619C39.3075 29.9619 37.4954 31.9734 37.4954 34.4459C37.4954 36.9184 39.3075 38.9299 41.5349 38.9299C43.7623 38.9299 45.5744 36.9184 45.5744 34.4459C45.5744 31.9734 43.7623 29.9619 41.5349 29.9619ZM41.5349 37.1232C40.205 37.1232 39.123 35.9222 39.123 34.4459C39.123 32.9697 40.205 31.7687 41.5349 31.7687C42.8648 31.7687 43.9467 32.9697 43.9467 34.4459C43.9467 35.9222 42.8648 37.1232 41.5349 37.1232Z" fill="#4D3D36"/>
</svg>
