<svg width="46" height="52" viewBox="0 0 46 52" fill="none" xmlns="http://www.w3.org/2000/svg">
<path d="M24.9842 47.8121C27.0531 49.3568 29.4694 50.1731 31.9716 50.1731C38.8852 50.1731 44.5099 43.9296 44.5099 36.2551C44.5099 31.6921 42.4895 27.4131 39.1053 24.809C38.9046 24.6545 38.7848 24.4004 38.7848 24.1293V16.7444C38.7848 12.5743 35.7284 9.18164 31.9717 9.18164C28.2149 9.18164 25.1585 12.5743 25.1585 16.7444V20.1487C25.1585 20.6055 24.8251 20.9756 24.4137 20.9757V23.0878C27.5777 25.7131 28.8712 30.4844 27.2918 34.717L22.7561 46.872C23.1373 47.2798 23.54 47.6629 23.9628 48.0182C24.1961 47.6552 24.6485 47.5617 24.9842 47.8121ZM40.3678 31.813C40.806 31.813 41.1626 32.2088 41.1626 32.6952C41.1626 33.1816 40.806 33.5774 40.3678 33.5774C39.9297 33.5774 39.5731 33.1816 39.5731 32.6952C39.5731 32.2088 39.9297 31.813 40.3678 31.813ZM31.9716 10.8357C34.9066 10.8357 37.2946 13.4864 37.2946 16.7446C37.2946 17.2014 36.961 17.5716 36.5495 17.5716C36.1381 17.5716 35.8045 17.2014 35.8045 16.7446C35.8045 14.3985 34.085 12.4898 31.9716 12.4898C31.5601 12.4898 31.2265 12.1196 31.2265 11.6627C31.2265 11.2059 31.5601 10.8357 31.9716 10.8357ZM31.924 43.9979C32.3622 43.9979 32.7187 44.3937 32.7187 44.8801C32.7187 45.3665 32.3622 45.7623 31.924 45.7623C31.4858 45.7623 31.1293 45.3665 31.1293 44.8801C31.1293 44.3937 31.4858 43.9979 31.924 43.9979ZM28.9438 41.7925C29.382 41.7925 29.7385 42.1883 29.7385 42.6747C29.7385 43.1611 29.382 43.5569 28.9438 43.5569C28.5056 43.5569 28.1491 43.1611 28.1491 42.6747C28.1491 42.1883 28.5056 41.7925 28.9438 41.7925Z" fill="#49A760"/>
<path d="M21.9318 23.4097C21.0311 22.9956 20.0849 22.7856 19.1193 22.7856C17.4267 22.7856 15.7706 23.4413 14.4561 24.6319C14.182 24.8802 13.7883 24.8802 13.5142 24.6319C12.1997 23.4413 10.5436 22.7856 8.85109 22.7856C7.8855 22.7856 6.93919 22.9956 6.03858 23.4097C4.22225 24.2449 2.80765 25.815 2.05535 27.8313C1.30304 29.8474 1.30304 32.0681 2.05535 34.0842L7.02929 47.414C7.65484 49.0901 9.11503 50.1732 10.7495 50.1732C11.2775 50.1732 11.795 50.0583 12.2878 49.8317C12.7302 49.6283 13.1311 49.344 13.4795 48.9866C13.6223 48.8402 13.8038 48.7669 13.9852 48.7669C14.1667 48.7669 14.3482 48.8402 14.4909 48.9866C14.8392 49.344 15.2401 49.6283 15.6825 49.8316C16.1753 50.0583 16.6929 50.1732 17.221 50.1732C18.8554 50.1733 20.3156 49.0902 20.941 47.414L25.9151 34.0842C27.4681 29.9223 25.6812 25.1338 21.9318 23.4097ZM7.35403 36.2055C6.91585 36.2055 6.55932 35.8098 6.55932 35.3234C6.55932 34.8369 6.91585 34.4412 7.35403 34.4412C7.79222 34.4412 8.14875 34.8369 8.14875 35.3234C8.14875 35.8098 7.79222 36.2055 7.35403 36.2055ZM10.3342 38.4109C9.89604 38.4109 9.53951 38.0152 9.53951 37.5288C9.53951 37.0424 9.89604 36.6466 10.3342 36.6466C10.7724 36.6466 11.129 37.0424 11.129 37.5288C11.129 38.0152 10.7724 38.4109 10.3342 38.4109ZM24.2909 31.1714C24.2634 31.1747 24.2361 31.1764 24.209 31.1764C23.8338 31.1764 23.5111 30.8626 23.4693 30.439C23.2949 28.6677 22.2688 27.1453 20.7913 26.466C20.2541 26.219 19.6916 26.0938 19.1194 26.0938C18.7079 26.0938 18.3743 25.7236 18.3743 25.2667C18.3743 24.8099 18.7079 24.4397 19.1194 24.4397C19.8882 24.4397 20.6426 24.6074 21.3617 24.938C23.3419 25.8484 24.7171 27.8874 24.9506 30.2595C24.9953 30.7134 24.6999 31.1217 24.2909 31.1714Z" fill="#EFB443"/>
<path d="M24.4135 23.0879C23.8365 22.609 23.1973 22.2013 22.5019 21.8817C21.4196 21.384 20.2815 21.1316 19.1192 21.1316C17.5774 21.1316 16.0616 21.5856 14.7301 22.4272V16.4635C14.7301 16.0067 14.3965 15.6365 13.985 15.6365C13.5736 15.6365 13.24 16.0067 13.24 16.4635V22.4272C11.9084 21.5855 10.3928 21.1316 8.85087 21.1316C7.68859 21.1316 6.55045 21.384 5.46815 21.8817C3.28416 22.8858 1.58317 24.774 0.678478 27.1984C-0.226209 29.6228 -0.22611 32.2929 0.678478 34.7173L5.65242 48.0471C6.50953 50.3434 8.51013 51.8273 10.7493 51.8273C11.474 51.8273 12.1835 51.6699 12.8579 51.3598C13.2598 51.1751 13.637 50.9412 13.985 50.6614C14.333 50.9412 14.7102 51.1751 15.1122 51.3598C15.7866 51.67 16.4961 51.8273 17.2207 51.8273C19.4601 51.8273 21.4607 50.3434 22.3176 48.047L22.7559 46.8722L27.2915 34.7172C28.871 30.4846 27.5775 25.7132 24.4135 23.0879ZM25.9149 34.0842L20.9408 47.414C20.3154 49.0902 18.8551 50.1733 17.2207 50.1732C16.6926 50.1732 16.1751 50.0583 15.6823 49.8316C15.2399 49.6283 14.839 49.344 14.4907 48.9866C14.3479 48.8401 14.1664 48.7669 13.9849 48.7669C13.8035 48.7669 13.622 48.8401 13.4793 48.9866C13.1309 49.344 12.7301 49.6283 12.2876 49.8317C11.7948 50.0583 11.2772 50.1732 10.7492 50.1732C9.11481 50.1732 7.65462 49.0901 7.02907 47.414L2.05523 34.0842C1.30283 32.0682 1.30283 29.8474 2.05523 27.8313C2.80753 25.8151 4.22213 24.245 6.03846 23.4097C6.93907 22.9956 7.88528 22.7857 8.85097 22.7857C10.5435 22.7857 12.1996 23.4413 13.5141 24.6319C13.7883 24.8803 14.1819 24.8803 14.456 24.6319C15.7705 23.4413 17.4266 22.7857 19.1191 22.7857C20.0847 22.7857 21.031 22.9956 21.9316 23.4097C25.6811 25.1338 27.4679 29.9223 25.9149 34.0842Z" fill="#4D3D36"/>
<path d="M21.3615 24.938C20.6426 24.6074 19.8881 24.4397 19.1192 24.4397C18.7077 24.4397 18.3741 24.8099 18.3741 25.2667C18.3741 25.7236 18.7077 26.0937 19.1192 26.0937C19.6914 26.0937 20.254 26.219 20.7912 26.466C22.2687 27.1453 23.2948 28.6676 23.4692 30.4389C23.5109 30.8624 23.8337 31.1763 24.2089 31.1763C24.2359 31.1763 24.2632 31.1746 24.2907 31.1713C24.6998 31.1217 24.9952 30.7134 24.9505 30.2593C24.717 27.8874 23.3417 25.8484 21.3615 24.938Z" fill="white"/>
<path d="M31.9715 12.4898C34.085 12.4898 35.8045 14.3986 35.8045 16.7446C35.8045 17.2015 36.138 17.5717 36.5495 17.5717C36.961 17.5717 37.2946 17.2015 37.2946 16.7446C37.2946 13.4864 34.9066 10.8357 31.9715 10.8357C31.5601 10.8357 31.2265 11.2059 31.2265 11.6627C31.2265 12.1196 31.5601 12.4898 31.9715 12.4898Z" fill="white"/>
<path d="M40.3678 33.5774C40.806 33.5774 41.1626 33.1816 41.1626 32.6952C41.1626 32.2088 40.806 31.813 40.3678 31.813C39.9297 31.813 39.5731 32.2088 39.5731 32.6952C39.5731 33.1816 39.9297 33.5774 40.3678 33.5774Z" fill="#4D3D36"/>
<path d="M28.9438 43.5568C29.382 43.5568 29.7386 43.161 29.7386 42.6746C29.7386 42.1882 29.382 41.7925 28.9438 41.7925C28.5056 41.7925 28.1491 42.1882 28.1491 42.6746C28.1491 43.161 28.5056 43.5568 28.9438 43.5568Z" fill="#4D3D36"/>
<path d="M31.924 45.7623C32.3622 45.7623 32.7187 45.3666 32.7187 44.8802C32.7187 44.3938 32.3622 43.998 31.924 43.998C31.4858 43.998 31.1293 44.3938 31.1293 44.8802C31.1293 45.3666 31.4858 45.7623 31.924 45.7623Z" fill="#4D3D36"/>
<path d="M10.3341 36.6465C9.89595 36.6465 9.53943 37.0422 9.53943 37.5286C9.53943 38.015 9.89595 38.4108 10.3341 38.4108C10.7723 38.4108 11.1288 38.015 11.1288 37.5286C11.1288 37.0422 10.7723 36.6465 10.3341 36.6465Z" fill="#4D3D36"/>
<path d="M7.35391 34.4409C6.91573 34.4409 6.5592 34.8367 6.5592 35.3231C6.5592 35.8095 6.91573 36.2053 7.35391 36.2053C7.79209 36.2053 8.14862 35.8095 8.14862 35.3231C8.14862 34.8367 7.79209 34.4409 7.35391 34.4409Z" fill="#4D3D36"/>
<path d="M40.2749 23.7038V16.7446C40.2749 11.9412 36.9471 7.98656 32.7167 7.56676V0.827029C32.7167 0.370178 32.3831 0 31.9717 0C31.5602 0 31.2266 0.370178 31.2266 0.827029V7.56665C26.9961 7.98645 23.6685 11.9412 23.6685 16.7445V20.1487C23.6685 20.6056 24.002 20.9758 24.4135 20.9758C24.8251 20.9757 25.1586 20.6055 25.1586 20.1487V16.7446C25.1586 12.5745 28.2149 9.18179 31.9717 9.18179C35.7284 9.18179 38.7848 12.5745 38.7848 16.7446V24.1294C38.7848 24.4006 38.9046 24.6546 39.1054 24.8091C42.4896 27.4133 44.51 31.6922 44.51 36.2552C44.51 43.9296 38.8852 50.1731 31.9716 50.1731C29.4694 50.1731 27.0532 49.3568 24.9842 47.8121C24.6485 47.5617 24.1961 47.6552 23.9626 48.0184C23.9585 48.0247 23.9541 48.0304 23.9502 48.0368C23.7205 48.4159 23.8112 48.9298 24.1526 49.1846C26.4684 50.9133 29.1721 51.8271 31.9716 51.8271C39.7069 51.8271 46.0001 44.8415 46.0001 36.2551C46.0001 31.2958 43.8671 26.6365 40.2749 23.7038Z" fill="#4D3D36"/>
</svg>
