<svg width="44" height="69" viewBox="0 0 44 69" fill="none" xmlns="http://www.w3.org/2000/svg">
<path d="M6.66364 36.8403C6.68218 37.0933 6.78571 37.3292 6.95369 37.5013C7.12166 37.6735 7.3418 37.7692 7.57041 37.7695C7.59486 37.7695 7.61931 37.7695 7.64428 37.7661C7.88457 37.7441 8.10719 37.6172 8.26326 37.4132C8.41933 37.2092 8.49608 36.9448 8.47666 36.6781L8.12394 31.8219C8.10025 31.5584 7.98439 31.3158 7.80127 31.1462C7.61814 30.9766 7.38238 30.8936 7.14466 30.9149C6.90695 30.9362 6.68627 31.0603 6.53006 31.2603C6.37386 31.4604 6.29462 31.7205 6.30936 31.9847L6.66364 36.8403Z" fill="#EFB443"/>
<path d="M27.993 55.9434C28.1125 55.9434 28.2309 55.9173 28.3414 55.8666C28.4519 55.8158 28.5523 55.7414 28.6369 55.6475C28.7214 55.5537 28.7885 55.4422 28.8342 55.3196C28.8799 55.1969 28.9034 55.0655 28.9034 54.9328V36.3094C28.9034 36.0414 28.8075 35.7844 28.6367 35.5948C28.466 35.4053 28.2344 35.2988 27.993 35.2988C27.7515 35.2988 27.5199 35.4053 27.3492 35.5948C27.1784 35.7844 27.0825 36.0414 27.0825 36.3094V54.9328C27.0825 55.0655 27.106 55.1969 27.1517 55.3196C27.1974 55.4422 27.2645 55.5537 27.349 55.6475C27.4336 55.7414 27.534 55.8158 27.6445 55.8666C27.755 55.9173 27.8734 55.9434 27.993 55.9434Z" fill="#EFB443"/>
<path d="M21.6199 55.9434C21.8614 55.9434 22.0929 55.8369 22.2637 55.6474C22.4344 55.4578 22.5303 55.2008 22.5303 54.9328V36.3094C22.5303 36.0414 22.4344 35.7844 22.2637 35.5948C22.0929 35.4053 21.8614 35.2988 21.6199 35.2988C21.3784 35.2988 21.1469 35.4053 20.9761 35.5948C20.8054 35.7844 20.7095 36.0414 20.7095 36.3094V54.9328C20.7095 55.2008 20.8054 55.4578 20.9761 55.6474C21.1469 55.8369 21.3784 55.9434 21.6199 55.9434Z" fill="#EFB443"/>
<path d="M15.2471 55.9434C15.4885 55.9434 15.7201 55.8369 15.8908 55.6474C16.0616 55.4578 16.1575 55.2008 16.1575 54.9328V36.3094C16.1575 36.0414 16.0616 35.7844 15.8908 35.5948C15.7201 35.4053 15.4885 35.2988 15.2471 35.2988C15.0056 35.2988 14.7741 35.4053 14.6033 35.5948C14.4326 35.7844 14.3367 36.0414 14.3367 36.3094V54.9328C14.3367 55.2008 14.4326 55.4578 14.6033 55.6474C14.7741 55.8369 15.0056 55.9434 15.2471 55.9434Z" fill="#EFB443"/>
<path d="M40.7691 22.6663H40.5652C40.5506 17.8827 39.064 13.2482 36.3518 9.53082C33.6395 5.81345 29.8643 3.23642 25.652 2.22679V1.0106C25.652 0.877866 25.6285 0.746417 25.5828 0.623771C25.5371 0.501125 25.47 0.389687 25.3855 0.295829C25.3009 0.201971 25.2005 0.127534 25.09 0.076773C24.9795 0.0260124 24.8611 -7.57487e-05 24.7416 1.652e-07H18.4987C18.2572 1.652e-07 18.0257 0.106474 17.8549 0.295998C17.6842 0.485523 17.5883 0.742573 17.5883 1.0106V2.21293C13.3734 3.22209 9.59609 5.8009 6.88342 9.52133C4.17074 13.2418 2.6858 17.88 2.67507 22.6663H2.47114C1.81575 22.6663 1.18721 22.9553 0.72378 23.4698C0.260351 23.9842 0 24.6819 0 25.4094C0 26.1369 0.260351 26.8346 0.72378 27.349C1.18721 27.8635 1.81575 28.1525 2.47114 28.1525H2.89982L5.42662 62.946H5.36263C5.12117 62.946 4.8896 63.0525 4.71887 63.242C4.54813 63.4315 4.45221 63.6886 4.45221 63.9566V67.4215C4.45221 67.6896 4.54813 67.9466 4.71887 68.1361C4.8896 68.3257 5.12117 68.4321 5.36263 68.4321H37.8776C37.9972 68.4322 38.1156 68.4061 38.2261 68.3554C38.3366 68.3046 38.437 68.2302 38.5215 68.1363C38.6061 68.0424 38.6731 67.931 38.7189 67.8084C38.7646 67.6857 38.7881 67.5543 38.788 67.4215V63.9566C38.7881 63.8239 38.7646 63.6924 38.7189 63.5698C38.6731 63.4471 38.6061 63.3357 38.5215 63.2418C38.437 63.148 38.3366 63.0735 38.2261 63.0228C38.1156 62.972 37.9972 62.9459 37.8776 62.946H37.8136L40.3404 28.1525H40.7691C41.4245 28.1525 42.053 27.8635 42.5165 27.349C42.9799 26.8346 43.2402 26.1369 43.2402 25.4094C43.2402 24.6819 42.9799 23.9842 42.5165 23.4698C42.053 22.9553 41.4245 22.6663 40.7691 22.6663ZM19.4091 2.0212H23.8311V3.46492H19.4091V2.0212ZM17.5883 4.28841V4.47552C17.5883 4.74355 17.6842 5.0006 17.8549 5.19012C18.0257 5.37965 18.2572 5.48612 18.4987 5.48612H24.7416C24.8611 5.4862 24.9795 5.46011 25.09 5.40935C25.2005 5.35859 25.3009 5.28415 25.3855 5.19029C25.47 5.09643 25.5371 4.98499 25.5828 4.86235C25.6285 4.7397 25.652 4.60825 25.652 4.47552V4.29188C29.3714 5.28755 32.6826 7.63892 35.056 10.97C37.4295 14.301 38.7282 18.4193 38.7443 22.6663H36.2206C36.2326 22.4815 36.2493 22.2962 36.2493 22.112C36.2501 20.5391 35.6979 19.0281 34.7102 17.9003C33.7225 16.7726 32.3774 16.1172 30.961 16.0738C30.5536 15.3089 29.976 14.6729 29.2838 14.2267C28.5915 13.7805 27.8076 13.539 27.0072 13.5253C25.8051 12.2141 24.1922 11.471 22.507 11.4519C20.8218 11.4329 19.1955 12.1394 17.9696 13.4231C17.5875 13.3289 17.1972 13.2817 16.8058 13.2822C15.7071 13.2819 14.6342 13.6518 13.7289 14.3428C12.8236 15.0339 12.1285 16.0136 11.7356 17.1525C10.5287 17.4024 9.42443 18.0709 8.58157 19.0617C7.73871 20.0525 7.20074 21.3146 7.04509 22.6663H4.49591C4.50726 18.4176 5.80407 14.2962 8.17826 10.9635C10.5524 7.63082 13.8664 5.28006 17.5883 4.28841ZM8.88725 22.6663C9.05031 21.7107 9.49239 20.8412 10.1452 20.1924C10.798 19.5435 11.6251 19.1514 12.4988 19.0767C12.6882 19.0602 12.8683 18.9784 13.0137 18.8426C13.1592 18.7069 13.2627 18.524 13.3098 18.3196C13.5078 17.4567 13.9593 16.6917 14.5928 16.1455C15.2263 15.5992 16.0057 15.3029 16.8079 15.3034C17.1945 15.3019 17.5786 15.3726 17.9441 15.5124C18.1136 15.5779 18.2968 15.5863 18.4707 15.5365C18.6445 15.4868 18.8012 15.3812 18.9211 15.2329C19.3617 14.6802 19.9028 14.2375 20.5089 13.9341C21.1149 13.6306 21.7721 13.4734 22.4369 13.4727C23.1018 13.472 23.7592 13.6278 24.3658 13.93C24.9724 14.2321 25.5143 14.6736 25.9558 15.2254C26.0522 15.3452 26.173 15.4378 26.308 15.4956C26.4431 15.5533 26.5886 15.5745 26.7325 15.5575C26.7987 15.5499 26.8652 15.546 26.9318 15.5459C27.4964 15.546 28.0484 15.7314 28.5184 16.0787C28.9884 16.426 29.3555 16.9197 29.5735 17.4978C29.6473 17.6947 29.7756 17.8603 29.9398 17.9708C30.1041 18.0813 30.2958 18.1308 30.4871 18.1123C30.5911 18.103 30.7025 18.0926 30.8127 18.0926C31.2879 18.093 31.7583 18.1973 32.1972 18.3995C32.6361 18.6017 33.0347 18.8978 33.3705 19.2711C33.7062 19.6443 33.9725 20.0873 34.154 20.5747C34.3355 21.0622 34.4288 21.5845 34.4284 22.112C34.4284 22.2962 34.4154 22.4815 34.3998 22.6663H8.88725ZM36.9672 66.4109H6.27305V64.9672H36.9672V66.4109ZM35.9871 62.946H7.25318L4.72586 28.1525H38.5144L35.9871 62.946ZM40.7691 26.1313H2.47114C2.29867 26.1313 2.13326 26.0552 2.01131 25.9198C1.88935 25.7845 1.82084 25.6008 1.82084 25.4094C1.82084 25.218 1.88935 25.0343 2.01131 24.899C2.13326 24.7636 2.29867 24.6875 2.47114 24.6875H40.7691C40.9416 24.6875 41.107 24.7636 41.2289 24.899C41.3509 25.0343 41.4194 25.218 41.4194 25.4094C41.4194 25.6008 41.3509 25.7845 41.2289 25.9198C41.107 26.0552 40.9416 26.1313 40.7691 26.1313Z" fill="#EFB443"/>
</svg>
