<svg width="24" height="53" viewBox="0 0 24 53" fill="none" xmlns="http://www.w3.org/2000/svg">
<path d="M23.7713 18.2519C23.7631 18.1403 23.7333 18.032 23.6838 17.9345C23.6343 17.837 23.5664 17.7525 23.4847 17.6869C23.4029 17.6214 23.3094 17.5762 23.2104 17.5547C23.1115 17.5331 23.0095 17.5356 22.9115 17.562C22.9151 15.7221 22.8528 13.8223 22.7171 11.8912C22.7083 11.7673 22.6732 11.6476 22.6144 11.5418C22.5557 11.4361 22.4751 11.3474 22.3794 11.2831C22.2836 11.2188 22.1755 11.1807 22.0638 11.172C21.9522 11.1633 21.8403 11.1842 21.7374 11.2331C21.0531 11.5588 20.4039 11.9108 19.7945 12.2808C18.3712 4.86389 15.4401 0 12.0002 0C8.56031 0 5.63363 4.85674 4.20874 12.2826C3.59853 11.9117 2.94967 11.5592 2.26298 11.2331C2.16008 11.1842 2.04819 11.1633 1.93655 11.172C1.82491 11.1807 1.71674 11.2188 1.621 11.2831C1.52525 11.3474 1.44468 11.4361 1.38595 11.5418C1.32722 11.6476 1.29203 11.7673 1.28327 11.8912C1.14762 13.8223 1.08523 15.7221 1.08885 17.562C0.999252 17.5379 0.906238 17.5337 0.815181 17.5498C0.724124 17.5658 0.636831 17.6017 0.558342 17.6554C0.465548 17.7197 0.387493 17.807 0.330348 17.9105C0.273204 18.014 0.238537 18.1309 0.229086 18.2519C-0.656444 29.6757 1.05062 38.9053 4.91072 43.5739C5.98696 44.9106 7.35373 45.9189 8.88071 46.5027V52.1641C8.88082 52.3715 8.95506 52.5703 9.08714 52.7169C9.21922 52.8635 9.39832 52.9459 9.58511 52.946H14.4153C14.6021 52.9459 14.7812 52.8635 14.9132 52.7169C15.0453 52.5703 15.1196 52.3715 15.1197 52.1641V46.5027C16.6467 45.919 18.0135 44.9107 19.0897 43.5739C22.9486 38.9053 24.656 29.6757 23.7713 18.2519ZM21.3832 13.1288C21.481 14.8602 21.518 16.5589 21.4999 18.2027C21.1876 18.3579 20.8845 18.5164 20.5906 18.6781C20.4836 17.008 20.3089 15.4107 20.0766 13.9036C20.4932 13.6364 20.9227 13.3755 21.3832 13.1288ZM12.0002 1.56381C14.8299 1.56381 17.3939 6.51884 18.5921 13.6042C18.5946 13.6234 18.5978 13.6422 18.6014 13.6614C18.9204 15.592 19.1292 17.5431 19.2265 19.5029C14.8327 22.3955 12.8724 26.2943 12.0002 31.4223C11.1279 26.2965 9.1677 22.3968 4.77467 19.502C5.30035 9.40518 8.44076 1.56381 12.0002 1.56381ZM2.6172 13.1288C3.07888 13.3759 3.51078 13.6373 3.92657 13.9054C3.69312 15.4115 3.51963 17.0089 3.41176 18.6795C3.11792 18.5168 2.81416 18.3579 2.50047 18.2027C2.48235 16.5589 2.51939 14.8602 2.6172 13.1288ZM5.9484 42.5168C2.52381 38.3745 0.90249 29.8004 1.55818 19.4466C11.1078 23.991 11.2922 31.773 11.2958 45.459C9.23522 45.2925 7.31549 44.2363 5.9484 42.5168ZM13.7109 51.3822H10.2895V46.8941C11.422 47.1056 12.5784 47.1056 13.7109 46.8941V51.3822ZM18.052 42.5168C16.6849 44.2363 14.7652 45.2925 12.7046 45.459C12.7046 45.0569 12.7046 44.6619 12.7046 44.27V44.2602V44.2504C12.7263 31.3123 13.1763 23.8557 22.441 19.4466C23.0979 29.8004 21.4766 38.3745 18.052 42.5168Z" fill="#EFB443"/>
<path d="M18.6163 38.1642C18.4518 38.0661 18.2588 38.0446 18.08 38.1043C17.9011 38.1641 17.7509 38.3002 17.6624 38.4828C17.2837 39.2842 16.8168 40.0304 16.2725 40.7043C16.2091 40.7798 16.1598 40.8684 16.1274 40.9652C16.095 41.0619 16.0802 41.1649 16.0838 41.268C16.0875 41.3711 16.1095 41.4724 16.1485 41.5661C16.1876 41.6598 16.243 41.7439 16.3115 41.8137C16.38 41.8834 16.4603 41.9375 16.5477 41.9726C16.6352 42.0078 16.728 42.0234 16.8209 42.0185C16.9137 42.0137 17.0048 41.9885 17.0889 41.9443C17.1729 41.9002 17.2483 41.838 17.3106 41.7614C17.9342 40.9918 18.4692 40.1392 18.9033 39.2231C18.9917 39.0404 19.0111 38.8263 18.9572 38.6277C18.9034 38.4292 18.7808 38.2625 18.6163 38.1642Z" fill="#EFB443"/>
<path d="M8.11756 10.2482H9.32513C9.51195 10.2482 9.69112 10.1658 9.82322 10.0192C9.95533 9.87254 10.0295 9.67367 10.0295 9.46631C10.0295 9.25895 9.95533 9.06008 9.82322 8.91345C9.69112 8.76682 9.51195 8.68445 9.32513 8.68445H8.11756C7.93074 8.68445 7.75157 8.76682 7.61946 8.91345C7.48736 9.06008 7.41315 9.25895 7.41315 9.46631C7.41315 9.67367 7.48736 9.87254 7.61946 10.0192C7.75157 10.1658 7.93074 10.2482 8.11756 10.2482Z" fill="#EFB443"/>
<path d="M11.3964 12.4542H12.6039C12.7907 12.4542 12.9699 12.3718 13.102 12.2252C13.2341 12.0786 13.3083 11.8797 13.3083 11.6723C13.3083 11.4649 13.2341 11.266 13.102 11.1194C12.9699 10.9728 12.7907 10.8904 12.6039 10.8904H11.3964C11.2095 10.8904 11.0304 10.9728 10.8983 11.1194C10.7662 11.266 10.692 11.4649 10.692 11.6723C10.692 11.8797 10.7662 12.0786 10.8983 12.2252C11.0304 12.3718 11.2095 12.4542 11.3964 12.4542Z" fill="#EFB443"/>
<path d="M11.3964 17.369H12.6039C12.7907 17.369 12.9699 17.2866 13.102 17.14C13.2341 16.9934 13.3083 16.7945 13.3083 16.5871C13.3083 16.3797 13.2341 16.1808 13.102 16.0342C12.9699 15.8876 12.7907 15.8052 12.6039 15.8052H11.3964C11.2095 15.8052 11.0304 15.8876 10.8983 16.0342C10.7662 16.1808 10.692 16.3797 10.692 16.5871C10.692 16.7945 10.7662 16.9934 10.8983 17.14C11.0304 17.2866 11.2095 17.369 11.3964 17.369Z" fill="#EFB443"/>
<path d="M11.3964 22.2838H12.6039C12.7907 22.2838 12.9699 22.2014 13.102 22.0548C13.2341 21.9082 13.3083 21.7093 13.3083 21.5019C13.3083 21.2945 13.2341 21.0956 13.102 20.949C12.9699 20.8024 12.7907 20.72 12.6039 20.72H11.3964C11.2095 20.72 11.0304 20.8024 10.8983 20.949C10.7662 21.0956 10.692 21.2945 10.692 21.5019C10.692 21.7093 10.7662 21.9082 10.8983 22.0548C11.0304 22.2014 11.2095 22.2838 11.3964 22.2838Z" fill="#EFB443"/>
<path d="M8.54552 18.3185C8.35871 18.3185 8.17954 18.4009 8.04744 18.5475C7.91534 18.6941 7.84113 18.893 7.84113 19.1004C7.84113 19.3078 7.91534 19.5067 8.04744 19.6533C8.17954 19.7999 8.35871 19.8823 8.54552 19.8823H9.75306C9.93988 19.8823 10.119 19.7999 10.2511 19.6533C10.3832 19.5067 10.4575 19.3078 10.4575 19.1004C10.4575 18.893 10.3832 18.6941 10.2511 18.5475C10.119 18.4009 9.93988 18.3185 9.75306 18.3185H8.54552Z" fill="#EFB443"/>
<path d="M11.3964 7.53943H12.6039C12.7907 7.53943 12.9699 7.45705 13.102 7.31043C13.2341 7.1638 13.3083 6.96493 13.3083 6.75757C13.3083 6.55021 13.2341 6.35134 13.102 6.20471C12.9699 6.05808 12.7907 5.97571 12.6039 5.97571H11.3964C11.2095 5.97571 11.0304 6.05808 10.8983 6.20471C10.7662 6.35134 10.692 6.55021 10.692 6.75757C10.692 6.96493 10.7662 7.1638 10.8983 7.31043C11.0304 7.45705 11.2095 7.53943 11.3964 7.53943Z" fill="#EFB443"/>
<path d="M7.51372 15.1351H8.72126C8.90808 15.1351 9.08725 15.0528 9.21935 14.9061C9.35145 14.7595 9.42566 14.5606 9.42566 14.3532C9.42566 14.1458 9.35145 13.9469 9.21935 13.8003C9.08725 13.6537 8.90808 13.5713 8.72126 13.5713H7.51372C7.32691 13.5713 7.14774 13.6537 7.01564 13.8003C6.88354 13.9469 6.80933 14.1458 6.80933 14.3532C6.80933 14.5606 6.88354 14.7595 7.01564 14.9061C7.14774 15.0528 7.32691 15.1351 7.51372 15.1351Z" fill="#EFB443"/>
<path d="M14.6754 10.2482H15.8829C16.0698 10.2482 16.2489 10.1658 16.381 10.0192C16.5131 9.87254 16.5873 9.67367 16.5873 9.46631C16.5873 9.25895 16.5131 9.06008 16.381 8.91345C16.2489 8.76682 16.0698 8.68445 15.8829 8.68445H14.6754C14.4886 8.68445 14.3094 8.76682 14.1773 8.91345C14.0452 9.06008 13.971 9.25895 13.971 9.46631C13.971 9.67367 14.0452 9.87254 14.1773 10.0192C14.3094 10.1658 14.4886 10.2482 14.6754 10.2482Z" fill="#EFB443"/>
<path d="M14.2474 19.8823H15.455C15.6418 19.8823 15.821 19.7999 15.9531 19.6533C16.0852 19.5067 16.1594 19.3078 16.1594 19.1004C16.1594 18.893 16.0852 18.6941 15.9531 18.5475C15.821 18.4009 15.6418 18.3185 15.455 18.3185H14.2474C14.0606 18.3185 13.8815 18.4009 13.7493 18.5475C13.6172 18.6941 13.543 18.893 13.543 19.1004C13.543 19.3078 13.6172 19.5067 13.7493 19.6533C13.8815 19.7999 14.0606 19.8823 14.2474 19.8823Z" fill="#EFB443"/>
<path d="M15.2791 13.5713C15.0923 13.5713 14.9131 13.6537 14.781 13.8003C14.6489 13.9469 14.5747 14.1458 14.5747 14.3532C14.5747 14.5606 14.6489 14.7595 14.781 14.9061C14.9131 15.0528 15.0923 15.1351 15.2791 15.1351H16.4866C16.6735 15.1351 16.8526 15.0528 16.9847 14.9061C17.1168 14.7595 17.191 14.5606 17.191 14.3532C17.191 14.1458 17.1168 13.9469 16.9847 13.8003C16.8526 13.6537 16.6735 13.5713 16.4866 13.5713H15.2791Z" fill="#EFB443"/>
</svg>
