<svg width="44" height="69" viewBox="0 0 44 69" fill="none" xmlns="http://www.w3.org/2000/svg">
<path d="M29.2742 51.9561C29.0326 51.9561 28.801 52.0626 28.6302 52.2522C28.4594 52.4418 28.3634 52.6989 28.3634 52.9671V57.2248C28.3634 57.493 28.4594 57.7501 28.6302 57.9397C28.801 58.1293 29.0326 58.2358 29.2742 58.2358C29.5157 58.2358 29.7474 58.1293 29.9182 57.9397C30.089 57.7501 30.1849 57.493 30.1849 57.2248V52.9671C30.185 52.8343 30.1615 52.7028 30.1157 52.5801C30.07 52.4574 30.0029 52.3459 29.9183 52.252C29.8337 52.1581 29.7333 52.0836 29.6228 52.0329C29.5123 51.9821 29.3938 51.956 29.2742 51.9561Z" fill="#EFB443"/>
<path d="M43.2003 2.15205C43.0573 1.44393 42.6684 0.827057 42.118 0.435466C41.5676 0.0438754 40.9002 -0.0907964 40.2608 0.0607127L21.9744 4.50277C21.7588 4.14333 21.4692 3.846 21.1296 3.63536C20.79 3.42472 20.4102 3.30683 20.0214 3.29142C19.6326 3.27601 19.2461 3.36352 18.8939 3.54674C18.5416 3.72995 18.2337 4.0036 17.9955 4.34506C17.4899 4.0491 16.9064 3.96112 16.348 4.09665C15.7896 4.23218 15.2923 4.58251 14.9441 5.08569C14.5284 4.84777 14.0601 4.74621 13.5943 4.79289C13.1284 4.83958 12.6841 5.03257 12.3135 5.3493C11.9428 5.66603 11.661 6.09339 11.5012 6.58138C11.3413 7.06937 11.31 7.5978 11.4108 8.10483L12.078 11.4914C12.1117 11.6572 12.1589 11.8193 12.2191 11.9755V23.2988H2.47213C1.81648 23.2988 1.18768 23.5879 0.72407 24.1025C0.260456 24.6171 0 25.3151 0 26.0429C0 26.7707 0.260456 27.4687 0.72407 27.9833C1.18768 28.498 1.81648 28.7871 2.47213 28.7871H3.12165V31.4885C3.12102 32.383 2.89768 33.2599 2.47629 34.0223C1.8785 35.1023 1.56148 36.3447 1.5603 37.6123V60.5129C1.56237 62.619 2.31698 64.6382 3.65858 66.1274C5.00017 67.6166 6.81917 68.4543 8.71646 68.4565H26.1515C28.0488 68.4543 29.8678 67.6166 31.2094 66.1274C32.551 64.6382 33.3056 62.619 33.3076 60.5129V41.8446V41.8336V41.8221V37.6123C33.3067 36.3449 32.9903 35.1026 32.3932 34.0223C31.9711 33.2601 31.7472 32.3832 31.7463 31.4885V28.7865H32.3979C33.0535 28.7865 33.6823 28.4974 34.146 27.9828C34.6096 27.4681 34.87 26.7701 34.87 26.0423C34.87 25.3146 34.6096 24.6166 34.146 24.1019C33.6823 23.5873 33.0535 23.2982 32.3979 23.2982H19.9998V12.0755C20.3665 12.1865 20.7522 12.1958 21.1229 12.1026C21.606 11.984 22.046 11.7071 22.3858 11.3079C22.7257 10.9087 22.9499 10.4055 23.0293 9.8634L41.309 5.42308C41.8605 5.28918 42.3542 4.95043 42.7087 4.46281C43.0632 3.9752 43.2572 3.3679 43.2586 2.74132C43.2599 2.54305 43.2403 2.34529 43.2003 2.15205ZM16.328 6.38728C16.3974 6.26694 16.4974 6.17215 16.6153 6.11491C16.7333 6.05767 16.8639 6.04056 16.9906 6.06573C17.1173 6.0909 17.2344 6.15723 17.3271 6.25633C17.4199 6.35542 17.484 6.48283 17.5115 6.62241L18.1793 10.009C18.1976 10.1016 18.1992 10.1974 18.1842 10.2907C18.1691 10.3841 18.1377 10.4732 18.0915 10.5531C18.0454 10.6329 17.9856 10.7019 17.9154 10.756C17.8453 10.8102 17.7662 10.8484 17.6827 10.8686C17.5142 10.9094 17.338 10.8742 17.1928 10.7709C17.0476 10.6675 16.9453 10.5045 16.9083 10.3175L16.2406 6.93091C16.2221 6.83838 16.2203 6.7427 16.2353 6.6494C16.2503 6.55609 16.2818 6.46701 16.328 6.38728ZM13.6862 6.81248C13.7319 6.80174 13.7785 6.79631 13.8252 6.79631C13.9735 6.79638 14.1174 6.85264 14.2331 6.9558C14.3487 7.05895 14.4292 7.20282 14.4612 7.36362L15.1289 10.7502C15.1658 10.9374 15.1341 11.1331 15.041 11.2944C14.9478 11.4556 14.8007 11.5692 14.6321 11.6101C14.4635 11.651 14.2872 11.6159 14.1419 11.5125C13.9966 11.4091 13.8943 11.2459 13.8575 11.0587L13.1902 7.6727C13.1535 7.48565 13.1851 7.29006 13.2781 7.12882C13.3711 6.96757 13.5178 6.85382 13.6862 6.81248ZM26.1515 66.4345H8.71646C7.30211 66.4329 5.94611 65.8084 4.94601 64.6983C3.94591 63.5881 3.38339 62.0829 3.38187 60.5129V42.8447H31.4861V60.5129C31.4846 62.0829 30.922 63.5881 29.9219 64.6983C28.9218 65.8084 27.5658 66.4329 26.1515 66.4345ZM30.8407 35.0784C31.2621 35.8409 31.4854 36.7178 31.4861 37.6123V40.8226H3.38187V37.6123C3.38281 36.7177 3.60652 35.8407 4.02827 35.0784C4.6257 33.9983 4.94236 32.7559 4.94322 31.4885V28.7865H29.9247V31.4885C29.9258 32.756 30.2428 33.9985 30.8407 35.0784ZM33.0495 26.0423C33.0495 26.2339 32.981 26.4176 32.859 26.553C32.7369 26.6884 32.5715 26.7645 32.3989 26.7645H2.47317C2.30063 26.7645 2.13516 26.6884 2.01315 26.553C1.89115 26.4176 1.82261 26.2339 1.82261 26.0423C1.82261 25.8508 1.89115 25.6671 2.01315 25.5317C2.13516 25.3963 2.30063 25.3202 2.47317 25.3202H32.3989C32.5713 25.3207 32.7364 25.3969 32.8581 25.5323C32.9799 25.6677 33.0483 25.8511 33.0485 26.0423H33.0495ZM14.0406 23.2982V13.5989C14.1898 13.6312 14.3414 13.6479 14.4934 13.6486C14.6711 13.6487 14.8482 13.6274 15.0217 13.5851C15.5765 13.4478 16.0711 13.1006 16.4207 12.6029C16.7658 12.8024 17.1489 12.9076 17.5381 12.9097C17.7176 12.9096 17.8967 12.8879 18.072 12.845C18.1085 12.8358 18.1418 12.8173 18.1761 12.8069V23.2982H14.0406ZM20.7336 10.1263C20.5651 10.1669 20.389 10.1317 20.2438 10.0286C20.0985 9.92537 19.996 9.76255 19.9587 9.5757L19.2909 6.19028C19.2544 6.00316 19.2861 5.80758 19.3791 5.64636C19.4722 5.48513 19.619 5.3714 19.7874 5.33006C19.8336 5.31905 19.8807 5.31343 19.928 5.31331C20.0761 5.31372 20.2196 5.37023 20.3349 5.47349C20.4502 5.57675 20.5302 5.72058 20.5619 5.8812L21.227 9.25276V9.26604V9.27009C21.2632 9.45633 21.2316 9.65088 21.1392 9.81144C21.0468 9.97199 20.901 10.0856 20.7336 10.1274V10.1263ZM40.927 3.44555L22.8154 7.84486L22.5375 6.43523L40.6491 2.03535C40.734 2.01565 40.8215 2.01474 40.9067 2.03267C40.992 2.05059 41.0731 2.087 41.1457 2.13981C41.2182 2.19261 41.2806 2.26078 41.3293 2.3404C41.3781 2.42002 41.4122 2.50954 41.4298 2.60382C41.4387 2.64856 41.4428 2.69434 41.4417 2.74016C41.4418 2.9059 41.3904 3.06662 41.2963 3.19529C41.2022 3.32396 41.0711 3.41274 40.9249 3.44671L40.927 3.44555Z" fill="#EFB443"/>
</svg>
