<svg version="1.1" xmlns="http://www.w3.org/2000/svg" xmlns:xlink="http://www.w3.org/1999/xlink" viewBox="0 0 172 172"><g fill="none" fill-rule="nonzero" stroke="none" stroke-width="1" stroke-linecap="butt" stroke-linejoin="miter" stroke-miterlimit="10" stroke-dasharray="" stroke-dashoffset="0" font-family="none" font-weight="none" font-size="none" text-anchor="none" style="mix-blend-mode: normal"><path d="M0,172v-172h172v172z" fill="none"></path><path d="M86,172c-47.49649,0 -86,-38.50351 -86,-86v0c0,-47.49649 38.50351,-86 86,-86v0c47.49649,0 86,38.50351 86,86v0c0,47.49649 -38.50351,86 -86,86z" fill="#49a760"></path><g id="original-icon" fill="#ffffff"><path d="M65.876,36.808c-15.97724,0 -29.068,13.09076 -29.068,29.068v40.248c0,15.97724 13.09076,29.068 29.068,29.068h40.248c15.97724,0 29.068,-13.09076 29.068,-29.068v-40.248c0,-15.97724 -13.09076,-29.068 -29.068,-29.068zM65.876,41.28h40.248c13.53796,0 24.596,11.05804 24.596,24.596v40.248c0,13.53796 -11.05804,24.596 -24.596,24.596h-40.248c-13.53796,0 -24.596,-11.05804 -24.596,-24.596v-40.248c0,-13.53796 11.05804,-24.596 24.596,-24.596zM112.832,54.696c-2.4596,0 -4.472,2.0124 -4.472,4.472c0,2.4596 2.0124,4.472 4.472,4.472c2.4596,0 4.472,-2.0124 4.472,-4.472c0,-2.4596 -2.0124,-4.472 -4.472,-4.472zM86,61.404c-13.51764,0 -24.596,11.07836 -24.596,24.596c0,13.51764 11.07836,24.596 24.596,24.596c13.51764,0 24.596,-11.07836 24.596,-24.596c0,-13.51764 -11.07836,-24.596 -24.596,-24.596zM86,65.876c11.07836,0 20.124,9.04564 20.124,20.124c0,11.07836 -9.04564,20.124 -20.124,20.124c-11.07836,0 -20.124,-9.04564 -20.124,-20.124c0,-11.07836 9.04564,-20.124 20.124,-20.124z"></path></g></g></svg>