<svg width="56" height="62" viewBox="0 0 56 62" fill="none" xmlns="http://www.w3.org/2000/svg">
<path d="M54.7897 48.6901C54.7668 48.6844 52.6029 47.6612 53.888 40.4755C54.5381 36.8416 54.4025 33.5026 53.4999 30.813C52.7016 28.439 51.3341 26.8001 49.7033 26.2249C48.3985 22.5469 45.1763 20.4626 40.0731 20.024C36.0706 19.7021 32.0886 19.1195 28.1476 18.2792C28.3324 17.8126 28.4239 17.3072 28.416 16.7976C28.416 14.0597 26.6585 12.0803 23.5742 11.3006C23.4816 10.8794 23.3638 10.4656 23.2216 10.0619C25.1335 7.07279 23.7735 2.72406 21.2644 0.232251C21.1525 0.120748 21.015 0.0456545 20.8671 0.0152193C20.7192 -0.0152158 20.5666 0.000184556 20.426 0.0597291C20.2855 0.119274 20.1625 0.220659 20.0705 0.352748C19.9785 0.484838 19.921 0.642523 19.9045 0.808482C19.7303 2.39585 19.4281 3.96264 19.0014 5.48997C17.4647 4.87955 15.84 4.5878 14.2083 4.62925C12.577 4.58779 10.9528 4.87954 9.41653 5.48997C8.9923 3.96213 8.69119 2.39548 8.51674 0.808482C8.50002 0.642618 8.44249 0.485064 8.35046 0.353091C8.25842 0.221118 8.13542 0.119821 7.99495 0.0603036C7.85448 0.000786149 7.70196 -0.0146537 7.55411 0.0156766C7.40626 0.0460068 7.26879 0.120936 7.15676 0.232251C4.64585 2.72925 3.28587 7.08161 5.20471 10.0707C5.06363 10.4717 4.94646 10.8825 4.85396 11.3006C1.76548 12.0777 0.00517887 14.0576 0.00517887 16.7976C-0.0243181 17.3271 0.0725703 17.856 0.286062 18.3307C0.499555 18.8053 0.822093 19.2091 1.22112 19.5012C1.81373 19.894 2.49547 20.0897 3.18532 20.065C3.81242 20.054 4.43466 19.9408 5.03214 19.7291C5.23371 20.8405 5.45866 21.8393 5.64011 22.6326C5.88845 23.7475 6.28234 24.8161 6.80928 25.8044C6.56728 26.2952 6.43873 26.8449 6.43515 27.4044C6.43515 28.8839 7.33634 30.1962 8.79827 31.127C9.10029 32.9686 9.50751 34.787 10.0175 36.5711C10.0226 36.5898 10.0278 36.6018 10.0334 36.6178V36.6303C10.0334 36.6303 10.0423 36.6521 10.0455 36.662C10.0488 36.6718 10.0549 36.6916 10.0591 36.703C10.2612 37.3736 10.499 38.0302 10.7714 38.6694C12.7505 44.6493 14.2293 53.1681 14.3724 56.5726C13.2566 57.6996 13.2528 59.6063 13.2528 60.6062C13.2529 60.8471 13.3392 61.0781 13.4927 61.2484C13.6461 61.4188 13.8542 61.5145 14.0712 61.5146H24.931C25.148 61.5145 25.3561 61.4188 25.5095 61.2484C25.663 61.0781 25.7493 60.8471 25.7494 60.6062C25.7494 59.5731 25.7447 57.574 24.5157 56.4651C24.8898 53.8534 25.6418 49.4185 26.145 46.5015C28.9015 46.5015 31.519 46.5015 33.8615 46.4049C34.6195 49.7432 35.1405 53.1423 35.4198 56.571C34.3026 57.698 34.2974 59.6058 34.2974 60.6062C34.2975 60.8471 34.3838 61.0781 34.5373 61.2484C34.6907 61.4188 34.8988 61.5145 35.1158 61.5146H45.9741C46.1912 61.5145 46.3993 61.4188 46.5527 61.2484C46.7062 61.0781 46.7924 60.8471 46.7926 60.6062C46.7926 59.5747 46.7879 57.5797 45.564 56.4693C46.3371 51.5614 49.3675 37.3405 49.3919 37.2242C49.9908 35.045 50.3193 32.7854 50.3684 30.5077C50.3673 29.8641 50.3255 29.2214 50.243 28.5844C51.0365 29.352 51.6312 30.3406 51.9659 31.4484C52.753 33.7876 52.8652 36.8675 52.283 40.1214C50.6555 49.2207 54.0311 50.3607 54.4212 50.4604C54.6319 50.5122 54.8525 50.4696 55.035 50.3418C55.2175 50.214 55.3472 50.0114 55.3958 49.778C55.4444 49.5446 55.408 49.2993 55.2944 49.0956C55.1809 48.8919 54.9995 48.7461 54.7897 48.6901ZM26.7792 16.7976C26.8077 17.0226 26.779 17.252 26.6963 17.46C26.6137 17.6679 26.4804 17.8461 26.3115 17.9744C25.7634 18.3669 24.7495 18.3378 23.6753 17.9277C23.8938 16.3862 23.955 14.8222 23.8577 13.2654C25.2457 13.7467 26.7792 14.7408 26.7792 16.7976ZM21.2607 2.9369C22.3078 4.55554 22.8208 6.55625 22.2844 8.18008C22.2573 8.14011 22.2325 8.09806 22.2044 8.05861C21.7185 7.37861 21.132 6.79528 20.4699 6.33355C20.8067 5.22354 21.0709 4.08804 21.2607 2.93586V2.9369ZM20.9132 9.17213C22.5613 11.5201 22.4341 15.2044 21.9617 18.3088V18.3129C21.733 19.8142 21.4244 21.1811 21.1952 22.1898C21.0275 22.9319 20.7866 23.6513 20.4769 24.3348C19.0739 23.0702 16.8132 22.2583 14.2101 22.2583C11.6071 22.2583 9.34638 23.0686 7.94338 24.3348C7.63372 23.6516 7.39282 22.9326 7.22504 22.1908C6.52354 19.0958 5.06067 12.6555 7.50564 9.17317C8.77396 7.36246 11.0291 6.4462 14.2083 6.4462C17.3875 6.4462 19.6458 7.36298 20.9151 9.1711L20.9132 9.17213ZM7.15816 2.9369C7.34775 4.08745 7.61109 5.22151 7.94618 6.33043C7.28554 6.79126 6.70039 7.37356 6.21581 8.05238C6.18682 8.09339 6.1653 8.13855 6.13771 8.18008C5.59755 6.55833 6.11105 4.55658 7.15816 2.9369ZM2.10969 17.9744C1.94076 17.8461 1.80747 17.6679 1.72485 17.46C1.64222 17.252 1.61353 17.0226 1.64202 16.7976C1.64202 14.7382 3.18018 13.7436 4.56915 13.2639C4.47092 14.8207 4.53116 16.3849 4.74874 17.9267C3.6731 18.3368 2.65779 18.3674 2.10969 17.9744ZM14.2106 24.0731C17.828 24.0731 20.3487 25.8288 20.3487 27.4044C20.3487 28.9799 17.828 30.7351 14.2106 30.7351C10.5932 30.7351 8.07245 28.9799 8.07245 27.4044C8.07245 25.8288 10.5932 24.0731 14.2106 24.0731ZM19.6959 56.5752C19.6286 56.6433 19.5644 56.7152 19.5037 56.7906C19.4095 56.6687 19.3066 56.5555 19.1959 56.4521C19.2787 55.8811 19.383 55.1855 19.5079 54.4005C19.607 55.2467 19.6706 55.9865 19.6959 56.5752ZM17.6409 55.7446C17.3764 55.6985 17.109 55.6752 16.8412 55.675C16.5467 55.6758 16.2528 55.7057 15.963 55.7643C15.5213 51.4544 14.7716 47.1904 13.7209 43.0125C14.9623 44.1259 16.3925 44.9512 17.9267 45.4394C18.2106 46.6915 18.4668 47.9514 18.6955 49.1973C18.4079 50.9151 17.9454 53.6945 17.6409 55.7461V55.7446ZM15.6346 57.7769C15.6548 57.7629 15.6744 57.7484 15.6931 57.7323C16.052 57.5477 16.4464 57.4646 16.8412 57.4904C18.1222 57.4904 18.501 58.0251 18.6693 58.9476C18.6333 59.2071 18.6104 59.4584 18.5978 59.6967H14.9163C14.9832 58.6693 15.1932 58.0848 15.6346 57.7785V57.7769ZM20.2407 59.6977C20.2532 59.4936 20.2751 59.2904 20.3062 59.0888C20.3062 59.081 20.3095 59.0742 20.3104 59.067C20.3273 58.8114 20.3948 58.563 20.5079 58.3396C20.6211 58.1162 20.7772 57.9232 20.9651 57.7743C20.9829 57.7619 20.9997 57.7489 21.0161 57.7349C21.3753 57.5489 21.7705 57.4653 22.1661 57.4914C23.4863 57.4914 23.9792 57.9898 24.0896 59.6977H20.2407ZM40.7414 56.5741C40.6738 56.6423 40.6095 56.7144 40.5487 56.7901C40.4546 56.6682 40.3517 56.555 40.241 56.4516C40.3294 55.8396 40.436 55.1403 40.5529 54.3969C40.6526 55.2457 40.7157 55.9865 40.7414 56.5746V56.5741ZM38.6837 55.7435C38.4199 55.6979 38.1533 55.675 37.8863 55.675C37.5927 55.6759 37.2997 55.7056 37.0108 55.7638C36.7044 52.5814 36.2082 49.4251 35.5255 46.3157C36.8542 46.229 38.0355 46.108 39.0835 45.9408C39.3174 46.9999 39.5362 48.0926 39.7406 49.1999C39.3978 51.2375 38.9708 53.8264 38.686 55.7461L38.6837 55.7435ZM36.6769 57.7764C36.6972 57.7622 36.7168 57.7472 36.7358 57.7313C37.0947 57.5466 37.4891 57.4635 37.884 57.4893C39.1649 57.4893 39.5437 58.024 39.7121 58.9465C39.6761 59.2061 39.6531 59.4574 39.6405 59.6956H35.9614C36.0283 58.6698 36.2378 58.0853 36.6792 57.779L36.6769 57.7764ZM41.2834 59.6972C41.2959 59.4931 41.3178 59.2899 41.3489 59.0882C41.3489 59.0805 41.3522 59.0737 41.3531 59.0664C41.5463 57.8667 42.0672 57.4909 43.2065 57.4909C43.595 57.4667 43.9829 57.5472 44.3373 57.7255C44.3471 57.7307 44.357 57.7349 44.3668 57.7396C44.8429 58.0355 45.0608 58.6304 45.13 59.6972H41.2834ZM47.8065 36.771C47.6797 37.3654 44.8849 50.4796 44.0184 55.7492C43.7507 55.7004 43.48 55.6756 43.2088 55.675C42.9151 55.676 42.6219 55.7057 42.3329 55.7638C42.1286 53.4946 41.8096 51.2399 41.3774 49.0104V49.0016V48.9938C41.1085 47.5247 40.8106 46.0779 40.4926 44.6939C40.4419 44.4728 40.3181 44.281 40.1459 44.1567C39.9736 44.0323 39.7655 43.9845 39.5629 44.0227C37.8752 44.3175 36.1728 44.4974 34.4653 44.5615C31.9689 44.6856 29.0965 44.6872 26.0473 44.6851L25.4697 44.6799C25.2795 44.6799 25.0953 44.7535 24.9487 44.8879C24.8021 45.0223 24.7022 45.2092 24.6663 45.4165C24.1939 48.1409 23.3947 52.8234 22.9621 55.7472C22.4074 55.6446 21.8409 55.6498 21.2878 55.7627C21.0831 53.4922 20.7641 51.2362 20.3324 49.0053V48.9959V48.9876C20.0616 47.4977 19.7483 45.9824 19.4003 44.4831C19.3642 44.328 19.2919 44.1862 19.1905 44.0722C19.0892 43.9581 18.9624 43.8759 18.8232 43.8337C15.6155 42.8619 13.5984 41.0496 12.2815 37.9598C12.064 37.3031 11.826 36.6443 11.573 36.0006L11.5692 35.9902C11.1874 34.6775 10.8733 33.3417 10.6283 31.9893C11.7915 32.3713 12.999 32.5616 14.212 32.5541C18.5716 32.5541 21.987 30.2933 21.987 27.4065C21.9834 26.847 21.8549 26.2973 21.6128 25.8065C22.1397 24.8178 22.5336 23.7488 22.782 22.6336C22.9621 21.8404 23.188 20.8437 23.39 19.7317C23.9874 19.9418 24.6093 20.0534 25.2359 20.0629C25.7239 20.0684 26.2087 19.975 26.6665 19.7872C31.0455 20.8038 35.482 21.4873 39.945 21.8331C45.86 22.3471 48.7315 25.183 48.7315 30.5077C48.6807 32.6325 48.3703 34.7399 47.8088 36.772L47.8065 36.771Z" fill="#49A760"/>
<path d="M39.8569 23.1303C38.6036 23.0223 37.3511 22.8941 36.1347 22.7492C35.9196 22.7251 35.7047 22.7965 35.5368 22.9477C35.369 23.0989 35.2618 23.3177 35.2388 23.5563C35.2158 23.7949 35.2787 24.0339 35.4139 24.2212C35.5491 24.4085 35.7455 24.5288 35.9603 24.5558C37.1926 24.7022 38.4609 24.832 39.7302 24.9415C39.7517 24.9436 39.7732 24.9447 39.7947 24.9447C40.0118 24.9538 40.2232 24.8669 40.3825 24.703C40.5419 24.5391 40.636 24.3116 40.6442 24.0707C40.6525 23.8297 40.5742 23.595 40.4265 23.4182C40.2789 23.2413 40.074 23.1368 39.8569 23.1277V23.1303Z" fill="#49A760"/>
<path d="M9.70923 17.1318C10.1485 17.1318 10.5779 16.9873 10.9432 16.7164C11.3085 16.4456 11.5932 16.0606 11.7614 15.6101C11.9296 15.1597 11.9737 14.664 11.8881 14.1857C11.8026 13.7075 11.5912 13.2681 11.2807 12.9232C10.9702 12.5782 10.5745 12.3432 10.1438 12.2478C9.71296 12.1525 9.26636 12.201 8.86042 12.3873C8.45447 12.5736 8.1074 12.8893 7.86308 13.2946C7.61876 13.6998 7.48816 14.1763 7.48779 14.6639C7.48804 15.318 7.7221 15.9453 8.1386 16.408C8.55509 16.8707 9.11997 17.131 9.70923 17.1318ZM9.70923 14.0171C9.82493 14.0171 9.93803 14.0552 10.0342 14.1266C10.1304 14.198 10.2053 14.2995 10.2495 14.4182C10.2937 14.5369 10.3052 14.6674 10.2824 14.7934C10.2597 14.9193 10.2039 15.0349 10.1219 15.1256C10.04 15.2163 9.93565 15.2779 9.82212 15.3027C9.7086 15.3275 9.591 15.3144 9.48422 15.2649C9.37743 15.2155 9.28626 15.132 9.22225 15.025C9.15824 14.918 9.12427 14.7924 9.12464 14.6639C9.12526 14.4922 9.18711 14.3278 9.29666 14.2066C9.40621 14.0854 9.55455 14.0173 9.70923 14.0171Z" fill="#49A760"/>
<path d="M18.7119 17.1318C19.1512 17.1318 19.5806 16.9873 19.9458 16.7164C20.3111 16.4456 20.5958 16.0606 20.764 15.6101C20.9322 15.1597 20.9763 14.664 20.8907 14.1857C20.8052 13.7075 20.5938 13.2681 20.2833 12.9232C19.9728 12.5782 19.5772 12.3432 19.1464 12.2478C18.7156 12.1525 18.269 12.201 17.8631 12.3873C17.4571 12.5736 17.1101 12.8893 16.8658 13.2946C16.6214 13.6998 16.4908 14.1763 16.4905 14.6639C16.4907 15.318 16.7248 15.9453 17.1413 16.408C17.5578 16.8707 18.1226 17.131 18.7119 17.1318ZM18.7119 14.0171C18.8276 14.0171 18.9407 14.0552 19.0369 14.1266C19.133 14.198 19.208 14.2995 19.2521 14.4182C19.2963 14.5369 19.3078 14.6674 19.2851 14.7934C19.2624 14.9193 19.2065 15.0349 19.1246 15.1256C19.0426 15.2163 18.9383 15.2779 18.8248 15.3027C18.7113 15.3275 18.5937 15.3144 18.4869 15.2649C18.3801 15.2155 18.2889 15.132 18.2249 15.025C18.1609 14.918 18.1269 14.7924 18.1273 14.6639C18.1279 14.4922 18.1898 14.3278 18.2993 14.2066C18.4089 14.0854 18.5572 14.0173 18.7119 14.0171Z" fill="#49A760"/>
</svg>
