<svg width="13" height="17" viewBox="0 0 13 17" fill="none" xmlns="http://www.w3.org/2000/svg">
<path d="M6.52739 0.251221C4.8762 0.253261 3.2932 0.941333 2.12563 2.1645C0.958065 3.38766 0.301271 5.04605 0.299323 6.77587C0.297345 8.18947 0.738107 9.56472 1.55399 10.6907C1.55399 10.6907 1.72385 10.9249 1.75159 10.9588L6.52739 16.8594L11.3054 10.9558C11.3304 10.9244 11.5008 10.6907 11.5008 10.6907L11.5013 10.6889C12.3168 9.56344 12.7574 8.18882 12.7554 6.77587C12.7535 5.04605 12.0967 3.38766 10.9291 2.1645C9.76157 0.941333 8.17857 0.253261 6.52739 0.251221ZM6.52739 9.14846C6.07946 9.14846 5.64159 9.00931 5.26916 8.74861C4.89672 8.4879 4.60644 8.11735 4.43503 7.68382C4.26362 7.25028 4.21877 6.77323 4.30615 6.31299C4.39354 5.85276 4.60923 5.43 4.92597 5.09818C5.2427 4.76637 5.64624 4.5404 6.08556 4.44886C6.52487 4.35731 6.98024 4.40429 7.39407 4.58387C7.8079 4.76345 8.1616 5.06755 8.41046 5.45772C8.65931 5.84789 8.79214 6.30661 8.79214 6.77587C8.79139 7.40488 8.55254 8.0079 8.12798 8.45268C7.70342 8.89746 7.12781 9.14768 6.52739 9.14846Z" fill="#A0D468"/>
</svg>
