<svg width="42" height="46" viewBox="0 0 42 46" fill="none" xmlns="http://www.w3.org/2000/svg">
<path d="M29.2499 37.6734L26.979 35.1526C26.0433 34.1162 24.7753 33.5341 23.4534 33.5341C22.1316 33.5341 20.8636 34.1162 19.9279 35.1526L17.9972 37.2957C16.868 38.5504 15.4409 39.4229 13.882 39.8117C12.3232 40.2004 10.6969 40.0894 9.19282 39.4914C7.68869 38.8934 6.36864 37.8332 5.38656 36.4343C4.40448 35.0354 3.80082 33.3555 3.64594 31.5903C3.47526 33.5104 3.84347 35.4422 4.70015 37.121C5.55682 38.7998 6.86007 40.1435 8.43142 40.9683C10.0028 41.793 11.7654 42.0584 13.4778 41.728C15.1903 41.3977 16.7689 40.4878 17.9975 39.1229L19.9281 36.9798C20.8639 35.9434 22.1318 35.3613 23.4537 35.3613C24.7756 35.3613 26.0435 35.9434 26.9793 36.9798L29.2503 39.5007C29.9887 38.5731 30.5459 37.4857 30.8866 36.307C31.2273 35.1284 31.3442 33.8841 31.2297 32.6528C31.0607 34.5155 30.3681 36.272 29.2499 37.6734Z" fill="#F4E5D4"/>
<path d="M33.9316 3.04635e-05C32.9615 -0.00291507 32.0004 0.207771 31.1041 0.619893C30.2078 1.03201 29.394 1.63739 28.7099 2.40097L17.884 14.4181L18.5823 15.1933L29.4081 3.17616C30.6093 1.85209 32.2342 1.11046 33.927 1.11371C35.6197 1.11697 37.2423 1.86485 38.4393 3.19353C39.6363 4.5222 40.31 6.32334 40.313 8.20237C40.3159 10.0814 39.6478 11.8851 38.455 13.2184L27.6292 25.2356L28.3276 26.0107L39.1535 13.9936C40.1862 12.8472 40.8895 11.3866 41.1745 9.79647C41.4594 8.20636 41.3132 6.55816 40.7542 5.0603C40.1953 3.56245 39.2488 2.28221 38.0344 1.38149C36.8199 0.480769 35.3922 1.80297e-05 33.9316 3.04635e-05Z" fill="#EFB443"/>
<path d="M31.5812 6.91997C31.6738 6.81717 31.7258 6.67774 31.7258 6.53235C31.7258 6.38696 31.6738 6.24753 31.5812 6.14471C31.4886 6.0419 31.363 5.98414 31.232 5.98413C31.1011 5.98412 30.9755 6.04187 30.8828 6.14467L30.6557 6.39692C30.3622 6.72271 30.1973 7.16457 30.1973 7.62531C30.1973 8.08604 30.3622 8.52791 30.6556 8.85371C30.9491 9.1795 31.3472 9.36254 31.7622 9.36255C32.1773 9.36256 32.5753 9.17954 32.8688 8.85375L33.0961 8.6015C33.1429 8.55086 33.1803 8.49039 33.2059 8.42359C33.2316 8.35679 33.245 8.285 33.2455 8.21239C33.2459 8.13978 33.2334 8.06779 33.2085 8.00061C33.1837 7.93343 33.1471 7.87239 33.1009 7.82104C33.0546 7.76969 32.9996 7.72906 32.9391 7.70149C32.8786 7.67393 32.8138 7.65998 32.7483 7.66047C32.6829 7.66096 32.6183 7.67587 32.5581 7.70434C32.4979 7.7328 32.4434 7.77426 32.3978 7.82629L32.1706 8.07854C32.1172 8.13916 32.0535 8.18742 31.9832 8.22053C31.9128 8.25363 31.8373 8.27093 31.7609 8.2714C31.6846 8.27188 31.6089 8.25554 31.5382 8.22332C31.4676 8.1911 31.4034 8.14364 31.3494 8.08369C31.2954 8.02375 31.2526 7.9525 31.2236 7.87409C31.1946 7.79567 31.1798 7.71164 31.1802 7.62686C31.1807 7.54208 31.1962 7.45823 31.2261 7.38018C31.2559 7.30212 31.2993 7.23141 31.3539 7.17213L31.5812 6.91997Z" fill="#EFB443"/>
<path d="M36.3411 12.7081L36.5684 12.4558C36.6597 12.3528 36.7107 12.2138 36.7102 12.0692C36.7096 11.9246 36.6577 11.786 36.5655 11.6838C36.4734 11.5815 36.3486 11.5238 36.2184 11.5232C36.0881 11.5226 35.9629 11.5792 35.87 11.6806L35.6428 11.9328C35.5893 11.9929 35.5256 12.0407 35.4554 12.0735C35.3852 12.1062 35.3099 12.1232 35.2338 12.1234C35.1576 12.1237 35.0822 12.1073 35.0118 12.075C34.9414 12.0428 34.8775 11.9955 34.8236 11.9357C34.7698 11.8759 34.7272 11.8049 34.6981 11.7268C34.6691 11.6487 34.6543 11.5649 34.6546 11.4804C34.6548 11.3959 34.6701 11.3123 34.6996 11.2344C34.7291 11.1564 34.7722 11.0858 34.8263 11.0264L35.0535 10.7741C35.1449 10.671 35.1958 10.532 35.1953 10.3874C35.1947 10.2428 35.1427 10.1043 35.0506 10.0021C34.9585 9.89982 34.8337 9.84213 34.7034 9.84156C34.5731 9.84099 34.4479 9.89758 34.3551 9.99901L34.1279 10.2513C33.8366 10.5776 33.6736 11.0187 33.6745 11.4781C33.6754 11.9375 33.8402 12.3777 34.1329 12.7026C34.4255 13.0274 34.8221 13.2104 35.236 13.2114C35.6498 13.2125 36.0472 13.0315 36.3411 12.7081Z" fill="#EFB443"/>
<path d="M29.0819 9.6946C29.1745 9.59177 29.2265 9.45233 29.2265 9.30693C29.2265 9.16154 29.1744 9.02211 29.0818 8.91931C28.9892 8.81651 28.8635 8.75877 28.7326 8.75879C28.6016 8.75881 28.476 8.81658 28.3834 8.9194L28.1563 9.17165C27.8628 9.49742 27.6979 9.93928 27.6979 10.4C27.6979 10.8607 27.8628 11.3026 28.1563 11.6284C28.4497 11.9542 28.8478 12.1372 29.2628 12.1372C29.6779 12.1372 30.0759 11.9542 30.3694 11.6284L30.5967 11.3762C30.6435 11.3255 30.6809 11.2651 30.7065 11.1983C30.7322 11.1315 30.7456 11.0597 30.7461 10.9871C30.7465 10.9145 30.734 10.8425 30.7092 10.7753C30.6843 10.7081 30.6477 10.6471 30.6015 10.5957C30.5552 10.5444 30.5002 10.5038 30.4397 10.4762C30.3792 10.4486 30.3144 10.4347 30.249 10.4352C30.1835 10.4357 30.1189 10.4506 30.0587 10.479C29.9985 10.5075 29.944 10.549 29.8984 10.601L29.6712 10.8535C29.6176 10.913 29.5539 10.9602 29.4839 10.9924C29.4138 11.0246 29.3387 11.0412 29.2629 11.0412C29.1871 11.0412 29.112 11.0246 29.0419 10.9924C28.9719 10.9602 28.9082 10.913 28.8546 10.8535C28.801 10.794 28.7585 10.7233 28.7295 10.6456C28.7005 10.5678 28.6855 10.4845 28.6855 10.4003C28.6855 10.3161 28.7005 10.2328 28.7295 10.155C28.7585 10.0773 28.801 10.0066 28.8546 9.94712L29.0819 9.6946Z" fill="#EFB443"/>
<path d="M33.8416 15.4827L34.0688 15.2305C34.1593 15.1272 34.2096 14.9886 34.2087 14.8445C34.2078 14.7004 34.1559 14.5625 34.0641 14.4606C33.9723 14.3587 33.8481 14.301 33.7183 14.3001C33.5885 14.2991 33.4635 14.3549 33.3705 14.4553L33.1432 14.7075C33.0346 14.8255 32.8883 14.8911 32.7363 14.8902C32.5843 14.8892 32.4387 14.8218 32.3312 14.7025C32.2237 14.5832 32.1629 14.4216 32.1621 14.2529C32.1612 14.0841 32.2203 13.9218 32.3266 13.8012L32.5539 13.549C32.6452 13.446 32.6962 13.307 32.6957 13.1624C32.6952 13.0178 32.6432 12.8793 32.5511 12.777C32.459 12.6748 32.3342 12.6171 32.204 12.6165C32.0737 12.6159 31.9485 12.6724 31.8556 12.7738L31.6284 13.026C31.3349 13.3518 31.17 13.7936 31.17 14.2543C31.1699 14.715 31.3348 15.1569 31.6283 15.4827C31.9218 15.8084 32.3199 15.9914 32.7349 15.9915C33.15 15.9915 33.5481 15.8085 33.8416 15.4827Z" fill="#EFB443"/>
<path d="M27.1715 13.6277C27.0628 13.7457 26.9166 13.8113 26.7646 13.8104C26.6125 13.8094 26.467 13.742 26.3595 13.6227C26.252 13.5034 26.1912 13.3418 26.1903 13.1731C26.1895 13.0043 26.2486 12.842 26.3549 12.7214L26.5821 12.4691C26.6735 12.3661 26.7245 12.2271 26.7239 12.0825C26.7234 11.9379 26.6714 11.7994 26.5793 11.6972C26.4872 11.5949 26.3624 11.5372 26.2321 11.5366C26.1018 11.536 25.9766 11.5926 25.8838 11.694L25.6565 11.9462C25.363 12.272 25.1981 12.7139 25.1981 13.1746C25.1981 13.6353 25.363 14.0771 25.6565 14.4029C25.95 14.7286 26.3481 14.9116 26.7631 14.9116C27.1782 14.9116 27.5763 14.7286 27.8698 14.4028L28.097 14.1507C28.1896 14.0479 28.2417 13.9085 28.2417 13.7631C28.2417 13.6177 28.1897 13.4783 28.097 13.3755C28.0044 13.2727 27.8788 13.2149 27.7479 13.2149C27.6169 13.2149 27.4913 13.2727 27.3987 13.3755L27.1715 13.6277Z" fill="#EFB443"/>
<path d="M31.342 18.2573L31.5691 18.005C31.6605 17.9019 31.7114 17.7629 31.7109 17.6183C31.7103 17.4737 31.6583 17.3352 31.5662 17.233C31.4741 17.1307 31.3493 17.0731 31.219 17.0725C31.0887 17.0719 30.9635 17.1285 30.8707 17.2299L30.6435 17.4822C30.5348 17.6002 30.3886 17.6658 30.2366 17.6649C30.0846 17.6639 29.939 17.5965 29.8315 17.4772C29.724 17.3579 29.6632 17.1963 29.6624 17.0275C29.6615 16.8588 29.7206 16.6965 29.8269 16.5758L30.0542 16.3236C30.1447 16.2203 30.195 16.0816 30.1941 15.9375C30.1932 15.7934 30.1413 15.6555 30.0495 15.5536C29.9577 15.4517 29.8335 15.3941 29.7037 15.3931C29.5739 15.3921 29.4489 15.4479 29.3559 15.5484L29.1287 15.8005C28.9833 15.9618 28.8681 16.1534 28.7894 16.3641C28.7108 16.5749 28.6703 16.8008 28.6703 17.0289C28.6703 17.4897 28.8352 17.9315 29.1287 18.2573C29.274 18.4186 29.4465 18.5466 29.6364 18.6339C29.8263 18.7212 30.0298 18.7661 30.2353 18.7661C30.6504 18.7661 31.0485 18.5831 31.342 18.2573Z" fill="#EFB443"/>
<path d="M23.1571 17.1778C23.4508 17.5031 23.8488 17.6858 24.2637 17.6858C24.6787 17.6858 25.0766 17.5031 25.3704 17.1778L25.5976 16.9255C25.6902 16.8227 25.7422 16.6833 25.7422 16.5379C25.7422 16.3925 25.6902 16.2531 25.5975 16.1503C25.5049 16.0475 25.3793 15.9897 25.2483 15.9897C25.1173 15.9898 24.9917 16.0475 24.8991 16.1504L24.672 16.4026C24.6184 16.4621 24.5548 16.5093 24.4847 16.5415C24.4147 16.5738 24.3396 16.5903 24.2638 16.5903C24.1879 16.5904 24.1129 16.5738 24.0428 16.5416C23.9728 16.5094 23.9091 16.4622 23.8555 16.4027C23.8019 16.3432 23.7593 16.2725 23.7303 16.1948C23.7013 16.117 23.6863 16.0337 23.6863 15.9495C23.6863 15.8654 23.7013 15.782 23.7303 15.7043C23.7593 15.6265 23.8018 15.5559 23.8554 15.4963L24.0826 15.2441C24.1291 15.1934 24.1661 15.1329 24.1914 15.0662C24.2167 14.9996 24.2299 14.928 24.2302 14.8556C24.2304 14.7833 24.2178 14.7116 24.193 14.6446C24.1682 14.5777 24.1317 14.5169 24.0856 14.4658C24.0395 14.4146 23.9847 14.3741 23.9245 14.3465C23.8642 14.3189 23.7996 14.3049 23.7344 14.3052C23.6692 14.3055 23.6047 14.3201 23.5447 14.3482C23.4846 14.3763 23.4301 14.4173 23.3844 14.4688L23.157 14.7211C22.864 15.0471 22.6994 15.4889 22.6994 15.9494C22.6994 16.41 22.864 16.8517 23.1571 17.1778Z" fill="#EFB443"/>
<path d="M27.5551 19.098C27.6464 18.9949 27.6974 18.856 27.6968 18.7114C27.6963 18.5668 27.6443 18.4283 27.5521 18.326C27.46 18.2238 27.3352 18.1661 27.205 18.1655C27.0747 18.165 26.9495 18.2215 26.8566 18.323L26.6294 18.5752C26.3359 18.901 26.171 19.3428 26.1711 19.8035C26.1711 20.2642 26.3359 20.706 26.6294 21.0318C26.9229 21.3575 27.321 21.5405 27.736 21.5405C28.1511 21.5405 28.5491 21.3575 28.8426 21.0317L29.0698 20.7796C29.1163 20.7289 29.1533 20.6684 29.1786 20.6017C29.2039 20.5351 29.2171 20.4635 29.2174 20.3911C29.2176 20.3188 29.205 20.2471 29.1802 20.1802C29.1554 20.1132 29.1189 20.0524 29.0728 20.0013C29.0267 19.9501 28.9719 19.9096 28.9117 19.882C28.8514 19.8545 28.7868 19.8404 28.7216 19.8407C28.6564 19.841 28.5919 19.8556 28.5319 19.8837C28.4718 19.9118 28.4173 19.9528 28.3716 20.0044L28.1443 20.2566C28.0907 20.3161 28.0271 20.3633 27.957 20.3955C27.887 20.4277 27.8119 20.4443 27.7361 20.4443C27.6603 20.4443 27.5852 20.4277 27.5151 20.3955C27.4451 20.3633 27.3814 20.3161 27.3278 20.2566C27.2742 20.1971 27.2317 20.1264 27.2027 20.0487C27.1736 19.9709 27.1587 19.8876 27.1587 19.8034C27.1587 19.7193 27.1736 19.6359 27.2027 19.5582C27.2317 19.4804 27.2742 19.4098 27.3278 19.3503L27.5551 19.098Z" fill="#EFB443"/>
<path d="M22.082 12.6877L21.0532 13.8296C21.0067 13.8804 20.9698 13.9408 20.9444 14.0075C20.9191 14.0742 20.9059 14.1458 20.9057 14.2181C20.9054 14.2905 20.918 14.3622 20.9429 14.4291C20.9677 14.496 21.0042 14.5568 21.0503 14.608C21.0964 14.6591 21.1511 14.6997 21.2114 14.7272C21.2717 14.7548 21.3363 14.7688 21.4014 14.7686C21.4666 14.7683 21.5311 14.7537 21.5912 14.7256C21.6513 14.6975 21.7057 14.6565 21.7515 14.6049L22.7803 13.4629C22.8271 13.4123 22.8645 13.3518 22.8901 13.285C22.9158 13.2182 22.9292 13.1465 22.9297 13.0739C22.9301 13.0013 22.9176 12.9293 22.8927 12.8621C22.8679 12.7949 22.8313 12.7339 22.7851 12.6825C22.7388 12.6312 22.6838 12.5906 22.6233 12.563C22.5628 12.5354 22.498 12.5215 22.4325 12.522C22.3671 12.5225 22.3025 12.5374 22.2423 12.5658C22.1821 12.5943 22.1276 12.6358 22.082 12.6878V12.6877Z" fill="#EFB443"/>
<path d="M26.0633 8.26831L23.3862 11.2398C23.2949 11.3429 23.2439 11.4818 23.2444 11.6265C23.2449 11.7711 23.2969 11.9096 23.3891 12.0118C23.4812 12.1141 23.606 12.1718 23.7362 12.1724C23.8665 12.1729 23.9917 12.1164 24.0846 12.015L26.7616 9.04302C26.8521 8.93976 26.9024 8.80109 26.9015 8.65701C26.9006 8.51292 26.8487 8.37501 26.7569 8.27312C26.6651 8.17123 26.5409 8.11355 26.4111 8.11256C26.2813 8.11158 26.1563 8.16736 26.0633 8.26785V8.26831Z" fill="#EFB443"/>
<path d="M34.2869 4.37425C34.3334 4.3235 34.3704 4.26303 34.3957 4.19635C34.421 4.12967 34.4342 4.05808 34.4344 3.98571C34.4347 3.91335 34.4221 3.84165 34.3972 3.77473C34.3724 3.70782 34.3359 3.64703 34.2898 3.59586C34.2437 3.54469 34.1889 3.50416 34.1287 3.4766C34.0684 3.44905 34.0038 3.43501 33.9386 3.43531C33.8734 3.4356 33.8089 3.45022 33.7489 3.47832C33.6888 3.50642 33.6343 3.54745 33.5886 3.59903L33.3614 3.85128C33.0679 4.17706 32.9031 4.61891 32.903 5.07964C32.903 5.54037 33.0679 5.98224 33.3614 6.30804C33.6548 6.63384 34.0529 6.81688 34.4679 6.81689C34.883 6.81691 35.281 6.6339 35.5745 6.30813L35.802 6.05597C35.8478 6.00507 35.8842 5.94465 35.9091 5.87814C35.9339 5.81164 35.9467 5.74036 35.9467 5.66837C35.9467 5.59638 35.9339 5.52509 35.9091 5.45857C35.8843 5.39206 35.848 5.33162 35.8021 5.28071C35.7563 5.22979 35.7018 5.1894 35.6419 5.16184C35.582 5.13428 35.5178 5.12009 35.4529 5.12007C35.3881 5.12006 35.3239 5.13423 35.264 5.16177C35.204 5.1893 35.1496 5.22967 35.1037 5.28057L34.8763 5.53291C34.8228 5.59306 34.7592 5.64086 34.689 5.67358C34.6188 5.7063 34.5434 5.72328 34.4673 5.72355C34.3912 5.72382 34.3157 5.70737 34.2453 5.67515C34.175 5.64293 34.111 5.59558 34.0572 5.53581C34.0033 5.47605 33.9607 5.40506 33.9317 5.32692C33.9027 5.24878 33.8878 5.16505 33.8881 5.08053C33.8883 4.99602 33.9037 4.91239 33.9331 4.83447C33.9626 4.75655 34.0057 4.68587 34.0599 4.6265L34.2869 4.37425Z" fill="#EFB443"/>
<path d="M12.0343 42.9561C13.2713 42.9583 14.4965 42.6894 15.6396 42.1646C16.7827 41.6399 17.8212 40.8696 18.6954 39.8982L20.6261 37.7551C21.3765 36.9241 22.3932 36.4574 23.4532 36.4574C24.5132 36.4574 25.5299 36.9241 26.2803 37.7551L28.911 40.6752C28.9569 40.7261 29.0113 40.7665 29.0712 40.794C29.1312 40.8216 29.1954 40.8358 29.2602 40.8358C29.3251 40.8358 29.3893 40.8216 29.4492 40.794C29.5091 40.7665 29.5636 40.7261 29.6094 40.6752C31.1255 38.9921 32.0548 36.7669 32.2324 34.395C32.4101 32.0231 31.8244 29.6581 30.5795 27.7202C29.3346 25.7824 27.5111 24.3972 25.4331 23.8107C23.355 23.2243 21.157 23.4746 19.2295 24.5172C20.1688 22.3776 20.3944 19.9376 19.8661 17.6309C19.3378 15.3241 18.0899 13.2999 16.3441 11.918C14.5984 10.5361 12.4677 9.88601 10.3309 10.0832C8.19405 10.2804 6.18938 11.3121 4.6731 12.995C4.5805 13.0978 4.52847 13.2372 4.52847 13.3825C4.52847 13.5279 4.5805 13.6673 4.6731 13.7701L7.30369 16.6903C8.05237 17.5232 8.47283 18.6518 8.47283 19.8284C8.47283 21.0051 8.05237 22.1337 7.30369 22.9666L5.37301 25.11C3.87796 26.774 2.93041 28.9477 2.68272 31.2816C2.43503 33.6156 2.90157 35.9742 4.00735 37.9783L0.641128 41.7149C0.230636 42.1705 1.54357e-05 42.7885 7.74819e-10 43.4328C-1.54341e-05 44.0772 0.230575 44.6952 0.641045 45.1509C1.05152 45.6065 1.60824 45.8625 2.18875 45.8625C2.76926 45.8626 3.32599 45.6066 3.73648 45.151L7.1027 41.4144C8.58657 42.4244 10.2936 42.958 12.0343 42.9561ZM6.07144 25.8851L8.0022 23.742C8.93585 22.7033 9.46019 21.2959 9.46019 19.8285C9.46019 18.3612 8.93585 16.9538 8.0022 15.9151L5.73119 13.3943C7.30348 11.851 9.35529 11.0477 11.4519 11.1548C13.5486 11.2618 15.5253 12.2707 16.9633 13.9677C18.4013 15.6647 19.1877 17.9166 19.1557 20.2461C19.1238 22.5756 18.2761 24.7998 16.7922 26.4474C16.7009 26.5505 16.6499 26.6895 16.6504 26.8341C16.651 26.9787 16.7029 27.1172 16.7951 27.2195C16.8872 27.3217 17.012 27.3794 17.1422 27.38C17.2725 27.3806 17.3977 27.324 17.4906 27.2226C18.9748 25.5751 20.9787 24.6339 23.0774 24.5983C25.1762 24.5627 27.205 25.4355 28.7339 27.0319C30.2629 28.6283 31.1718 30.8227 31.2681 33.1502C31.3644 35.4777 30.6406 37.7554 29.2499 39.5007L26.979 36.9799C26.0433 35.9435 24.7754 35.3614 23.4535 35.3614C22.1316 35.3614 20.8637 35.9435 19.9279 36.9799L17.9972 39.1229C16.4158 40.8784 14.2709 41.8646 12.0343 41.8646C9.79781 41.8646 7.6529 40.8784 6.07144 39.1229C4.48998 37.3674 3.60153 34.9865 3.60153 32.5039C3.60153 30.0213 4.48998 27.6404 6.07144 25.8849V25.8851ZM3.03797 44.3762C2.81272 44.6263 2.5072 44.7668 2.18863 44.7668C1.87006 44.7668 1.56454 44.6263 1.33927 44.3763C1.114 44.1262 0.987442 43.7871 0.987434 43.4335C0.987426 43.0799 1.11397 42.7407 1.33923 42.4907L4.57771 38.896C5.06974 39.6017 5.6405 40.2353 6.27629 40.7814L3.03797 44.3762Z" fill="#49A760"/>
<path d="M8.29016 37.208C8.35501 37.2081 8.41924 37.194 8.47916 37.1664C8.53908 37.1389 8.5935 37.0985 8.63929 37.0475L14.8107 30.1971C14.8578 30.1465 14.8955 30.086 14.9213 30.0191C14.9472 29.9523 14.9608 29.8803 14.9614 29.8076C14.962 29.7348 14.9495 29.6626 14.9247 29.5952C14.8998 29.5279 14.8632 29.4667 14.8168 29.4152C14.7704 29.3637 14.7153 29.323 14.6546 29.2955C14.5939 29.2679 14.5289 29.254 14.4633 29.2547C14.3977 29.2553 14.3329 29.2704 14.2727 29.2991C14.2124 29.3279 14.158 29.3696 14.1124 29.422L7.94094 36.2723C7.87189 36.349 7.82488 36.4466 7.80584 36.553C7.78679 36.6593 7.79658 36.7695 7.83396 36.8697C7.87133 36.9698 7.93462 37.0554 8.01583 37.1156C8.09703 37.1759 8.19249 37.208 8.29016 37.208Z" fill="#49A760"/>
</svg>
