<svg width="45" height="58" viewBox="0 0 45 58" fill="none" xmlns="http://www.w3.org/2000/svg">
<path d="M10.4678 48.065C7.3232 42.8092 5.42926 36.5757 5.40163 31.3903C5.38906 29.0314 5.9424 25.2464 7.53323 21.6979C8.69974 19.0959 10.826 15.7841 14.3882 14.5325C13.1703 14.0514 11.9144 14.0126 10.5904 14.4153C6.81266 15.5647 4.58331 19.01 3.37827 21.6979C1.78744 25.2464 1.2341 29.0313 1.24667 31.3903C1.2743 36.5757 3.16834 42.8092 6.31282 48.065C9.47246 53.3459 13.2724 56.4988 16.4779 56.4988C17.1316 56.4782 17.7753 56.3162 18.373 56.022C15.7355 54.9566 12.9104 52.1475 10.4678 48.065Z" fill="#F4E5D4"/>
<path d="M6.35266 34.5986C6.51507 34.5648 6.65874 34.4607 6.75208 34.3094C6.84542 34.158 6.8808 33.9717 6.85043 33.7914C6.16278 29.7206 6.65982 26.8661 7.19778 25.1883C7.77314 23.394 8.51699 22.5262 8.53558 22.5045C8.65063 22.3739 8.7145 22.1981 8.71327 22.0155C8.71204 21.8329 8.64581 21.6582 8.52902 21.5296C8.41224 21.401 8.25437 21.3288 8.08985 21.3289C7.92532 21.3289 7.76749 21.4012 7.65078 21.5299C7.50847 21.6883 4.18304 25.5079 5.62523 34.0465C5.64023 34.1358 5.67095 34.2209 5.71563 34.2971C5.7603 34.3732 5.81806 34.4388 5.8856 34.4901C5.95313 34.5414 6.02912 34.5774 6.10921 34.5961C6.1893 34.6148 6.27192 34.6157 6.35235 34.5989L6.35266 34.5986Z" fill="#EFB443"/>
<path d="M6.81773 37.9119C6.86251 37.9118 6.90715 37.9064 6.9509 37.8958C7.1124 37.8568 7.25332 37.7482 7.34265 37.5938C7.43199 37.4394 7.46242 37.252 7.42726 37.0728L7.1522 35.6701C7.13479 35.5813 7.1018 35.4973 7.05511 35.4226C7.00841 35.348 6.94894 35.2843 6.88007 35.2352C6.81121 35.1861 6.7343 35.1526 6.65375 35.1365C6.5732 35.1203 6.49058 35.122 6.4106 35.1413C6.33063 35.1607 6.25486 35.1973 6.18764 35.2491C6.12041 35.3009 6.06304 35.3669 6.0188 35.4434C5.97457 35.5198 5.94432 35.6052 5.92981 35.6946C5.91529 35.784 5.91678 35.8757 5.93419 35.9645L6.20935 37.3671C6.23956 37.5213 6.31637 37.6594 6.42703 37.7585C6.53769 37.8576 6.67555 37.9117 6.81773 37.9119Z" fill="#EFB443"/>
<path d="M38.3656 8.29646C38.2871 8.13958 38.1794 8.00295 38.0499 7.89553C37.9203 7.78812 37.7717 7.71236 37.6139 7.67324L36.1465 7.30807C34.1625 6.81411 32.214 6.86992 30.5126 7.46812C29.9398 7.66873 29.3883 7.93765 28.8677 8.27017C29.8441 6.01552 30.5435 3.97464 30.4797 2.4057C30.4258 1.05676 29.4614 2.3318e-07 28.286 2.3318e-07C27.7057 -0.000281437 27.1489 0.254629 26.7375 0.708947C26.3261 1.16326 26.0936 1.77999 26.0908 2.42415C26.0566 4.51115 24.528 7.8575 23.0498 11.0938C22.6101 12.0566 22.1773 13.0041 21.7832 13.9172C21.5487 11.1657 20.562 8.55964 18.9554 6.44825C17.3489 4.33687 15.1993 2.82111 12.7947 2.10418L10.9562 1.5558C10.6334 1.45968 10.2895 1.50838 9.99876 1.69139C9.98515 1.69969 9.97185 1.7088 9.95866 1.71826C9.94235 1.72979 9.92532 1.73913 9.90942 1.75112C9.75776 1.86514 9.63002 2.0141 9.53491 2.18787C9.4398 2.36164 9.37955 2.55612 9.35827 2.75807L9.13639 4.8566C8.84773 7.58665 9.54888 11.2906 10.8413 13.8632C10.8808 13.9433 10.9342 14.0139 10.9984 14.0709C11.0626 14.128 11.1363 14.1704 11.2153 14.1956C11.2943 14.2209 11.3771 14.2286 11.4588 14.2182C11.5405 14.2078 11.6195 14.1796 11.6914 14.1351C11.7632 14.0907 11.8264 14.0309 11.8773 13.9592C11.9282 13.8875 11.9659 13.8054 11.988 13.7175C12.0102 13.6296 12.0165 13.5376 12.0065 13.447C11.9966 13.3564 11.9706 13.2689 11.93 13.1895C10.7531 10.8466 10.1134 7.48633 10.3744 5.01779L10.5018 3.81183L14.4961 10.0304C14.5921 10.1798 14.7376 10.2808 14.9006 10.3111C15.0636 10.3414 15.2308 10.2986 15.3654 10.1921C15.5 10.0855 15.591 9.92401 15.6183 9.74305C15.6456 9.56208 15.607 9.37648 15.511 9.22708L11.6336 3.19057L12.4713 3.44044C15.0102 4.19781 17.2195 5.94242 18.6968 8.35643C20.174 10.7704 20.8208 13.6932 20.5194 16.5922L20.2101 18.4201C20.1616 18.6538 20.1233 18.8801 20.0952 19.099L20.094 19.1061C20.0902 19.1285 20.0875 19.1509 20.0858 19.1733C20.0591 19.3954 20.0452 19.6192 20.0442 19.8433C20.0442 20.0268 20.1099 20.2028 20.2268 20.3325C20.3436 20.4623 20.5022 20.5352 20.6675 20.5352C20.8328 20.5352 20.9913 20.4623 21.1082 20.3325C21.225 20.2028 21.2907 20.0268 21.2907 19.8433C21.2918 19.6751 21.3025 19.5071 21.3227 19.3404L21.437 18.6664C21.8404 16.8016 23.0167 14.2262 24.1615 11.7199C25.7033 8.34443 27.2975 4.85395 27.337 2.44952C27.3361 2.16867 27.4354 1.89886 27.6133 1.69911C27.7911 1.49936 28.033 1.38593 28.286 1.38365C28.8022 1.38365 29.2105 1.84982 29.2353 2.4675C29.3144 4.42087 27.7379 7.77148 26.2134 11.0115L25.9508 11.5701C24.4887 14.6833 23.1734 17.5927 23.1734 19.6172C23.1734 19.8007 23.2391 19.9767 23.356 20.1064C23.4729 20.2362 23.6314 20.309 23.7967 20.309C23.962 20.309 24.1205 20.2362 24.2374 20.1064C24.3543 19.9767 24.4199 19.8007 24.4199 19.6172C24.4199 17.8407 25.8461 14.7813 27.2491 11.7996C28.9982 8.91702 32.1977 7.7445 35.8737 8.65932L37.2192 8.9937L36.7434 10.3702C36.3033 11.6492 35.6052 12.7994 34.7027 13.7327C34.643 13.7948 34.5948 13.8693 34.561 13.9521C34.5272 14.0348 34.5084 14.1241 34.5056 14.2149C34.5029 14.3058 34.5164 14.3963 34.5452 14.4813C34.574 14.5664 34.6176 14.6443 34.6735 14.7106C34.7294 14.777 34.7966 14.8305 34.8711 14.868C34.9457 14.9055 35.0261 14.9264 35.1079 14.9294C35.1897 14.9324 35.2713 14.9175 35.3479 14.8856C35.4245 14.8536 35.4947 14.8052 35.5545 14.7431C36.5951 13.6667 37.3999 12.3402 37.9072 10.8651L38.4329 9.34423C38.4914 9.17476 38.5157 8.9931 38.5041 8.81206C38.4925 8.63101 38.4452 8.45501 38.3656 8.29646Z" fill="#49A760"/>
<path d="M16.478 57.8826C18.064 57.8826 19.5754 56.9986 20.8447 56.134C21.2637 55.8486 22.7163 55.6694 23.4114 56.1363C24.384 56.7895 26.0118 57.8826 27.7747 57.8826C29.396 57.8826 31.2915 56.9676 33.256 55.2366C35.0614 53.6454 36.8883 51.4132 38.5393 48.7802C42.1167 43.0748 44.2524 36.5755 44.2524 31.3947C44.2524 23.8328 41.0798 15.2376 33.9917 13.0812C29.3044 11.6552 26.4019 15.3458 24.4814 17.7879C24.1404 18.2215 23.8183 18.631 23.532 18.9525C23.1518 19.3791 22.5118 19.6104 21.8621 19.5559C21.3746 19.5154 20.9704 19.3192 20.781 19.0313L20.7543 18.9907C19.9544 17.7751 18.7467 15.9383 17.0391 14.5597C14.9259 12.8532 12.6452 12.3564 10.2608 13.0817C6.91876 14.0984 4.15301 16.8649 2.2625 21.0822C0.574025 24.8481 -0.0131762 28.8805 0.000223527 31.3987C0.0293083 36.8428 2.00094 43.3594 5.27443 48.8307C8.7161 54.5833 12.7998 57.8826 16.478 57.8826ZM3.37831 21.6982C4.58326 19.0103 6.81271 15.565 10.5904 14.4156C12.6196 13.7983 14.4892 14.2113 16.3061 15.6782C17.8554 16.929 18.9941 18.6604 19.7476 19.8061L19.7744 19.8468C20.1823 20.4669 20.9094 20.8637 21.7688 20.9351C22.7879 21.0205 23.7782 20.6426 24.4176 19.9254C24.7314 19.5736 25.066 19.1482 25.4202 18.6978C27.238 16.3857 29.7288 13.2191 33.662 14.4156C41.0378 16.6596 43.0057 26.1442 43.0057 31.3947C43.0057 36.3037 40.9534 42.5075 37.5159 47.9897C34.2751 53.1589 30.451 56.4992 27.7744 56.4992C26.3592 56.4992 24.9179 55.5306 24.0563 54.9526C23.5429 54.6078 22.8564 54.4683 22.1877 54.4683C21.3879 54.4683 20.6135 54.6681 20.1924 54.9549C19.0723 55.7183 17.7539 56.4989 16.478 56.4989C13.2725 56.4989 9.47251 53.3462 6.31286 48.0652C3.16828 42.8094 1.27434 36.576 1.24671 31.3905C1.23414 29.0316 1.78769 25.2467 3.37831 21.6982Z" fill="#EFB443"/>
</svg>
