<svg width="40" height="64" viewBox="0 0 40 64" fill="none" xmlns="http://www.w3.org/2000/svg">
<path d="M17.8214 5.93188C17.8214 8.66048 15.8264 10.875 13.3683 10.875C10.9004 10.875 0.888855 8.66048 0.888855 5.93188C0.888855 3.20329 10.8995 0.98877 13.3683 0.98877C15.8264 0.98877 17.8214 3.20329 17.8214 5.93188Z" fill="#49A760"/>
<path d="M38.2952 44.4881H38.3058C38.3058 54.3149 31.1265 62.2832 22.2746 62.2832C13.4209 62.2832 6.24335 54.3149 6.24335 44.4881C6.24335 31.636 14.6134 29.1941 16.0402 16.8067C16.4312 13.4553 19.0755 10.875 22.2746 10.875C25.4613 10.875 28.1073 13.4553 28.509 16.8067C29.9251 29.1941 38.2952 31.636 38.2952 44.4881Z" fill="#EFB443"/>
<path d="M38.2951 44.4881C38.2951 31.636 29.925 29.1941 28.5089 16.8067C28.1073 13.4553 25.4612 10.875 22.2746 10.875C21.6538 10.875 21.0553 10.9749 20.488 11.1558C22.8365 11.9081 24.6196 14.1048 24.9429 16.8067C26.359 29.1941 34.729 31.636 34.729 44.4881H34.7397C34.7397 53.6456 28.5036 61.1819 20.4915 62.1675C21.0776 62.2387 21.6707 62.2832 22.2746 62.2832C31.1265 62.2832 38.3058 54.3149 38.3058 44.4881H38.2951Z" fill="#D59F38"/>
<path d="M22.2728 63.2717C12.9417 63.2717 5.35089 54.8458 5.35089 44.4881C5.35089 43.9414 5.749 43.4995 6.24152 43.4995C6.73403 43.4995 7.13214 43.9414 7.13214 44.4881C7.13214 53.7554 13.924 61.2945 22.2728 61.2945C30.6215 61.2945 37.4134 53.7554 37.4134 44.4881C37.4134 43.9414 37.8115 43.4995 38.304 43.4995C38.7965 43.4995 39.1946 43.9414 39.1946 44.4881C39.1946 54.8458 31.603 63.2717 22.2728 63.2717Z" fill="black"/>
<path d="M16.0392 17.7952C16.0001 17.7952 15.9609 17.7922 15.9208 17.7863C15.4336 17.7151 15.0907 17.2178 15.1557 16.6761C15.618 12.8056 18.6782 9.88623 22.2728 9.88623C22.7653 9.88623 23.1634 10.3281 23.1634 10.8748C23.1634 11.4216 22.7653 11.8635 22.2728 11.8635C19.5679 11.8635 17.2674 14.0444 16.921 16.937C16.8622 17.4343 16.4792 17.7952 16.0392 17.7952Z" fill="black"/>
<path d="M6.24335 45.4785C5.75083 45.4785 5.35272 45.0366 5.35272 44.4899C5.35272 37.3669 7.8625 33.2275 10.2912 29.2256C12.3682 25.802 14.5155 22.2608 15.1549 16.682C15.2173 16.1412 15.659 15.7646 16.1506 15.8259C16.6387 15.8951 16.9843 16.3894 16.9219 16.9311C16.229 22.9756 13.9615 26.7145 11.7679 30.3299C9.38458 34.2597 7.13397 37.9709 7.13397 44.4899C7.13397 45.0366 6.73586 45.4785 6.24335 45.4785Z" fill="black"/>
<path d="M28.5063 17.7952C28.0663 17.7952 27.6833 17.4343 27.6245 16.937C27.2781 14.0444 24.9776 11.8635 22.2728 11.8635C21.7803 11.8635 21.3822 11.4216 21.3822 10.8748C21.3822 10.3281 21.7803 9.88623 22.2728 9.88623C25.8674 9.88623 28.9275 12.8056 29.3897 16.6761C29.4539 17.2178 29.111 17.7151 28.6247 17.7863C28.5846 17.7922 28.5454 17.7952 28.5063 17.7952Z" fill="black"/>
<path d="M38.3021 45.4785C37.8096 45.4785 37.4115 45.0366 37.4115 44.4899C37.4115 37.9699 35.1609 34.2587 32.7776 30.3299C30.584 26.7145 28.3165 22.9765 27.6235 16.9311C27.5621 16.3893 27.9068 15.895 28.3948 15.8258C28.8864 15.7635 29.3291 16.1412 29.3905 16.682C30.03 22.2607 32.1773 25.802 34.2542 29.2256C36.683 33.2285 39.1927 37.3669 39.1927 44.4899C39.1927 45.0366 38.7946 45.4785 38.3021 45.4785Z" fill="black"/>
<path d="M22.2728 11.8677C21.7803 11.8677 21.3822 11.4258 21.3822 10.879V0.988643C21.3822 0.441924 21.7803 0 22.2728 0C22.7653 0 23.1635 0.441924 23.1635 0.988643V10.879C23.1635 11.4258 22.7653 11.8677 22.2728 11.8677Z" fill="black"/>
<path d="M13.3674 11.8635C11.8186 11.8635 0 9.9624 0 5.93176C0 1.90113 11.8186 0 13.3674 0C16.3145 0 18.7111 2.6604 18.7111 5.93176C18.7111 9.20313 16.3136 11.8635 13.3674 11.8635ZM13.3674 1.97725C9.90463 1.97725 1.78125 4.53088 1.78125 5.93176C1.78125 7.33265 9.90463 9.88627 13.3674 9.88627C15.3321 9.88627 16.9299 8.11267 16.9299 5.93176C16.9299 3.75085 15.3321 1.97725 13.3674 1.97725Z" fill="black"/>
<path d="M22.2728 6.92212H8.91339C8.42088 6.92212 8.02277 6.48019 8.02277 5.93347C8.02277 5.38675 8.42088 4.94482 8.91339 4.94482H22.2728C22.7653 4.94482 23.1634 5.38675 23.1634 5.93347C23.1634 6.48019 22.7653 6.92212 22.2728 6.92212Z" fill="black"/>
</svg>
