<svg width="37" height="66" viewBox="0 0 37 66" fill="none" xmlns="http://www.w3.org/2000/svg">
<path d="M24.7936 24.167C24.248 23.9924 23.693 23.859 23.1196 23.7768V23.7666V23.6228V23.5715V19.1468C23.9973 17.1449 25.441 15.5023 27.2251 14.4962C28.4829 13.7673 29.9257 13.3567 31.4434 13.3567H36.0769C30.9624 13.3567 26.8191 17.9467 26.8191 23.6228V25.019C26.1717 24.67 25.4956 24.3928 24.7936 24.167Z" fill="#49A760"/>
<path d="M27.226 14.4966C25.441 15.5027 23.9982 17.1453 23.1205 19.1472V17.4635V12.9875C23.9982 10.9855 25.4327 9.34293 27.2177 8.32657C28.4838 7.59766 29.9173 7.18701 31.4434 7.18701H36.0769C31.8873 7.18701 28.3636 10.2669 27.2167 14.4863L27.226 14.4966Z" fill="#83B246"/>
<path d="M23.1196 11.2932C23.1196 10.1228 22.9809 8.9833 22.7126 7.90536C23.9705 3.89133 27.4017 1.0271 31.4433 1.0271H36.0768C31.8872 1.0271 28.3635 4.09665 27.2167 8.32627C25.4317 9.34261 23.9982 10.9852 23.1196 12.9871V11.2932Z" fill="#49A760"/>
<path d="M14.7774 23.6641C14.4722 23.6857 14.167 23.7268 13.872 23.7678V23.6231C13.872 19.4241 15.6847 15.7077 18.4963 13.368V13.3567C21.2977 15.6882 23.1012 19.3933 23.1206 23.5717V23.6231V23.7678C22.8246 23.7268 22.5194 23.6857 22.2142 23.6641C21.8998 23.6344 21.5853 23.6231 21.2709 23.6231H15.7217C15.4054 23.6231 15.0909 23.6344 14.7774 23.6641Z" fill="#A0D468"/>
<path d="M13.8711 11.2934C13.8711 10.123 14.0089 8.98347 14.2771 7.90551C14.9615 5.12335 16.469 2.72104 18.4954 1.03737V1.0271C20.5199 2.71077 22.0274 5.12335 22.7127 7.90551C22.9809 8.98347 23.1197 10.123 23.1197 11.2934V12.9873V17.4624C23.1197 13.2532 21.306 9.52759 18.4954 7.19611C15.7301 9.49576 13.9266 13.1516 13.8711 17.2684V12.9668V11.2934Z" fill="#A0D468"/>
<path d="M13.8711 17.2682C13.9266 13.1515 15.7301 9.49671 18.4954 7.19604C21.306 9.52751 23.1197 13.2531 23.1197 17.4623V19.147V23.5717C23.1002 19.3934 21.2968 15.6872 18.4954 13.3568V13.3681C15.6838 15.7078 13.8711 19.4242 13.8711 23.623V19.1264V17.4633V17.2682Z" fill="#49A760"/>
<path d="M9.78229 8.32628C8.63639 4.09666 5.10343 1.0271 0.923065 1.0271H5.54736C9.58807 1.0271 13.0193 3.89134 14.2771 7.90537C14.0089 8.98331 13.8711 10.1228 13.8711 11.2932V12.9666C12.9925 10.9749 11.5589 9.34365 9.78229 8.32628Z" fill="#49A760"/>
<path d="M9.78229 14.4861C8.63639 10.2668 5.10343 7.18701 0.923065 7.18701H5.54736C7.07245 7.18701 8.51616 7.59765 9.78229 8.32653C11.5589 9.34285 12.9925 10.9751 13.8711 12.9667V17.2681V17.4622V19.1252C12.9925 17.1347 11.5488 15.5024 9.77304 14.4953L9.78229 14.4861Z" fill="#83B246"/>
<path d="M10.1717 23.6228C10.1717 17.9467 6.03661 13.3567 0.923065 13.3567H5.54736C7.07245 13.3567 8.50598 13.7673 9.77304 14.4962C11.5488 15.5023 12.9916 17.1346 13.8711 19.1262V23.6228V23.7676V23.7778C13.2977 23.8599 12.7418 23.9934 12.2054 24.1679C11.5025 24.3835 10.8283 24.671 10.1717 25.02V23.6228Z" fill="#49A760"/>
<path d="M34.181 36.9693C34.181 36.9693 34.181 36.9693 34.181 36.959C33.9766 33.8483 32.8668 30.9943 31.1382 28.7357C29.9627 27.1855 28.4931 25.9022 26.8191 25.0193C26.1717 24.6703 25.4957 24.3931 24.7937 24.1672C24.248 23.9927 23.6931 23.8592 23.1197 23.7771V23.7668C22.8237 23.7258 22.5185 23.6847 22.2133 23.6631C21.8989 23.6334 21.5844 23.6221 21.27 23.6221H15.7208C15.4054 23.6221 15.091 23.6334 14.7765 23.6631C14.4713 23.6847 14.1661 23.7258 13.8711 23.7668V23.7771C13.2977 23.8592 12.7418 23.9927 12.2054 24.1672C11.5025 24.3828 10.8283 24.6703 10.1717 25.0193C8.49675 25.9022 7.02715 27.1855 5.85165 28.7357C4.12309 30.9943 3.01326 33.8473 2.80887 36.959V36.9693C2.78205 37.3081 2.7728 37.6468 2.7728 37.9959V48.5496L2.79962 48.5804L2.7728 48.6112V50.3052C2.7728 53.1284 3.51268 55.7576 4.78899 57.9844C6.13928 60.3353 8.08149 62.2243 10.3844 63.3947C12.0121 64.216 13.8249 64.678 15.7217 64.678H17.3033H19.6885H21.2709C23.1669 64.678 24.9796 64.216 26.6073 63.3947C28.9102 62.2243 30.8617 60.3251 32.2027 57.9638C33.479 55.7463 34.2198 53.1181 34.2198 50.3052V48.5804V37.9959C34.218 37.6468 34.2078 37.3081 34.181 36.9693Z" fill="#EFB443"/>
<path d="M34.181 36.9693C34.181 36.9693 34.181 36.9693 34.181 36.959C33.9766 33.8483 32.8668 30.9943 31.1382 28.7357C29.9627 27.1855 28.4931 25.9022 26.8191 25.0193C26.1717 24.6703 25.4957 24.3931 24.7937 24.1672C24.248 23.9927 23.6931 23.8592 23.1197 23.7771V23.7668C22.8237 23.7258 22.5185 23.6847 22.2133 23.6631C21.8989 23.6334 21.5844 23.6221 21.27 23.6221H17.5668C17.8813 23.6221 18.1957 23.6334 18.5102 23.6631C18.8154 23.6847 19.1206 23.7258 19.4166 23.7668V23.7771C19.9891 23.8592 20.5449 23.9927 21.0906 24.1672C21.7935 24.3931 22.4686 24.6703 23.116 25.0193C24.79 25.9022 26.2596 27.1855 27.4351 28.7357C29.1637 30.9943 30.2735 33.8473 30.4779 36.959V36.9693C30.5047 37.3081 30.5149 37.6468 30.5149 37.9959V48.5804V50.3052C30.5149 53.1181 29.7741 55.7463 28.4978 57.9638C27.1567 60.3251 25.2053 62.2243 22.9024 63.3947C21.2746 64.216 19.4619 64.678 17.5659 64.678H19.6866H21.2691C23.165 64.678 24.9777 64.216 26.6055 63.3947C28.9084 62.2243 30.8599 60.3251 32.2009 57.9638C33.4772 55.7463 34.218 53.1181 34.218 50.3052V48.5804V37.9959C34.218 37.6468 34.2078 37.3081 34.181 36.9693Z" fill="#D59F38"/>
<path d="M21.2709 65.7041H15.7217C8.07222 65.7041 1.84885 58.796 1.84885 50.3048V37.9987C1.84885 29.5075 8.07222 22.5994 15.7217 22.5994H21.2709C28.9204 22.5994 35.1437 29.5075 35.1437 37.9987V50.3048C35.1437 58.796 28.9213 65.7041 21.2709 65.7041ZM15.7217 24.6526C9.09233 24.6526 3.69856 30.6399 3.69856 37.9987V50.3048C3.69856 57.6636 9.09233 63.6509 15.7217 63.6509H21.2709C27.9002 63.6509 33.294 57.6636 33.294 50.3048V37.9987C33.294 30.6399 27.9002 24.6526 21.2709 24.6526H15.7217Z" fill="black"/>
<path d="M26.8256 24.6526C26.3141 24.6526 25.9007 24.1937 25.9007 23.626C25.9007 17.3986 30.4649 12.3323 36.0751 12.3323C36.5865 12.3323 36.9999 12.7912 36.9999 13.3589C36.9999 13.9266 36.5865 14.3855 36.0751 14.3855C31.485 14.3855 27.7504 18.5309 27.7504 23.626C27.7504 24.1927 27.337 24.6526 26.8256 24.6526Z" fill="black"/>
<path d="M23.1205 20.1738C22.9855 20.1738 22.8477 20.141 22.7173 20.0701C22.2576 19.8237 22.0662 19.2088 22.2891 18.6985C24.0038 14.7716 27.5145 12.3313 31.4489 12.3313C31.9603 12.3313 32.3737 12.7902 32.3737 13.3579C32.3737 13.9257 31.9603 14.3846 31.4489 14.3846C28.2294 14.3846 25.3568 16.3804 23.9529 19.5948C23.7938 19.9613 23.4636 20.1738 23.1205 20.1738Z" fill="black"/>
<path d="M36.0751 14.3853H31.4499C30.9384 14.3853 30.525 13.9264 30.525 13.3588C30.525 12.7911 30.9384 12.3323 31.4499 12.3323H36.0751C36.5866 12.3323 37 12.7911 37 13.3588C37 13.9264 36.5866 14.3853 36.0751 14.3853Z" fill="black"/>
<path d="M27.2167 15.5181C27.1289 15.5181 27.0392 15.5037 26.9504 15.4749C26.4611 15.3107 26.1837 14.7378 26.3307 14.1957C27.6338 9.39201 31.5506 6.16626 36.075 6.16626C36.5865 6.16626 36.9999 6.62517 36.9999 7.19292C36.9999 7.76066 36.5865 8.21957 36.075 8.21957C32.3719 8.21957 29.1682 10.8591 28.1027 14.7871C27.9816 15.2316 27.6135 15.5181 27.2167 15.5181Z" fill="black"/>
<path d="M23.1196 14.0105C22.9846 14.0105 22.8468 13.9776 22.7164 13.9068C22.2567 13.6604 22.0653 13.0455 22.2882 12.5352C24.0028 8.60635 27.5136 6.16504 31.4489 6.16504C31.9603 6.16504 32.3737 6.62394 32.3737 7.19166C32.3737 7.75939 31.9603 8.21829 31.4489 8.21829C28.2285 8.21829 25.3559 10.2151 23.952 13.4315C23.7938 13.798 23.4627 14.0105 23.1196 14.0105Z" fill="black"/>
<path d="M36.0751 8.21948H31.4499C30.9384 8.21948 30.525 7.76059 30.525 7.19287C30.525 6.62516 30.9384 6.16626 31.4499 6.16626H36.0751C36.5866 6.16626 37 6.62516 37 7.19287C37 7.76059 36.5866 8.21948 36.0751 8.21948Z" fill="black"/>
<path d="M27.2167 9.35181C27.1289 9.35181 27.0392 9.33743 26.9504 9.30869C26.4611 9.14442 26.1837 8.57155 26.3307 8.02947C27.6338 3.22678 31.5497 0 36.075 0C36.5865 0 36.9999 0.458915 36.9999 1.02666C36.9999 1.5944 36.5865 2.05331 36.075 2.05331C32.3719 2.05331 29.1682 4.69284 28.1027 8.62083C27.9816 9.06537 27.6135 9.35181 27.2167 9.35181Z" fill="black"/>
<path d="M22.7164 8.92993C22.6156 8.92993 22.512 8.91145 22.4121 8.87244C21.9303 8.68559 21.675 8.10039 21.8433 7.56549C23.2648 3.03995 27.1252 0 31.4498 0C31.9613 0 32.3747 0.458919 32.3747 1.02666C32.3747 1.59441 31.9613 2.05333 31.4498 2.05333C27.9113 2.05333 24.7529 4.53991 23.5895 8.24104C23.4563 8.66505 23.0984 8.92993 22.7164 8.92993Z" fill="black"/>
<path d="M36.0751 2.05347H31.4499C30.9384 2.05347 30.525 1.59452 30.525 1.02673C30.525 0.45895 30.9384 0 31.4499 0H36.0751C36.5866 0 37 0.45895 37 1.02673C37 1.59452 36.5866 2.05347 36.0751 2.05347Z" fill="black"/>
<path d="M10.1744 24.6526C9.66294 24.6526 9.24952 24.1937 9.24952 23.626C9.24952 18.5309 5.51494 14.3855 0.92486 14.3855C0.413412 14.3855 0 13.9266 0 13.3589C0 12.7912 0.413412 12.3323 0.92486 12.3323C6.53506 12.3323 11.0992 17.3986 11.0992 23.626C11.0992 24.1927 10.6858 24.6526 10.1744 24.6526Z" fill="black"/>
<path d="M13.8794 20.1736C13.5362 20.1736 13.2061 19.9611 13.047 19.5956C11.6421 16.3813 8.77045 14.3855 5.55102 14.3855C5.03957 14.3855 4.62616 13.9266 4.62616 13.3589C4.62616 12.7912 5.03957 12.3323 5.55102 12.3323C9.48536 12.3323 12.9961 14.7725 14.7108 18.6994C14.9337 19.2096 14.7423 19.8245 14.2826 20.0709C14.1522 20.1407 14.0144 20.1736 13.8794 20.1736Z" fill="black"/>
<path d="M5.55009 14.3853H0.92486C0.413413 14.3853 0 13.9264 0 13.3588C0 12.7911 0.413413 12.3323 0.92486 12.3323H5.55009C6.06153 12.3323 6.47495 12.7911 6.47495 13.3588C6.47495 13.9264 6.06153 14.3853 5.55009 14.3853Z" fill="black"/>
<path d="M9.78315 15.5181C9.38546 15.5181 9.0183 15.2316 8.89714 14.7871C7.8317 10.8591 4.62799 8.21957 0.924858 8.21957C0.413412 8.21957 0 7.76066 0 7.19292C0 6.62517 0.413412 6.16626 0.924858 6.16626C5.45019 6.16626 9.36604 9.39304 10.6692 14.1957C10.8162 14.7378 10.5388 15.3107 10.0495 15.4749C9.96165 15.5047 9.87102 15.5181 9.78315 15.5181Z" fill="black"/>
<path d="M13.8803 14.0107C13.5372 14.0107 13.2061 13.7982 13.0479 13.4327C11.643 10.2163 8.77137 8.21952 5.55102 8.21952C5.03957 8.21952 4.62616 7.76062 4.62616 7.19289C4.62616 6.62516 5.03957 6.16626 5.55102 6.16626C9.48628 6.16626 12.997 8.60759 14.7117 12.5365C14.9346 13.0467 14.7432 13.6617 14.2835 13.9081C14.1531 13.9779 14.0153 14.0107 13.8803 14.0107Z" fill="black"/>
<path d="M5.55009 8.21948H0.92486C0.413413 8.21948 0 7.76059 0 7.19287C0 6.62516 0.413413 6.16626 0.92486 6.16626H5.55009C6.06153 6.16626 6.47495 6.62516 6.47495 7.19287C6.47495 7.76059 6.06153 8.21948 5.55009 8.21948Z" fill="black"/>
<path d="M9.78315 9.35156C9.38546 9.35156 9.0183 9.06513 8.89714 8.6206C7.8317 4.69272 4.62799 2.05326 0.924858 2.05326C0.413412 2.05326 0 1.59435 0 1.02663C0 0.458903 0.413412 0 0.924858 0C5.45019 0 9.36604 3.22669 10.6692 8.02926C10.8162 8.57132 10.5388 9.14418 10.0495 9.30844C9.96165 9.33822 9.87102 9.35156 9.78315 9.35156Z" fill="black"/>
<path d="M14.2835 8.92993C13.9016 8.92993 13.5427 8.66505 13.4105 8.24104C12.247 4.53991 9.08861 2.05333 5.5501 2.05333C5.03866 2.05333 4.62524 1.59441 4.62524 1.02666C4.62524 0.458919 5.03866 0 5.5501 0C9.87473 0 13.7351 3.03995 15.1575 7.56549C15.3258 8.10039 15.0706 8.68661 14.5887 8.87244C14.4879 8.91248 14.3853 8.92993 14.2835 8.92993Z" fill="black"/>
<path d="M5.55009 2.05322H0.92486C0.413413 2.05322 0 1.59433 0 1.02661C0 0.458895 0.413413 0 0.92486 0H5.55009C6.06153 0 6.47495 0.458895 6.47495 1.02661C6.47495 1.59433 6.06153 2.05322 5.55009 2.05322Z" fill="black"/>
<path d="M23.1232 24.6526C22.6118 24.6526 22.1984 24.1937 22.1984 23.626C22.1984 19.8757 20.6465 16.4323 17.9403 14.1809C17.5315 13.8411 17.4483 13.1974 17.7554 12.7446C18.0615 12.2898 18.6414 12.1995 19.0492 12.5393C22.2261 15.1819 24.0472 19.2237 24.0472 23.627C24.0481 24.1927 23.6347 24.6526 23.1232 24.6526Z" fill="black"/>
<path d="M13.8747 24.6526C13.3632 24.6526 12.9498 24.1937 12.9498 23.626C12.9498 19.2258 14.7709 15.187 17.9441 12.5465C18.3538 12.2057 18.9318 12.2981 19.238 12.7519C19.545 13.2046 19.4618 13.8483 19.053 14.1881C16.3496 16.4375 14.7986 19.8777 14.7986 23.6249C14.7995 24.1927 14.3861 24.6526 13.8747 24.6526Z" fill="black"/>
<path d="M23.1232 18.4868C22.6118 18.4868 22.1984 18.0279 22.1984 17.4602C22.1984 13.71 20.6465 10.2667 17.9403 8.01534C17.5315 7.67553 17.4483 7.03184 17.7554 6.5791C18.0615 6.12534 18.6414 6.03499 19.0492 6.37378C22.2261 9.01629 24.0472 13.0581 24.0472 17.4612C24.0481 18.0279 23.6347 18.4868 23.1232 18.4868Z" fill="black"/>
<path d="M13.8747 18.4868C13.3632 18.4868 12.9498 18.0279 12.9498 17.4602C12.9498 13.0601 14.7709 9.02145 17.9441 6.38101C18.3538 6.04017 18.9318 6.13256 19.238 6.58633C19.545 7.03906 19.4618 7.68275 19.053 8.02256C16.3496 10.2719 14.7986 13.712 14.7986 17.4592C14.7995 18.0279 14.3861 18.4868 13.8747 18.4868Z" fill="black"/>
<path d="M23.1232 12.321C22.6118 12.321 22.1984 11.8621 22.1984 11.2944C22.1984 7.5442 20.6465 4.10093 17.9403 1.84956C17.5315 1.50975 17.4483 0.866066 17.7554 0.413329C18.0615 -0.0404355 18.6414 -0.130778 19.0492 0.208005C22.2261 2.85051 24.0472 6.8923 24.0472 11.2955C24.0481 11.8621 23.6347 12.321 23.1232 12.321Z" fill="black"/>
<path d="M13.8747 12.321C13.3632 12.321 12.9498 11.8621 12.9498 11.2944C12.9498 6.89427 14.7709 2.85549 17.9441 0.214994C18.3538 -0.125848 18.9318 -0.0334514 19.238 0.42032C19.545 0.873065 19.4618 1.51676 19.053 1.85658C16.3496 4.10593 14.7986 7.54618 14.7986 11.2934C14.7995 11.8621 14.3861 12.321 13.8747 12.321Z" fill="black"/>
<path d="M23.1232 24.7991C22.6118 24.7991 22.1984 24.3402 22.1984 23.7725V11.2939C22.1984 10.7262 22.6118 10.2673 23.1232 10.2673C23.6347 10.2673 24.0481 10.7262 24.0481 11.2939V23.7725C24.0481 24.3402 23.6347 24.7991 23.1232 24.7991Z" fill="black"/>
<path d="M26.8256 26.0476C26.3141 26.0476 25.9007 25.5887 25.9007 25.021V23.6259C25.9007 23.0582 26.3141 22.5994 26.8256 22.5994C27.337 22.5994 27.7504 23.0582 27.7504 23.6259V25.021C27.7504 25.5887 27.337 26.0476 26.8256 26.0476Z" fill="black"/>
<path d="M10.1743 26.0476C9.66287 26.0476 9.24945 25.5887 9.24945 25.021V23.6259C9.24945 23.0582 9.66287 22.5994 10.1743 22.5994C10.6858 22.5994 11.0992 23.0582 11.0992 23.6259V25.021C11.0992 25.5887 10.6858 26.0476 10.1743 26.0476Z" fill="black"/>
<path d="M13.8747 24.7991C13.3632 24.7991 12.9498 24.3402 12.9498 23.7725V11.2939C12.9498 10.7262 13.3632 10.2673 13.8747 10.2673C14.3861 10.2673 14.7996 10.7262 14.7996 11.2939V23.7725C14.7996 24.3402 14.3861 24.7991 13.8747 24.7991Z" fill="black"/>
<path d="M2.80787 37.9824C2.57111 37.9824 2.33434 37.8818 2.154 37.6816C1.79238 37.2802 1.79238 36.6314 2.154 36.23L14.1272 22.9373C14.4888 22.5359 15.0733 22.5359 15.435 22.9373C15.7966 23.3387 15.7966 23.9875 15.435 24.3889L3.46175 37.6816C3.2814 37.8818 3.04463 37.9824 2.80787 37.9824Z" fill="black"/>
<path d="M2.77366 49.6357C2.5369 49.6357 2.30013 49.5351 2.11979 49.3349C1.75817 48.9335 1.75817 48.2847 2.11979 47.8833L24.1379 23.4424C24.4995 23.041 25.084 23.041 25.4456 23.4424C25.8073 23.8438 25.8073 24.4927 25.4456 24.8941L3.42754 49.3349C3.24719 49.5351 3.01043 49.6357 2.77366 49.6357Z" fill="black"/>
<path d="M4.79091 59.0105C4.55414 59.0105 4.31738 58.9099 4.13703 58.7097C3.77541 58.3083 3.77541 57.6595 4.13703 57.2581L30.4927 28.0034C30.8544 27.602 31.4389 27.602 31.8005 28.0034C32.1621 28.4049 32.1621 29.0537 31.8005 29.4551L5.44478 58.7107C5.26351 58.9109 5.02767 59.0105 4.79091 59.0105Z" fill="black"/>
<path d="M10.3843 64.418C10.1475 64.418 9.91073 64.3174 9.73038 64.1172C9.36876 63.7158 9.36876 63.0669 9.73038 62.6655L33.539 36.2371C33.9006 35.8357 34.4851 35.8357 34.8468 36.2371C35.2084 36.6385 35.2084 37.2873 34.8468 37.6887L11.0381 64.1172C10.8569 64.3174 10.6201 64.418 10.3843 64.418Z" fill="black"/>
<path d="M19.6884 65.7043C19.4517 65.7043 19.2149 65.6037 19.0346 65.4035C18.6729 65.0021 18.6729 64.3533 19.0346 63.9519L33.5391 47.8514C33.9007 47.4499 34.4852 47.4499 34.8468 47.8514C35.2084 48.2528 35.2084 48.9016 34.8468 49.303L20.3423 65.4035C20.162 65.6037 19.9252 65.7043 19.6884 65.7043Z" fill="black"/>
<path d="M34.1865 37.9832C33.9497 37.9832 33.713 37.8825 33.5326 37.6824L21.5613 24.394C21.1996 23.9926 21.1996 23.3438 21.5613 22.9424C21.9229 22.541 22.5074 22.541 22.869 22.9424L34.8404 36.2307C35.202 36.6321 35.202 37.281 34.8404 37.6824C34.66 37.8825 34.4232 37.9832 34.1865 37.9832Z" fill="black"/>
<path d="M34.1929 49.604C33.9562 49.604 33.7194 49.5034 33.5391 49.3032L11.5515 24.8982C11.1898 24.4968 11.1898 23.848 11.5515 23.4466C11.9131 23.0452 12.4976 23.0452 12.8592 23.4466L34.8468 47.8516C35.2084 48.253 35.2084 48.9018 34.8468 49.3032C34.6656 49.5044 34.4297 49.604 34.1929 49.604Z" fill="black"/>
<path d="M32.1508 58.9522C31.914 58.9522 31.6773 58.8515 31.4969 58.6514L5.193 29.4541C4.83138 29.0527 4.83138 28.4039 5.193 28.0025C5.55462 27.6011 6.13913 27.6011 6.50075 28.0025L32.8047 57.1997C33.1663 57.6011 33.1663 58.2499 32.8047 58.6514C32.6234 58.8515 32.3875 58.9522 32.1508 58.9522Z" fill="black"/>
<path d="M26.6675 64.4817C26.4307 64.4817 26.194 64.3811 26.0136 64.1809L2.14765 37.6887C1.78603 37.2873 1.78603 36.6385 2.14765 36.2371C2.50927 35.8357 3.09378 35.8357 3.4554 36.2371L27.3214 62.7292C27.683 63.1306 27.683 63.7795 27.3214 64.1809C27.141 64.3811 26.9043 64.4817 26.6675 64.4817Z" fill="black"/>
<path d="M17.3059 65.7041C17.0691 65.7041 16.8324 65.6035 16.652 65.4033L2.1225 49.2752C1.76088 48.8737 1.76088 48.2249 2.1225 47.8235C2.48412 47.4221 3.06863 47.4221 3.43025 47.8235L17.9598 63.9517C18.3214 64.3531 18.3214 65.0019 17.9598 65.4033C17.7794 65.6035 17.5427 65.7041 17.3059 65.7041Z" fill="black"/>
</svg>
