<svg width="41" height="72" viewBox="0 0 41 72" fill="none" xmlns="http://www.w3.org/2000/svg">
<path d="M18.0026 16.6493V32.189H15.0027V14.4404L18.0026 16.6493Z" fill="#49A760"/>
<path d="M22.0025 11.0992V32.1895H18.0026V16.6493V1.10913L22.0025 4.43917V11.0992Z" fill="#A0D468"/>
<path d="M25.0025 8.87915V32.1895H22.0025V11.0992L25.0025 8.87915Z" fill="#49A760"/>
<path d="M25.0025 32.1895C25.0025 33.4216 25.9024 34.4095 27.0024 34.4095C33.6323 34.4095 39.0022 40.3703 39.0022 47.7297C39.0022 58.619 31.5523 67.5879 22.0025 68.698C21.3425 68.7757 20.6825 68.8201 20.0025 68.8201C19.3226 68.8201 18.6526 68.7757 17.9926 68.698C8.43276 67.5879 1.0029 58.619 1.0029 47.7297C1.0029 40.3703 6.3728 34.4095 13.0027 34.4095C14.1027 34.4095 15.0026 33.4216 15.0026 32.1895H18.0026H22.0025H25.0025Z" fill="#EFB443"/>
<path d="M27.0024 34.4097V35.1845C31.6584 37.0149 34.9983 41.9311 34.9983 47.7298C34.9983 58.619 27.5484 67.588 17.9986 68.698H17.9956C18.6546 68.7757 19.3236 68.8201 20.0026 68.8201C20.6826 68.8201 21.3425 68.7757 22.0025 68.698C31.5524 67.588 39.0022 58.619 39.0022 47.7298C39.0022 40.3704 33.6323 34.4097 27.0024 34.4097Z" fill="#D59F38"/>
<path d="M20.0026 69.9297C8.97383 69.9297 0 59.9685 0 47.7262C0 47.1124 0.446992 46.6162 0.999981 46.6162C1.55297 46.6162 1.99996 47.1124 1.99996 47.7262C1.99996 58.7453 10.0758 67.7097 20.0026 67.7097C29.9294 67.7097 38.0053 58.7453 38.0053 47.7262C38.0053 47.1124 38.4523 46.6162 39.0053 46.6162C39.5583 46.6162 40.0052 47.1124 40.0052 47.7262C40.0052 59.9685 31.0314 69.9297 20.0026 69.9297Z" fill="black"/>
<path d="M39.0043 48.8406C38.4513 48.8406 38.0043 48.3444 38.0043 47.7306C38.0043 40.9974 33.0694 35.5195 27.0036 35.5195C26.4506 35.5195 26.0036 35.0234 26.0036 34.4096C26.0036 33.7957 26.4506 33.2996 27.0036 33.2996C34.1724 33.2996 40.0043 39.773 40.0043 47.7306C40.0043 48.3444 39.5573 48.8406 39.0043 48.8406Z" fill="black"/>
<path d="M27.0065 35.5217C25.3516 35.5217 24.0046 34.0265 24.0046 32.1894C24.0046 31.5755 24.4516 31.0793 25.0046 31.0793C25.5575 31.0793 26.0045 31.5755 26.0045 32.1894C26.0045 32.8032 26.4535 33.3016 27.0065 33.3016C27.5595 33.3016 28.0065 33.7978 28.0065 34.4117C28.0065 35.0255 27.5595 35.5217 27.0065 35.5217Z" fill="black"/>
<path d="M1.00404 48.8406C0.45105 48.8406 0.00405884 48.3444 0.00405884 47.7306C0.00405884 39.773 5.83595 33.2996 13.0048 33.2996C13.5578 33.2996 14.0048 33.7957 14.0048 34.4096C14.0048 35.0234 13.5578 35.5195 13.0048 35.5195C6.93893 35.5195 2.00402 40.9974 2.00402 47.7306C2.00402 48.3444 1.55703 48.8406 1.00404 48.8406Z" fill="black"/>
<path d="M13.0017 35.5217C12.4487 35.5217 12.0017 35.0255 12.0017 34.4117C12.0017 33.7978 12.4487 33.3016 13.0017 33.3016C13.5547 33.3016 14.0037 32.8032 14.0037 32.1894C14.0037 31.5755 14.4507 31.0793 15.0037 31.0793C15.5567 31.0793 16.0037 31.5755 16.0037 32.1894C16.0037 34.0265 14.6567 35.5217 13.0017 35.5217Z" fill="black"/>
<path d="M25.0046 33.2996H15.0038C14.4508 33.2996 14.0038 32.8033 14.0038 32.1895C14.0038 31.5756 14.4508 31.0793 15.0038 31.0793H25.0046C25.5576 31.0793 26.0045 31.5756 26.0045 32.1895C26.0045 32.8033 25.5576 33.2996 25.0046 33.2996Z" fill="black"/>
<path d="M18.0047 33.2996C17.4517 33.2996 17.0047 32.8034 17.0047 32.1895V1.11002C17.0047 0.49618 17.4517 0 18.0047 0C18.5577 0 19.0047 0.49618 19.0047 1.11002V32.1895C19.0047 32.8034 18.5577 33.2996 18.0047 33.2996Z" fill="black"/>
<path d="M22.0046 33.2996C21.4516 33.2996 21.0046 32.8034 21.0046 32.1895V4.44034C21.0046 3.8265 21.4516 3.33032 22.0046 3.33032C22.5576 3.33032 23.0046 3.8265 23.0046 4.44034V32.1895C23.0046 32.8034 22.5576 33.2996 22.0046 33.2996Z" fill="black"/>
<path d="M22.0036 5.5498C21.7946 5.5498 21.5846 5.47766 21.4046 5.32781L17.4046 1.99786C16.9627 1.63046 16.8727 0.9345 17.2046 0.444998C17.5356 -0.0467242 18.1626 -0.144403 18.6036 0.223001L22.6036 3.55295C23.0456 3.92035 23.1356 4.61631 22.8036 5.10581C22.6076 5.39663 22.3086 5.5498 22.0036 5.5498Z" fill="black"/>
<path d="M25.0046 33.2993C24.4516 33.2993 24.0046 32.8031 24.0046 32.1893V8.88102C24.0046 8.26718 24.4516 7.771 25.0046 7.771C25.5576 7.771 26.0045 8.26718 26.0045 8.88102V32.1893C26.0045 32.8031 25.5576 33.2993 25.0046 33.2993Z" fill="black"/>
<path d="M22.0056 12.2104C21.6826 12.2104 21.3646 12.0373 21.1726 11.7165C20.8656 11.2059 20.9906 10.5165 21.4496 10.1768L24.4496 7.95787C24.9096 7.61709 25.5306 7.75474 25.8366 8.26536C26.1436 8.77598 26.0186 9.46531 25.5596 9.80499L22.5596 12.024C22.3886 12.1494 22.1956 12.2104 22.0056 12.2104Z" fill="black"/>
<path d="M15.0047 33.2993C14.4518 33.2993 14.0048 32.8031 14.0048 32.1893V14.4367C14.0048 13.8228 14.4518 13.3267 15.0047 13.3267C15.5577 13.3267 16.0047 13.8228 16.0047 14.4367V32.1893C16.0047 32.8031 15.5577 33.2993 15.0047 33.2993Z" fill="black"/>
<path d="M18.0037 17.7656C17.8137 17.7656 17.6207 17.7046 17.4497 17.5791L14.4498 15.3603C13.9908 15.0206 13.8658 14.3313 14.1728 13.8207C14.4778 13.3102 15.0978 13.1725 15.5598 13.5133L18.5597 15.7321C19.0187 16.0718 19.1437 16.7611 18.8367 17.2717C18.6447 17.5925 18.3267 17.7656 18.0037 17.7656Z" fill="black"/>
<path d="M20.0025 71.0391C19.4496 71.0391 19.0026 70.5429 19.0026 69.929V68.82C19.0026 68.2062 19.4496 67.71 20.0025 67.71C20.5555 67.71 21.0025 68.2062 21.0025 68.82V69.929C21.0025 70.5429 20.5555 71.0391 20.0025 71.0391Z" fill="black"/>
<path d="M22.0046 71.0388C21.4516 71.0388 21.0046 70.5426 21.0046 69.9287V68.7031C21.0046 68.0892 21.4516 67.593 22.0046 67.593C22.5576 67.593 23.0046 68.0892 23.0046 68.7031V69.9287C23.0046 70.5426 22.5576 71.0388 22.0046 71.0388Z" fill="black"/>
<path d="M17.9956 71.0376C17.4426 71.0376 16.9956 70.5414 16.9956 69.9275V68.7031C16.9956 68.0892 17.4426 67.593 17.9956 67.593C18.5486 67.593 18.9956 68.0892 18.9956 68.7031V69.9275C18.9956 70.5414 18.5486 71.0376 17.9956 71.0376Z" fill="black"/>
</svg>
