<svg width="51" height="49" viewBox="0 0 51 49" fill="none" xmlns="http://www.w3.org/2000/svg">
<path d="M45.9785 21.0241L39.1281 19.8456V13.9731C39.1287 13.5188 39.0057 13.0748 38.7754 12.6993C38.5451 12.3238 38.218 12.0342 37.837 11.8683V11.3313C37.8373 10.8647 37.9471 10.4062 38.1555 10.0009C38.3639 9.59567 38.6638 9.25765 39.0257 9.02014L39.5421 8.68575C39.7147 8.574 39.8402 8.39073 39.891 8.17626C39.9419 7.96178 39.9139 7.73367 39.8132 7.54211C39.7634 7.44725 39.6972 7.36422 39.6184 7.29777C39.5397 7.23131 39.4499 7.18272 39.3542 7.15477C39.161 7.09833 38.9555 7.1294 38.783 7.24115L38.2665 7.57555C37.6778 7.96101 37.1897 8.51007 36.8502 9.16864C36.5108 9.82721 36.3318 10.5726 36.3308 11.3313V11.8683C35.9506 12.0354 35.6243 12.3254 35.3941 12.7006C35.164 13.0759 35.0405 13.5191 35.0397 13.9731V19.1424L29.2759 18.153L25.9721 4.38778C26.4207 4.20336 26.7967 3.84976 27.0343 3.38881C27.2719 2.92786 27.3559 2.38889 27.2718 1.86611C27.1876 1.34332 26.9406 0.870004 26.574 0.528889C26.2073 0.187773 25.7443 0.000568182 25.2659 0H4.06345C3.53212 0.000681502 3.02199 0.231408 2.64154 0.643115C2.26109 1.05482 2.04033 1.61503 2.0262 2.20461C2.01207 2.79419 2.2057 3.36664 2.5659 3.80021C2.9261 4.23378 3.42445 4.49428 3.955 4.52631V27.5095C2.24057 29.0092 0.996641 31.0716 0.400675 33.4025C0.133402 34.4324 -0.00148465 35.499 1.23239e-05 36.5707C-0.000898719 39.017 0.696166 41.4007 1.99122 43.3801C3.28628 45.3594 5.11279 46.8326 7.20877 47.5883C9.30475 48.3441 11.5625 48.3435 13.6582 47.5868C15.7539 46.8301 17.5799 45.3561 18.8742 43.3762H35.9994C36.3889 44.7614 37.1669 45.9723 38.22 46.8321C39.2732 47.6919 40.5463 48.1556 41.8536 48.1556C43.1609 48.1556 44.434 47.6919 45.4871 46.8321C46.5402 45.9723 47.3183 44.7614 47.7077 43.3762H50.2468C50.4466 43.3762 50.6381 43.2881 50.7794 43.1313C50.9206 42.9745 50.9999 42.7619 50.9999 42.5402V27.5162C51.0064 25.9446 50.5022 24.4231 49.5799 23.2306C48.6576 22.0382 47.379 21.2548 45.9785 21.0241ZM36.546 13.9731C36.5459 13.8556 36.5771 13.7407 36.6356 13.6429C36.6941 13.545 36.7773 13.4684 36.8748 13.4228C36.9723 13.3772 37.0798 13.3646 37.1837 13.3865C37.2877 13.4084 37.3835 13.4639 37.4592 13.546C37.5622 13.6588 37.6207 13.8124 37.6219 13.9731V19.5862L36.546 19.4013V13.9731ZM5.46125 18.0575V4.53826H11.6197V18.0575H5.46125ZM13.1259 4.53826H24.4503L27.6935 18.0575H13.1259V4.53826ZM3.5255 2.26913C3.52573 2.11084 3.58248 1.9591 3.68331 1.84717C3.78415 1.73524 3.92084 1.67224 4.06345 1.67199H25.2659C25.4085 1.67199 25.5454 1.7349 25.6462 1.84689C25.7471 1.95887 25.8038 2.11076 25.8038 2.26913C25.8038 2.4275 25.7471 2.57938 25.6462 2.69137C25.5454 2.80335 25.4085 2.86627 25.2659 2.86627H4.06345C3.99267 2.86621 3.92261 2.85065 3.85725 2.8205C3.7919 2.79035 3.73254 2.74619 3.68258 2.69055C3.63261 2.63491 3.59302 2.56889 3.56607 2.49625C3.53912 2.42361 3.52533 2.34578 3.5255 2.26722V2.26913ZM5.46125 19.7295H12.356C12.3616 19.7295 12.3672 19.7295 12.3728 19.7295C12.3784 19.7295 12.384 19.7295 12.3896 19.7295H28.6166L45.7492 22.6765C46.7927 22.8493 47.7453 23.4336 48.4325 24.3223C49.1197 25.2111 49.4955 26.3449 49.4911 27.5162V28.1807H47.6621C47.4623 28.1807 47.2708 28.2687 47.1296 28.4255C46.9883 28.5823 46.909 28.7949 46.909 29.0167C46.909 29.2384 46.9883 29.451 47.1296 29.6078C47.2708 29.7646 47.4623 29.8527 47.6621 29.8527H49.4911V38.8379H47.5472C47.0954 37.5703 46.3108 36.4828 45.2952 35.7164C44.2796 34.95 43.0799 34.5402 41.8518 34.5402C40.6238 34.5402 39.4241 34.95 38.4085 35.7164C37.3929 36.4828 36.6083 37.5703 36.1565 38.8379H20.6705C20.8047 38.0914 20.8723 37.332 20.8723 36.5707C20.8739 35.501 20.7396 34.4364 20.4734 33.4083C20.0485 31.7366 19.2898 30.1927 18.2536 28.8913C17.2173 27.5898 15.9302 26.5643 14.4879 25.8909C13.0455 25.2175 11.485 24.9135 9.92228 25.0015C8.35956 25.0895 6.83478 25.5673 5.46125 26.3993V19.7295ZM10.4362 46.4813C8.06895 46.4783 5.79944 45.4332 4.1254 43.5753C2.45136 41.7174 1.50945 39.1984 1.50626 36.5707C1.50561 35.654 1.62152 34.7418 1.85055 33.8611C2.38126 31.7865 3.50723 29.9606 5.05758 28.6608C6.60792 27.3609 8.49798 26.658 10.4409 26.6587C12.3838 26.6594 14.2734 27.3637 15.823 28.6647C17.3726 29.9657 18.4975 31.7923 19.027 33.8673C19.2544 34.7462 19.3691 35.6563 19.3678 36.5707C19.3646 39.1987 18.4225 41.7181 16.7481 43.576C15.0737 45.4339 12.8037 46.4788 10.4362 46.4813ZM19.7883 41.7042C19.9617 41.316 20.1153 40.9173 20.2483 40.5099H35.7709C35.738 40.7878 35.7207 41.0676 35.7192 41.3478C35.7192 41.4682 35.73 41.5867 35.7356 41.7042H19.7883ZM41.8523 46.4813C40.9373 46.4813 40.0428 46.1801 39.282 45.6158C38.5212 45.0516 37.9282 44.2495 37.5781 43.3111C37.2279 42.3728 37.1363 41.3402 37.3148 40.344C37.4933 39.3479 37.9339 38.4328 38.581 37.7146C39.228 36.9964 40.0523 36.5073 40.9497 36.3092C41.8471 36.111 42.7773 36.2127 43.6227 36.6014C44.468 36.9901 45.1906 37.6483 45.6989 38.4928C46.2073 39.3374 46.4786 40.3302 46.4786 41.3459C46.4772 42.7074 45.9894 44.0128 45.1221 44.9755C44.2548 45.9383 43.0788 46.4798 41.8523 46.4813ZM49.4915 41.7042H47.9685C47.9741 41.5852 47.9849 41.4682 47.9849 41.3478C47.9833 41.0676 47.9662 40.7878 47.9336 40.5099H49.4915V41.7042Z" fill="#EFB443"/>
<path d="M13.8519 21.7618C13.8519 21.5401 13.7726 21.3274 13.6313 21.1706C13.4901 21.0139 13.2985 20.9258 13.0988 20.9258H9.65596C9.45621 20.9258 9.26466 21.0139 9.12342 21.1706C8.98218 21.3274 8.90283 21.5401 8.90283 21.7618C8.90283 21.9835 8.98218 22.1961 9.12342 22.3529C9.26466 22.5097 9.45621 22.5978 9.65596 22.5978H13.0988C13.2985 22.5978 13.4901 22.5097 13.6313 22.3529C13.7726 22.1961 13.8519 21.9835 13.8519 21.7618Z" fill="#EFB443"/>
<path d="M27.1125 29.8527C27.2114 29.8527 27.3094 29.8311 27.4008 29.7891C27.4922 29.7472 27.5752 29.6856 27.6451 29.6079C27.7151 29.5303 27.7706 29.4381 27.8084 29.3367C27.8462 29.2352 27.8657 29.1265 27.8656 29.0167V26.1503C27.8656 25.9286 27.7863 25.716 27.645 25.5592C27.5038 25.4024 27.3122 25.3143 27.1125 25.3143C26.9127 25.3143 26.7212 25.4024 26.58 25.5592C26.4387 25.716 26.3594 25.9286 26.3594 26.1503V29.0167C26.3593 29.1265 26.3788 29.2352 26.4166 29.3367C26.4544 29.4381 26.5099 29.5303 26.5798 29.6079C26.6498 29.6856 26.7328 29.7472 26.8242 29.7891C26.9156 29.8311 27.0136 29.8527 27.1125 29.8527Z" fill="#EFB443"/>
<path d="M30.2863 29.8527C30.3852 29.8527 30.4832 29.8311 30.5746 29.7891C30.666 29.7472 30.749 29.6856 30.819 29.6079C30.8889 29.5303 30.9444 29.4381 30.9822 29.3367C31.02 29.2352 31.0395 29.1265 31.0394 29.0167V26.1503C31.0394 25.9286 30.9601 25.716 30.8188 25.5592C30.6776 25.4024 30.4861 25.3143 30.2863 25.3143C30.0866 25.3143 29.895 25.4024 29.7538 25.5592C29.6125 25.716 29.5332 25.9286 29.5332 26.1503V29.0167C29.5331 29.1265 29.5526 29.2352 29.5904 29.3367C29.6282 29.4381 29.6837 29.5303 29.7537 29.6079C29.8236 29.6856 29.9066 29.7472 29.998 29.7891C30.0894 29.8311 30.1874 29.8527 30.2863 29.8527Z" fill="#EFB443"/>
<path d="M33.4603 29.8527C33.5592 29.8527 33.6571 29.8311 33.7485 29.7891C33.8399 29.7472 33.923 29.6856 33.9929 29.6079C34.0629 29.5303 34.1183 29.4381 34.1562 29.3367C34.194 29.2352 34.2134 29.1265 34.2134 29.0167V26.1503C34.2134 25.9286 34.134 25.716 33.9928 25.5592C33.8516 25.4024 33.66 25.3143 33.4603 25.3143C33.2605 25.3143 33.069 25.4024 32.9277 25.5592C32.7865 25.716 32.7072 25.9286 32.7072 26.1503V29.0167C32.7071 29.1265 32.7265 29.2352 32.7644 29.3367C32.8022 29.4381 32.8577 29.5303 32.9276 29.6079C32.9976 29.6856 33.0806 29.7472 33.172 29.7891C33.2634 29.8311 33.3613 29.8527 33.4603 29.8527Z" fill="#EFB443"/>
<path d="M41.8524 37.4047C41.1501 37.4047 40.4637 37.6358 39.8798 38.0689C39.2959 38.5019 38.8409 39.1175 38.5721 39.8376C38.3034 40.5578 38.2331 41.3502 38.3701 42.1147C38.5071 42.8792 38.8452 43.5815 39.3418 44.1326C39.8383 44.6838 40.471 45.0592 41.1597 45.2113C41.8484 45.3633 42.5623 45.2853 43.2111 44.987C43.8598 44.6887 44.4143 44.1835 44.8045 43.5354C45.1946 42.8873 45.4028 42.1253 45.4028 41.3458C45.4018 40.3009 45.0274 39.2991 44.3618 38.5603C43.6962 37.8214 42.7937 37.4058 41.8524 37.4047ZM41.8524 43.615C41.448 43.615 41.0528 43.4819 40.7167 43.2326C40.3805 42.9832 40.1185 42.6288 39.9637 42.2142C39.809 41.7996 39.7685 41.3433 39.8474 40.9031C39.9263 40.463 40.121 40.0586 40.4069 39.7413C40.6928 39.4239 41.057 39.2078 41.4535 39.1203C41.8501 39.0327 42.2611 39.0777 42.6346 39.2494C43.0082 39.4211 43.3274 39.712 43.5521 40.0851C43.7767 40.4583 43.8966 40.897 43.8966 41.3458C43.8959 41.9474 43.6803 42.5241 43.2971 42.9495C42.9139 43.3749 42.3943 43.6142 41.8524 43.615Z" fill="#EFB443"/>
<path d="M10.4361 30.9556C9.33386 30.9608 8.26298 31.3636 7.38495 32.1033C6.50693 32.8431 5.86935 33.8796 5.56836 35.0567C5.44129 35.5482 5.37768 36.0573 5.37943 36.5687C5.37943 38.0574 5.91219 39.4851 6.86051 40.5377C7.80882 41.5904 9.09502 42.1818 10.4361 42.1818C11.7773 42.1818 13.0635 41.5904 14.0118 40.5377C14.9601 39.4851 15.4928 38.0574 15.4928 36.5687C15.4938 36.0469 15.4275 35.5276 15.2962 35.0266C14.9937 33.8546 14.356 32.8236 13.4793 32.0892C12.6026 31.3548 11.5345 30.9569 10.4361 30.9556ZM10.4361 40.5098C9.49481 40.5086 8.59234 40.0931 7.92672 39.3542C7.2611 38.6153 6.88671 37.6136 6.88568 36.5687C6.8838 36.2133 6.92727 35.8595 7.01479 35.5177C7.22089 34.6899 7.66512 33.9597 8.27979 33.4382C8.89446 32.9167 9.64586 32.6325 10.4195 32.629C11.1932 32.6255 11.9466 32.9028 12.5651 33.4187C13.1836 33.9346 13.6332 34.6608 13.8454 35.4867C13.9382 35.8384 13.985 36.2031 13.9844 36.5696C13.9832 37.6139 13.609 38.6151 12.9439 39.3537C12.2787 40.0923 11.3769 40.508 10.4361 40.5098Z" fill="#EFB443"/>
</svg>
