<svg version="1.1" xmlns="http://www.w3.org/2000/svg" xmlns:xlink="http://www.w3.org/1999/xlink" viewBox="0 0 172 172"><g fill="none" fill-rule="nonzero" stroke="none" stroke-width="1" stroke-linecap="butt" stroke-linejoin="miter" stroke-miterlimit="10" stroke-dasharray="" stroke-dashoffset="0" font-family="none" font-weight="none" font-size="none" text-anchor="none" style="mix-blend-mode: normal"><path d="M0,172v-172h172v172z" fill="none"></path><path d="M86,172c-47.49649,0 -86,-38.50351 -86,-86v0c0,-47.49649 38.50351,-86 86,-86v0c47.49649,0 86,38.50351 86,86v0c0,47.49649 -38.50351,86 -86,86z" fill="#49a760"></path><g fill="#ffffff"><path d="M86.06579,28.66667c-31.56774,0 -57.26588,25.67602 -57.27735,57.24375c-0.00573,10.09067 2.63724,19.94161 7.64818,28.62187l-7.77135,28.80104l29.99922,-7.08828c8.36493,4.56373 17.78157,6.95937 27.36771,6.96511h0.0224c31.562,0 57.24894,-25.68175 57.26614,-57.24375c0.01147,-15.30227 -5.93902,-29.68953 -16.75208,-40.51406c-10.81307,-10.8188 -25.1834,-16.77994 -40.50286,-16.78568zM86.05459,40.13333c12.2464,0.00573 23.75517,4.78044 32.40677,13.4263c8.6516,8.65733 13.40418,20.16064 13.39271,32.39558c-0.01147,25.24959 -20.54961,45.78828 -45.81068,45.78828c-7.64253,-0.00573 -15.21286,-1.9247 -21.88073,-5.56537l-3.86328,-2.10521l-4.26641,1.00781l-11.2875,2.66511l2.75469,-10.23489l1.24297,-4.59115l-2.37396,-4.12083c-4.00187,-6.92587 -6.1198,-14.84467 -6.11406,-22.88854c0.01147,-25.23813 20.55561,-45.77708 45.79948,-45.77708zM65.79756,59.48333c-0.95747,0 -2.50556,0.35833 -3.81849,1.79167c-1.31293,1.4276 -5.01667,4.88525 -5.01667,11.92578c0,7.04053 5.12865,13.84618 5.84531,14.80364c0.71093,0.95173 9.89959,15.85625 24.44505,21.58958c12.08587,4.7644 14.54054,3.82413 17.16641,3.58333c2.62587,-0.23507 8.47127,-3.4546 9.6638,-6.79713c1.19253,-3.34254 1.19531,-6.21781 0.83984,-6.80833c-0.35547,-0.59627 -1.31016,-0.95183 -2.74349,-1.66849c-1.4276,-0.71667 -8.46285,-4.17127 -9.77578,-4.64714c-1.31293,-0.47587 -2.27327,-0.71667 -3.225,0.71667c-0.95173,1.43333 -3.68689,4.64722 -4.52396,5.59896c-0.83707,0.95747 -1.66849,1.0862 -3.10183,0.36953c-1.43333,-0.7224 -6.04186,-2.23735 -11.51146,-7.11068c-4.25414,-3.78973 -7.12466,-8.46562 -7.96172,-9.89896c-0.83133,-1.4276 -0.07838,-2.21173 0.63828,-2.92266c0.64213,-0.64213 1.42213,-1.67127 2.1388,-2.50833c0.71093,-0.83707 0.95747,-1.43343 1.43333,-2.38516c0.47587,-0.95173 0.23229,-1.79166 -0.12318,-2.50833c-0.35547,-0.71667 -3.13918,-7.78336 -4.41198,-10.61563c-1.07213,-2.37933 -2.20447,-2.43461 -3.225,-2.47474c-0.83133,-0.0344 -1.78056,-0.03359 -2.73229,-0.03359z"></path></g></g></svg>